<?xml version="1.0" encoding="utf-8" standalone="no"?>
<!DOCTYPE svg PUBLIC "-//W3C//DTD SVG 1.1//EN"
  "http://www.w3.org/Graphics/SVG/1.1/DTD/svg11.dtd">
<svg xmlns:xlink="http://www.w3.org/1999/xlink" width="460.8pt" height="345.6pt" viewBox="0 0 460.8 345.6" xmlns="http://www.w3.org/2000/svg" version="1.1">
 <metadata>
  <rdf:RDF xmlns:dc="http://purl.org/dc/elements/1.1/" xmlns:cc="http://creativecommons.org/ns#" xmlns:rdf="http://www.w3.org/1999/02/22-rdf-syntax-ns#">
   <cc:Work>
    <dc:type rdf:resource="http://purl.org/dc/dcmitype/StillImage"/>
    <dc:date>2024-04-22T17:39:30.103744</dc:date>
    <dc:format>image/svg+xml</dc:format>
    <dc:creator>
     <cc:Agent>
      <dc:title>Matplotlib v3.8.3, https://matplotlib.org/</dc:title>
     </cc:Agent>
    </dc:creator>
   </cc:Work>
  </rdf:RDF>
 </metadata>
 <defs>
  <style type="text/css">*{stroke-linejoin: round; stroke-linecap: butt}</style>
 </defs>
 <g id="figure_1">
  <g id="patch_1">
   <path d="M 0 345.6 
L 460.8 345.6 
L 460.8 0 
L 0 0 
z
" style="fill: #ffffff"/>
  </g>
  <g id="axes_1">
   <g id="patch_2">
    <path d="M 57.6 307.584 
L 414.72 307.584 
L 414.72 41.472 
L 57.6 41.472 
z
" style="fill: #ffffff"/>
   </g>
   <g id="patch_3">
    <path d="M 73.832727 307.584 
L 86.319441 307.584 
L 86.319441 223.104 
L 73.832727 223.104 
z
" clip-path="url(#p19562b04c0)" style="fill: #1f77b4"/>
   </g>
   <g id="patch_4">
    <path d="M 76.985938 307.584 
L 89.472651 307.584 
L 89.472651 223.104 
L 76.985938 223.104 
z
" clip-path="url(#p19562b04c0)" style="fill: #1f77b4"/>
   </g>
   <g id="patch_5">
    <path d="M 80.139148 307.584 
L 92.625861 307.584 
L 92.625861 223.104 
L 80.139148 223.104 
z
" clip-path="url(#p19562b04c0)" style="fill: #1f77b4"/>
   </g>
   <g id="patch_6">
    <path d="M 83.292359 307.584 
L 95.779072 307.584 
L 95.779072 223.104 
L 83.292359 223.104 
z
" clip-path="url(#p19562b04c0)" style="fill: #1f77b4"/>
   </g>
   <g id="patch_7">
    <path d="M 86.445569 307.584 
L 98.932282 307.584 
L 98.932282 223.104 
L 86.445569 223.104 
z
" clip-path="url(#p19562b04c0)" style="fill: #1f77b4"/>
   </g>
   <g id="patch_8">
    <path d="M 89.598779 307.584 
L 102.085493 307.584 
L 102.085493 223.104 
L 89.598779 223.104 
z
" clip-path="url(#p19562b04c0)" style="fill: #1f77b4"/>
   </g>
   <g id="patch_9">
    <path d="M 92.75199 307.584 
L 105.238703 307.584 
L 105.238703 223.104 
L 92.75199 223.104 
z
" clip-path="url(#p19562b04c0)" style="fill: #1f77b4"/>
   </g>
   <g id="patch_10">
    <path d="M 95.9052 307.584 
L 108.391914 307.584 
L 108.391914 223.104 
L 95.9052 223.104 
z
" clip-path="url(#p19562b04c0)" style="fill: #1f77b4"/>
   </g>
   <g id="patch_11">
    <path d="M 99.058411 307.584 
L 111.545124 307.584 
L 111.545124 223.104 
L 99.058411 223.104 
z
" clip-path="url(#p19562b04c0)" style="fill: #1f77b4"/>
   </g>
   <g id="patch_12">
    <path d="M 102.211621 307.584 
L 114.698334 307.584 
L 114.698334 223.104 
L 102.211621 223.104 
z
" clip-path="url(#p19562b04c0)" style="fill: #1f77b4"/>
   </g>
   <g id="patch_13">
    <path d="M 105.364832 307.584 
L 117.851545 307.584 
L 117.851545 223.104 
L 105.364832 223.104 
z
" clip-path="url(#p19562b04c0)" style="fill: #1f77b4"/>
   </g>
   <g id="patch_14">
    <path d="M 108.518042 307.584 
L 121.004755 307.584 
L 121.004755 223.104 
L 108.518042 223.104 
z
" clip-path="url(#p19562b04c0)" style="fill: #1f77b4"/>
   </g>
   <g id="patch_15">
    <path d="M 111.671252 307.584 
L 124.157966 307.584 
L 124.157966 223.104 
L 111.671252 223.104 
z
" clip-path="url(#p19562b04c0)" style="fill: #1f77b4"/>
   </g>
   <g id="patch_16">
    <path d="M 114.824463 307.584 
L 127.311176 307.584 
L 127.311176 223.104 
L 114.824463 223.104 
z
" clip-path="url(#p19562b04c0)" style="fill: #1f77b4"/>
   </g>
   <g id="patch_17">
    <path d="M 117.977673 307.584 
L 130.464387 307.584 
L 130.464387 223.104 
L 117.977673 223.104 
z
" clip-path="url(#p19562b04c0)" style="fill: #1f77b4"/>
   </g>
   <g id="patch_18">
    <path d="M 121.130884 307.584 
L 133.617597 307.584 
L 133.617597 223.104 
L 121.130884 223.104 
z
" clip-path="url(#p19562b04c0)" style="fill: #1f77b4"/>
   </g>
   <g id="patch_19">
    <path d="M 124.284094 307.584 
L 136.770807 307.584 
L 136.770807 223.104 
L 124.284094 223.104 
z
" clip-path="url(#p19562b04c0)" style="fill: #1f77b4"/>
   </g>
   <g id="patch_20">
    <path d="M 127.437305 307.584 
L 139.924018 307.584 
L 139.924018 223.104 
L 127.437305 223.104 
z
" clip-path="url(#p19562b04c0)" style="fill: #1f77b4"/>
   </g>
   <g id="patch_21">
    <path d="M 130.590515 307.584 
L 143.077228 307.584 
L 143.077228 223.104 
L 130.590515 223.104 
z
" clip-path="url(#p19562b04c0)" style="fill: #1f77b4"/>
   </g>
   <g id="patch_22">
    <path d="M 133.743725 307.584 
L 146.230439 307.584 
L 146.230439 223.104 
L 133.743725 223.104 
z
" clip-path="url(#p19562b04c0)" style="fill: #1f77b4"/>
   </g>
   <g id="patch_23">
    <path d="M 136.896936 307.584 
L 149.383649 307.584 
L 149.383649 54.144 
L 136.896936 54.144 
z
" clip-path="url(#p19562b04c0)" style="fill: #1f77b4"/>
   </g>
   <g id="patch_24">
    <path d="M 140.050146 307.584 
L 152.53686 307.584 
L 152.53686 54.144 
L 140.050146 54.144 
z
" clip-path="url(#p19562b04c0)" style="fill: #1f77b4"/>
   </g>
   <g id="patch_25">
    <path d="M 143.203357 307.584 
L 155.69007 307.584 
L 155.69007 54.144 
L 143.203357 54.144 
z
" clip-path="url(#p19562b04c0)" style="fill: #1f77b4"/>
   </g>
   <g id="patch_26">
    <path d="M 146.356567 307.584 
L 158.84328 307.584 
L 158.84328 54.144 
L 146.356567 54.144 
z
" clip-path="url(#p19562b04c0)" style="fill: #1f77b4"/>
   </g>
   <g id="patch_27">
    <path d="M 149.509777 307.584 
L 161.996491 307.584 
L 161.996491 54.144 
L 149.509777 54.144 
z
" clip-path="url(#p19562b04c0)" style="fill: #1f77b4"/>
   </g>
   <g id="patch_28">
    <path d="M 152.662988 307.584 
L 165.149701 307.584 
L 165.149701 54.144 
L 152.662988 54.144 
z
" clip-path="url(#p19562b04c0)" style="fill: #1f77b4"/>
   </g>
   <g id="patch_29">
    <path d="M 155.816198 307.584 
L 168.302912 307.584 
L 168.302912 54.144 
L 155.816198 54.144 
z
" clip-path="url(#p19562b04c0)" style="fill: #1f77b4"/>
   </g>
   <g id="patch_30">
    <path d="M 158.969409 307.584 
L 171.456122 307.584 
L 171.456122 54.144 
L 158.969409 54.144 
z
" clip-path="url(#p19562b04c0)" style="fill: #1f77b4"/>
   </g>
   <g id="patch_31">
    <path d="M 162.122619 307.584 
L 174.609332 307.584 
L 174.609332 54.144 
L 162.122619 54.144 
z
" clip-path="url(#p19562b04c0)" style="fill: #1f77b4"/>
   </g>
   <g id="patch_32">
    <path d="M 165.27583 307.584 
L 177.762543 307.584 
L 177.762543 54.144 
L 165.27583 54.144 
z
" clip-path="url(#p19562b04c0)" style="fill: #1f77b4"/>
   </g>
   <g id="patch_33">
    <path d="M 168.42904 307.584 
L 180.915753 307.584 
L 180.915753 54.144 
L 168.42904 54.144 
z
" clip-path="url(#p19562b04c0)" style="fill: #1f77b4"/>
   </g>
   <g id="patch_34">
    <path d="M 171.58225 307.584 
L 184.068964 307.584 
L 184.068964 54.144 
L 171.58225 54.144 
z
" clip-path="url(#p19562b04c0)" style="fill: #1f77b4"/>
   </g>
   <g id="patch_35">
    <path d="M 174.735461 307.584 
L 187.222174 307.584 
L 187.222174 54.144 
L 174.735461 54.144 
z
" clip-path="url(#p19562b04c0)" style="fill: #1f77b4"/>
   </g>
   <g id="patch_36">
    <path d="M 177.888671 307.584 
L 190.375385 307.584 
L 190.375385 54.144 
L 177.888671 54.144 
z
" clip-path="url(#p19562b04c0)" style="fill: #1f77b4"/>
   </g>
   <g id="patch_37">
    <path d="M 181.041882 307.584 
L 193.528595 307.584 
L 193.528595 54.144 
L 181.041882 54.144 
z
" clip-path="url(#p19562b04c0)" style="fill: #1f77b4"/>
   </g>
   <g id="patch_38">
    <path d="M 184.195092 307.584 
L 196.681805 307.584 
L 196.681805 54.144 
L 184.195092 54.144 
z
" clip-path="url(#p19562b04c0)" style="fill: #1f77b4"/>
   </g>
   <g id="patch_39">
    <path d="M 187.348303 307.584 
L 199.835016 307.584 
L 199.835016 54.144 
L 187.348303 54.144 
z
" clip-path="url(#p19562b04c0)" style="fill: #1f77b4"/>
   </g>
   <g id="patch_40">
    <path d="M 190.501513 307.584 
L 202.988226 307.584 
L 202.988226 54.144 
L 190.501513 54.144 
z
" clip-path="url(#p19562b04c0)" style="fill: #1f77b4"/>
   </g>
   <g id="patch_41">
    <path d="M 193.654723 307.584 
L 206.141437 307.584 
L 206.141437 54.144 
L 193.654723 54.144 
z
" clip-path="url(#p19562b04c0)" style="fill: #1f77b4"/>
   </g>
   <g id="patch_42">
    <path d="M 196.807934 307.584 
L 209.294647 307.584 
L 209.294647 54.144 
L 196.807934 54.144 
z
" clip-path="url(#p19562b04c0)" style="fill: #1f77b4"/>
   </g>
   <g id="patch_43">
    <path d="M 199.961144 307.584 
L 212.447858 307.584 
L 212.447858 54.144 
L 199.961144 54.144 
z
" clip-path="url(#p19562b04c0)" style="fill: #1f77b4"/>
   </g>
   <g id="patch_44">
    <path d="M 203.114355 307.584 
L 215.601068 307.584 
L 215.601068 54.144 
L 203.114355 54.144 
z
" clip-path="url(#p19562b04c0)" style="fill: #1f77b4"/>
   </g>
   <g id="patch_45">
    <path d="M 206.267565 307.584 
L 218.754278 307.584 
L 218.754278 54.144 
L 206.267565 54.144 
z
" clip-path="url(#p19562b04c0)" style="fill: #1f77b4"/>
   </g>
   <g id="patch_46">
    <path d="M 209.420776 307.584 
L 221.907489 307.584 
L 221.907489 54.144 
L 209.420776 54.144 
z
" clip-path="url(#p19562b04c0)" style="fill: #1f77b4"/>
   </g>
   <g id="patch_47">
    <path d="M 212.573986 307.584 
L 225.060699 307.584 
L 225.060699 54.144 
L 212.573986 54.144 
z
" clip-path="url(#p19562b04c0)" style="fill: #1f77b4"/>
   </g>
   <g id="patch_48">
    <path d="M 215.727196 307.584 
L 228.21391 307.584 
L 228.21391 54.144 
L 215.727196 54.144 
z
" clip-path="url(#p19562b04c0)" style="fill: #1f77b4"/>
   </g>
   <g id="patch_49">
    <path d="M 218.880407 307.584 
L 231.36712 307.584 
L 231.36712 54.144 
L 218.880407 54.144 
z
" clip-path="url(#p19562b04c0)" style="fill: #1f77b4"/>
   </g>
   <g id="patch_50">
    <path d="M 222.033617 307.584 
L 234.520331 307.584 
L 234.520331 54.144 
L 222.033617 54.144 
z
" clip-path="url(#p19562b04c0)" style="fill: #1f77b4"/>
   </g>
   <g id="patch_51">
    <path d="M 225.186828 307.584 
L 237.673541 307.584 
L 237.673541 54.144 
L 225.186828 54.144 
z
" clip-path="url(#p19562b04c0)" style="fill: #1f77b4"/>
   </g>
   <g id="patch_52">
    <path d="M 228.340038 307.584 
L 240.826751 307.584 
L 240.826751 54.144 
L 228.340038 54.144 
z
" clip-path="url(#p19562b04c0)" style="fill: #1f77b4"/>
   </g>
   <g id="patch_53">
    <path d="M 231.493249 307.584 
L 243.979962 307.584 
L 243.979962 54.144 
L 231.493249 54.144 
z
" clip-path="url(#p19562b04c0)" style="fill: #1f77b4"/>
   </g>
   <g id="patch_54">
    <path d="M 234.646459 307.584 
L 247.133172 307.584 
L 247.133172 54.144 
L 234.646459 54.144 
z
" clip-path="url(#p19562b04c0)" style="fill: #1f77b4"/>
   </g>
   <g id="patch_55">
    <path d="M 237.799669 307.584 
L 250.286383 307.584 
L 250.286383 54.144 
L 237.799669 54.144 
z
" clip-path="url(#p19562b04c0)" style="fill: #1f77b4"/>
   </g>
   <g id="patch_56">
    <path d="M 240.95288 307.584 
L 253.439593 307.584 
L 253.439593 54.144 
L 240.95288 54.144 
z
" clip-path="url(#p19562b04c0)" style="fill: #1f77b4"/>
   </g>
   <g id="patch_57">
    <path d="M 244.10609 307.584 
L 256.592804 307.584 
L 256.592804 54.144 
L 244.10609 54.144 
z
" clip-path="url(#p19562b04c0)" style="fill: #1f77b4"/>
   </g>
   <g id="patch_58">
    <path d="M 247.259301 307.584 
L 259.746014 307.584 
L 259.746014 54.144 
L 247.259301 54.144 
z
" clip-path="url(#p19562b04c0)" style="fill: #1f77b4"/>
   </g>
   <g id="patch_59">
    <path d="M 250.412511 307.584 
L 262.899224 307.584 
L 262.899224 54.144 
L 250.412511 54.144 
z
" clip-path="url(#p19562b04c0)" style="fill: #1f77b4"/>
   </g>
   <g id="patch_60">
    <path d="M 253.565722 307.584 
L 266.052435 307.584 
L 266.052435 54.144 
L 253.565722 54.144 
z
" clip-path="url(#p19562b04c0)" style="fill: #1f77b4"/>
   </g>
   <g id="patch_61">
    <path d="M 256.718932 307.584 
L 269.205645 307.584 
L 269.205645 54.144 
L 256.718932 54.144 
z
" clip-path="url(#p19562b04c0)" style="fill: #1f77b4"/>
   </g>
   <g id="patch_62">
    <path d="M 259.872142 307.584 
L 272.358856 307.584 
L 272.358856 54.144 
L 259.872142 54.144 
z
" clip-path="url(#p19562b04c0)" style="fill: #1f77b4"/>
   </g>
   <g id="patch_63">
    <path d="M 263.025353 307.584 
L 275.512066 307.584 
L 275.512066 54.144 
L 263.025353 54.144 
z
" clip-path="url(#p19562b04c0)" style="fill: #1f77b4"/>
   </g>
   <g id="patch_64">
    <path d="M 266.178563 307.584 
L 278.665277 307.584 
L 278.665277 54.144 
L 266.178563 54.144 
z
" clip-path="url(#p19562b04c0)" style="fill: #1f77b4"/>
   </g>
   <g id="patch_65">
    <path d="M 269.331774 307.584 
L 281.818487 307.584 
L 281.818487 54.144 
L 269.331774 54.144 
z
" clip-path="url(#p19562b04c0)" style="fill: #1f77b4"/>
   </g>
   <g id="patch_66">
    <path d="M 272.484984 307.584 
L 284.971697 307.584 
L 284.971697 54.144 
L 272.484984 54.144 
z
" clip-path="url(#p19562b04c0)" style="fill: #1f77b4"/>
   </g>
   <g id="patch_67">
    <path d="M 275.638195 307.584 
L 288.124908 307.584 
L 288.124908 54.144 
L 275.638195 54.144 
z
" clip-path="url(#p19562b04c0)" style="fill: #1f77b4"/>
   </g>
   <g id="patch_68">
    <path d="M 278.791405 307.584 
L 291.278118 307.584 
L 291.278118 54.144 
L 278.791405 54.144 
z
" clip-path="url(#p19562b04c0)" style="fill: #1f77b4"/>
   </g>
   <g id="patch_69">
    <path d="M 281.944615 307.584 
L 294.431329 307.584 
L 294.431329 54.144 
L 281.944615 54.144 
z
" clip-path="url(#p19562b04c0)" style="fill: #1f77b4"/>
   </g>
   <g id="patch_70">
    <path d="M 285.097826 307.584 
L 297.584539 307.584 
L 297.584539 54.144 
L 285.097826 54.144 
z
" clip-path="url(#p19562b04c0)" style="fill: #1f77b4"/>
   </g>
   <g id="patch_71">
    <path d="M 288.251036 307.584 
L 300.73775 307.584 
L 300.73775 54.144 
L 288.251036 54.144 
z
" clip-path="url(#p19562b04c0)" style="fill: #1f77b4"/>
   </g>
   <g id="patch_72">
    <path d="M 291.404247 307.584 
L 303.89096 307.584 
L 303.89096 54.144 
L 291.404247 54.144 
z
" clip-path="url(#p19562b04c0)" style="fill: #1f77b4"/>
   </g>
   <g id="patch_73">
    <path d="M 294.557457 307.584 
L 307.04417 307.584 
L 307.04417 54.144 
L 294.557457 54.144 
z
" clip-path="url(#p19562b04c0)" style="fill: #1f77b4"/>
   </g>
   <g id="patch_74">
    <path d="M 297.710668 307.584 
L 310.197381 307.584 
L 310.197381 54.144 
L 297.710668 54.144 
z
" clip-path="url(#p19562b04c0)" style="fill: #1f77b4"/>
   </g>
   <g id="patch_75">
    <path d="M 300.863878 307.584 
L 313.350591 307.584 
L 313.350591 54.144 
L 300.863878 54.144 
z
" clip-path="url(#p19562b04c0)" style="fill: #1f77b4"/>
   </g>
   <g id="patch_76">
    <path d="M 304.017088 307.584 
L 316.503802 307.584 
L 316.503802 54.144 
L 304.017088 54.144 
z
" clip-path="url(#p19562b04c0)" style="fill: #1f77b4"/>
   </g>
   <g id="patch_77">
    <path d="M 307.170299 307.584 
L 319.657012 307.584 
L 319.657012 54.144 
L 307.170299 54.144 
z
" clip-path="url(#p19562b04c0)" style="fill: #1f77b4"/>
   </g>
   <g id="patch_78">
    <path d="M 310.323509 307.584 
L 322.810223 307.584 
L 322.810223 54.144 
L 310.323509 54.144 
z
" clip-path="url(#p19562b04c0)" style="fill: #1f77b4"/>
   </g>
   <g id="patch_79">
    <path d="M 313.47672 307.584 
L 325.963433 307.584 
L 325.963433 54.144 
L 313.47672 54.144 
z
" clip-path="url(#p19562b04c0)" style="fill: #1f77b4"/>
   </g>
   <g id="patch_80">
    <path d="M 316.62993 307.584 
L 329.116643 307.584 
L 329.116643 54.144 
L 316.62993 54.144 
z
" clip-path="url(#p19562b04c0)" style="fill: #1f77b4"/>
   </g>
   <g id="patch_81">
    <path d="M 319.78314 307.584 
L 332.269854 307.584 
L 332.269854 54.144 
L 319.78314 54.144 
z
" clip-path="url(#p19562b04c0)" style="fill: #1f77b4"/>
   </g>
   <g id="patch_82">
    <path d="M 322.936351 307.584 
L 335.423064 307.584 
L 335.423064 54.144 
L 322.936351 54.144 
z
" clip-path="url(#p19562b04c0)" style="fill: #1f77b4"/>
   </g>
   <g id="patch_83">
    <path d="M 326.089561 307.584 
L 338.576275 307.584 
L 338.576275 223.104 
L 326.089561 223.104 
z
" clip-path="url(#p19562b04c0)" style="fill: #1f77b4"/>
   </g>
   <g id="patch_84">
    <path d="M 329.242772 307.584 
L 341.729485 307.584 
L 341.729485 223.104 
L 329.242772 223.104 
z
" clip-path="url(#p19562b04c0)" style="fill: #1f77b4"/>
   </g>
   <g id="patch_85">
    <path d="M 332.395982 307.584 
L 344.882695 307.584 
L 344.882695 223.104 
L 332.395982 223.104 
z
" clip-path="url(#p19562b04c0)" style="fill: #1f77b4"/>
   </g>
   <g id="patch_86">
    <path d="M 335.549193 307.584 
L 348.035906 307.584 
L 348.035906 223.104 
L 335.549193 223.104 
z
" clip-path="url(#p19562b04c0)" style="fill: #1f77b4"/>
   </g>
   <g id="patch_87">
    <path d="M 338.702403 307.584 
L 351.189116 307.584 
L 351.189116 223.104 
L 338.702403 223.104 
z
" clip-path="url(#p19562b04c0)" style="fill: #1f77b4"/>
   </g>
   <g id="patch_88">
    <path d="M 341.855613 307.584 
L 354.342327 307.584 
L 354.342327 223.104 
L 341.855613 223.104 
z
" clip-path="url(#p19562b04c0)" style="fill: #1f77b4"/>
   </g>
   <g id="patch_89">
    <path d="M 345.008824 307.584 
L 357.495537 307.584 
L 357.495537 223.104 
L 345.008824 223.104 
z
" clip-path="url(#p19562b04c0)" style="fill: #1f77b4"/>
   </g>
   <g id="patch_90">
    <path d="M 348.162034 307.584 
L 360.648748 307.584 
L 360.648748 223.104 
L 348.162034 223.104 
z
" clip-path="url(#p19562b04c0)" style="fill: #1f77b4"/>
   </g>
   <g id="patch_91">
    <path d="M 351.315245 307.584 
L 363.801958 307.584 
L 363.801958 223.104 
L 351.315245 223.104 
z
" clip-path="url(#p19562b04c0)" style="fill: #1f77b4"/>
   </g>
   <g id="patch_92">
    <path d="M 354.468455 307.584 
L 366.955168 307.584 
L 366.955168 223.104 
L 354.468455 223.104 
z
" clip-path="url(#p19562b04c0)" style="fill: #1f77b4"/>
   </g>
   <g id="patch_93">
    <path d="M 357.621666 307.584 
L 370.108379 307.584 
L 370.108379 223.104 
L 357.621666 223.104 
z
" clip-path="url(#p19562b04c0)" style="fill: #1f77b4"/>
   </g>
   <g id="patch_94">
    <path d="M 360.774876 307.584 
L 373.261589 307.584 
L 373.261589 223.104 
L 360.774876 223.104 
z
" clip-path="url(#p19562b04c0)" style="fill: #1f77b4"/>
   </g>
   <g id="patch_95">
    <path d="M 363.928086 307.584 
L 376.4148 307.584 
L 376.4148 223.104 
L 363.928086 223.104 
z
" clip-path="url(#p19562b04c0)" style="fill: #1f77b4"/>
   </g>
   <g id="patch_96">
    <path d="M 367.081297 307.584 
L 379.56801 307.584 
L 379.56801 223.104 
L 367.081297 223.104 
z
" clip-path="url(#p19562b04c0)" style="fill: #1f77b4"/>
   </g>
   <g id="patch_97">
    <path d="M 370.234507 307.584 
L 382.721221 307.584 
L 382.721221 223.104 
L 370.234507 223.104 
z
" clip-path="url(#p19562b04c0)" style="fill: #1f77b4"/>
   </g>
   <g id="patch_98">
    <path d="M 373.387718 307.584 
L 385.874431 307.584 
L 385.874431 223.104 
L 373.387718 223.104 
z
" clip-path="url(#p19562b04c0)" style="fill: #1f77b4"/>
   </g>
   <g id="patch_99">
    <path d="M 376.540928 307.584 
L 389.027641 307.584 
L 389.027641 223.104 
L 376.540928 223.104 
z
" clip-path="url(#p19562b04c0)" style="fill: #1f77b4"/>
   </g>
   <g id="patch_100">
    <path d="M 379.694139 307.584 
L 392.180852 307.584 
L 392.180852 223.104 
L 379.694139 223.104 
z
" clip-path="url(#p19562b04c0)" style="fill: #1f77b4"/>
   </g>
   <g id="patch_101">
    <path d="M 382.847349 307.584 
L 395.334062 307.584 
L 395.334062 223.104 
L 382.847349 223.104 
z
" clip-path="url(#p19562b04c0)" style="fill: #1f77b4"/>
   </g>
   <g id="patch_102">
    <path d="M 386.000559 307.584 
L 398.487273 307.584 
L 398.487273 223.104 
L 386.000559 223.104 
z
" clip-path="url(#p19562b04c0)" style="fill: #1f77b4"/>
   </g>
   <g id="matplotlib.axis_1">
    <g id="xtick_1">
     <g id="line2d_1">
      <defs>
       <path id="m185c943005" d="M 0 0 
L 0 3.5 
" style="stroke: #000000; stroke-width: 0.8"/>
      </defs>
      <g>
       <use xlink:href="#m185c943005" x="80.076084" y="307.584" style="stroke: #000000; stroke-width: 0.8"/>
      </g>
     </g>
     <g id="text_1">
      <!-- −20 -->
      <g transform="translate(69.52374 322.182437) scale(0.1 -0.1)">
       <defs>
        <path id="DejaVuSans-2212" d="M 678 2272 
L 4684 2272 
L 4684 1741 
L 678 1741 
L 678 2272 
z
" transform="scale(0.015625)"/>
        <path id="DejaVuSans-32" d="M 1228 531 
L 3431 531 
L 3431 0 
L 469 0 
L 469 531 
Q 828 903 1448 1529 
Q 2069 2156 2228 2338 
Q 2531 2678 2651 2914 
Q 2772 3150 2772 3378 
Q 2772 3750 2511 3984 
Q 2250 4219 1831 4219 
Q 1534 4219 1204 4116 
Q 875 4013 500 3803 
L 500 4441 
Q 881 4594 1212 4672 
Q 1544 4750 1819 4750 
Q 2544 4750 2975 4387 
Q 3406 4025 3406 3419 
Q 3406 3131 3298 2873 
Q 3191 2616 2906 2266 
Q 2828 2175 2409 1742 
Q 1991 1309 1228 531 
z
" transform="scale(0.015625)"/>
        <path id="DejaVuSans-30" d="M 2034 4250 
Q 1547 4250 1301 3770 
Q 1056 3291 1056 2328 
Q 1056 1369 1301 889 
Q 1547 409 2034 409 
Q 2525 409 2770 889 
Q 3016 1369 3016 2328 
Q 3016 3291 2770 3770 
Q 2525 4250 2034 4250 
z
M 2034 4750 
Q 2819 4750 3233 4129 
Q 3647 3509 3647 2328 
Q 3647 1150 3233 529 
Q 2819 -91 2034 -91 
Q 1250 -91 836 529 
Q 422 1150 422 2328 
Q 422 3509 836 4129 
Q 1250 4750 2034 4750 
z
" transform="scale(0.015625)"/>
       </defs>
       <use xlink:href="#DejaVuSans-2212"/>
       <use xlink:href="#DejaVuSans-32" x="83.789062"/>
       <use xlink:href="#DejaVuSans-30" x="147.412109"/>
      </g>
     </g>
    </g>
    <g id="xtick_2">
     <g id="line2d_2">
      <g>
       <use xlink:href="#m185c943005" x="158.118042" y="307.584" style="stroke: #000000; stroke-width: 0.8"/>
      </g>
     </g>
     <g id="text_2">
      <!-- −15 -->
      <g transform="translate(147.565698 322.182437) scale(0.1 -0.1)">
       <defs>
        <path id="DejaVuSans-31" d="M 794 531 
L 1825 531 
L 1825 4091 
L 703 3866 
L 703 4441 
L 1819 4666 
L 2450 4666 
L 2450 531 
L 3481 531 
L 3481 0 
L 794 0 
L 794 531 
z
" transform="scale(0.015625)"/>
        <path id="DejaVuSans-35" d="M 691 4666 
L 3169 4666 
L 3169 4134 
L 1269 4134 
L 1269 2991 
Q 1406 3038 1543 3061 
Q 1681 3084 1819 3084 
Q 2600 3084 3056 2656 
Q 3513 2228 3513 1497 
Q 3513 744 3044 326 
Q 2575 -91 1722 -91 
Q 1428 -91 1123 -41 
Q 819 9 494 109 
L 494 744 
Q 775 591 1075 516 
Q 1375 441 1709 441 
Q 2250 441 2565 725 
Q 2881 1009 2881 1497 
Q 2881 1984 2565 2268 
Q 2250 2553 1709 2553 
Q 1456 2553 1204 2497 
Q 953 2441 691 2322 
L 691 4666 
z
" transform="scale(0.015625)"/>
       </defs>
       <use xlink:href="#DejaVuSans-2212"/>
       <use xlink:href="#DejaVuSans-31" x="83.789062"/>
       <use xlink:href="#DejaVuSans-35" x="147.412109"/>
      </g>
     </g>
    </g>
    <g id="xtick_3">
     <g id="line2d_3">
      <g>
       <use xlink:href="#m185c943005" x="236.16" y="307.584" style="stroke: #000000; stroke-width: 0.8"/>
      </g>
     </g>
     <g id="text_3">
      <!-- −10 -->
      <g transform="translate(225.607656 322.182437) scale(0.1 -0.1)">
       <use xlink:href="#DejaVuSans-2212"/>
       <use xlink:href="#DejaVuSans-31" x="83.789062"/>
       <use xlink:href="#DejaVuSans-30" x="147.412109"/>
      </g>
     </g>
    </g>
    <g id="xtick_4">
     <g id="line2d_4">
      <g>
       <use xlink:href="#m185c943005" x="314.201958" y="307.584" style="stroke: #000000; stroke-width: 0.8"/>
      </g>
     </g>
     <g id="text_4">
      <!-- −5 -->
      <g transform="translate(306.830864 322.182437) scale(0.1 -0.1)">
       <use xlink:href="#DejaVuSans-2212"/>
       <use xlink:href="#DejaVuSans-35" x="83.789062"/>
      </g>
     </g>
    </g>
    <g id="xtick_5">
     <g id="line2d_5">
      <g>
       <use xlink:href="#m185c943005" x="392.243916" y="307.584" style="stroke: #000000; stroke-width: 0.8"/>
      </g>
     </g>
     <g id="text_5">
      <!-- 0 -->
      <g transform="translate(389.062666 322.182437) scale(0.1 -0.1)">
       <use xlink:href="#DejaVuSans-30"/>
      </g>
     </g>
    </g>
    <g id="text_6">
     <!-- Input current $I$ in nA -->
     <g transform="translate(185.96 335.862125) scale(0.1 -0.1)">
      <defs>
       <path id="DejaVuSans-49" d="M 628 4666 
L 1259 4666 
L 1259 0 
L 628 0 
L 628 4666 
z
" transform="scale(0.015625)"/>
       <path id="DejaVuSans-6e" d="M 3513 2113 
L 3513 0 
L 2938 0 
L 2938 2094 
Q 2938 2591 2744 2837 
Q 2550 3084 2163 3084 
Q 1697 3084 1428 2787 
Q 1159 2491 1159 1978 
L 1159 0 
L 581 0 
L 581 3500 
L 1159 3500 
L 1159 2956 
Q 1366 3272 1645 3428 
Q 1925 3584 2291 3584 
Q 2894 3584 3203 3211 
Q 3513 2838 3513 2113 
z
" transform="scale(0.015625)"/>
       <path id="DejaVuSans-70" d="M 1159 525 
L 1159 -1331 
L 581 -1331 
L 581 3500 
L 1159 3500 
L 1159 2969 
Q 1341 3281 1617 3432 
Q 1894 3584 2278 3584 
Q 2916 3584 3314 3078 
Q 3713 2572 3713 1747 
Q 3713 922 3314 415 
Q 2916 -91 2278 -91 
Q 1894 -91 1617 61 
Q 1341 213 1159 525 
z
M 3116 1747 
Q 3116 2381 2855 2742 
Q 2594 3103 2138 3103 
Q 1681 3103 1420 2742 
Q 1159 2381 1159 1747 
Q 1159 1113 1420 752 
Q 1681 391 2138 391 
Q 2594 391 2855 752 
Q 3116 1113 3116 1747 
z
" transform="scale(0.015625)"/>
       <path id="DejaVuSans-75" d="M 544 1381 
L 544 3500 
L 1119 3500 
L 1119 1403 
Q 1119 906 1312 657 
Q 1506 409 1894 409 
Q 2359 409 2629 706 
Q 2900 1003 2900 1516 
L 2900 3500 
L 3475 3500 
L 3475 0 
L 2900 0 
L 2900 538 
Q 2691 219 2414 64 
Q 2138 -91 1772 -91 
Q 1169 -91 856 284 
Q 544 659 544 1381 
z
M 1991 3584 
L 1991 3584 
z
" transform="scale(0.015625)"/>
       <path id="DejaVuSans-74" d="M 1172 4494 
L 1172 3500 
L 2356 3500 
L 2356 3053 
L 1172 3053 
L 1172 1153 
Q 1172 725 1289 603 
Q 1406 481 1766 481 
L 2356 481 
L 2356 0 
L 1766 0 
Q 1100 0 847 248 
Q 594 497 594 1153 
L 594 3053 
L 172 3053 
L 172 3500 
L 594 3500 
L 594 4494 
L 1172 4494 
z
" transform="scale(0.015625)"/>
       <path id="DejaVuSans-20" transform="scale(0.015625)"/>
       <path id="DejaVuSans-63" d="M 3122 3366 
L 3122 2828 
Q 2878 2963 2633 3030 
Q 2388 3097 2138 3097 
Q 1578 3097 1268 2742 
Q 959 2388 959 1747 
Q 959 1106 1268 751 
Q 1578 397 2138 397 
Q 2388 397 2633 464 
Q 2878 531 3122 666 
L 3122 134 
Q 2881 22 2623 -34 
Q 2366 -91 2075 -91 
Q 1284 -91 818 406 
Q 353 903 353 1747 
Q 353 2603 823 3093 
Q 1294 3584 2113 3584 
Q 2378 3584 2631 3529 
Q 2884 3475 3122 3366 
z
" transform="scale(0.015625)"/>
       <path id="DejaVuSans-72" d="M 2631 2963 
Q 2534 3019 2420 3045 
Q 2306 3072 2169 3072 
Q 1681 3072 1420 2755 
Q 1159 2438 1159 1844 
L 1159 0 
L 581 0 
L 581 3500 
L 1159 3500 
L 1159 2956 
Q 1341 3275 1631 3429 
Q 1922 3584 2338 3584 
Q 2397 3584 2469 3576 
Q 2541 3569 2628 3553 
L 2631 2963 
z
" transform="scale(0.015625)"/>
       <path id="DejaVuSans-65" d="M 3597 1894 
L 3597 1613 
L 953 1613 
Q 991 1019 1311 708 
Q 1631 397 2203 397 
Q 2534 397 2845 478 
Q 3156 559 3463 722 
L 3463 178 
Q 3153 47 2828 -22 
Q 2503 -91 2169 -91 
Q 1331 -91 842 396 
Q 353 884 353 1716 
Q 353 2575 817 3079 
Q 1281 3584 2069 3584 
Q 2775 3584 3186 3129 
Q 3597 2675 3597 1894 
z
M 3022 2063 
Q 3016 2534 2758 2815 
Q 2500 3097 2075 3097 
Q 1594 3097 1305 2825 
Q 1016 2553 972 2059 
L 3022 2063 
z
" transform="scale(0.015625)"/>
       <path id="DejaVuSans-Oblique-49" d="M 1081 4666 
L 1716 4666 
L 806 0 
L 172 0 
L 1081 4666 
z
" transform="scale(0.015625)"/>
       <path id="DejaVuSans-69" d="M 603 3500 
L 1178 3500 
L 1178 0 
L 603 0 
L 603 3500 
z
M 603 4863 
L 1178 4863 
L 1178 4134 
L 603 4134 
L 603 4863 
z
" transform="scale(0.015625)"/>
       <path id="DejaVuSans-41" d="M 2188 4044 
L 1331 1722 
L 3047 1722 
L 2188 4044 
z
M 1831 4666 
L 2547 4666 
L 4325 0 
L 3669 0 
L 3244 1197 
L 1141 1197 
L 716 0 
L 50 0 
L 1831 4666 
z
" transform="scale(0.015625)"/>
      </defs>
      <use xlink:href="#DejaVuSans-49" transform="translate(0 0.015625)"/>
      <use xlink:href="#DejaVuSans-6e" transform="translate(29.492188 0.015625)"/>
      <use xlink:href="#DejaVuSans-70" transform="translate(92.871094 0.015625)"/>
      <use xlink:href="#DejaVuSans-75" transform="translate(156.347656 0.015625)"/>
      <use xlink:href="#DejaVuSans-74" transform="translate(219.726562 0.015625)"/>
      <use xlink:href="#DejaVuSans-20" transform="translate(258.935547 0.015625)"/>
      <use xlink:href="#DejaVuSans-63" transform="translate(290.722656 0.015625)"/>
      <use xlink:href="#DejaVuSans-75" transform="translate(345.703125 0.015625)"/>
      <use xlink:href="#DejaVuSans-72" transform="translate(409.082031 0.015625)"/>
      <use xlink:href="#DejaVuSans-72" transform="translate(450.195312 0.015625)"/>
      <use xlink:href="#DejaVuSans-65" transform="translate(491.308594 0.015625)"/>
      <use xlink:href="#DejaVuSans-6e" transform="translate(552.832031 0.015625)"/>
      <use xlink:href="#DejaVuSans-74" transform="translate(616.210938 0.015625)"/>
      <use xlink:href="#DejaVuSans-20" transform="translate(655.419922 0.015625)"/>
      <use xlink:href="#DejaVuSans-Oblique-49" transform="translate(687.207031 0.015625)"/>
      <use xlink:href="#DejaVuSans-20" transform="translate(716.699219 0.015625)"/>
      <use xlink:href="#DejaVuSans-69" transform="translate(748.486328 0.015625)"/>
      <use xlink:href="#DejaVuSans-6e" transform="translate(776.269531 0.015625)"/>
      <use xlink:href="#DejaVuSans-20" transform="translate(839.648438 0.015625)"/>
      <use xlink:href="#DejaVuSans-6e" transform="translate(871.435547 0.015625)"/>
      <use xlink:href="#DejaVuSans-41" transform="translate(934.814453 0.015625)"/>
     </g>
    </g>
   </g>
   <g id="matplotlib.axis_2">
    <g id="ytick_1">
     <g id="line2d_6">
      <defs>
       <path id="m8923995752" d="M 0 0 
L -3.5 0 
" style="stroke: #000000; stroke-width: 0.8"/>
      </defs>
      <g>
       <use xlink:href="#m8923995752" x="57.6" y="307.584" style="stroke: #000000; stroke-width: 0.8"/>
      </g>
     </g>
     <g id="text_7">
      <!-- 0.0 -->
      <g transform="translate(34.696875 311.383219) scale(0.1 -0.1)">
       <defs>
        <path id="DejaVuSans-2e" d="M 684 794 
L 1344 794 
L 1344 0 
L 684 0 
L 684 794 
z
" transform="scale(0.015625)"/>
       </defs>
       <use xlink:href="#DejaVuSans-30"/>
       <use xlink:href="#DejaVuSans-2e" x="63.623047"/>
       <use xlink:href="#DejaVuSans-30" x="95.410156"/>
      </g>
     </g>
    </g>
    <g id="ytick_2">
     <g id="line2d_7">
      <g>
       <use xlink:href="#m8923995752" x="57.6" y="265.344" style="stroke: #000000; stroke-width: 0.8"/>
      </g>
     </g>
     <g id="text_8">
      <!-- 0.5 -->
      <g transform="translate(34.696875 269.143219) scale(0.1 -0.1)">
       <use xlink:href="#DejaVuSans-30"/>
       <use xlink:href="#DejaVuSans-2e" x="63.623047"/>
       <use xlink:href="#DejaVuSans-35" x="95.410156"/>
      </g>
     </g>
    </g>
    <g id="ytick_3">
     <g id="line2d_8">
      <g>
       <use xlink:href="#m8923995752" x="57.6" y="223.104" style="stroke: #000000; stroke-width: 0.8"/>
      </g>
     </g>
     <g id="text_9">
      <!-- 1.0 -->
      <g transform="translate(34.696875 226.903219) scale(0.1 -0.1)">
       <use xlink:href="#DejaVuSans-31"/>
       <use xlink:href="#DejaVuSans-2e" x="63.623047"/>
       <use xlink:href="#DejaVuSans-30" x="95.410156"/>
      </g>
     </g>
    </g>
    <g id="ytick_4">
     <g id="line2d_9">
      <g>
       <use xlink:href="#m8923995752" x="57.6" y="180.864" style="stroke: #000000; stroke-width: 0.8"/>
      </g>
     </g>
     <g id="text_10">
      <!-- 1.5 -->
      <g transform="translate(34.696875 184.663219) scale(0.1 -0.1)">
       <use xlink:href="#DejaVuSans-31"/>
       <use xlink:href="#DejaVuSans-2e" x="63.623047"/>
       <use xlink:href="#DejaVuSans-35" x="95.410156"/>
      </g>
     </g>
    </g>
    <g id="ytick_5">
     <g id="line2d_10">
      <g>
       <use xlink:href="#m8923995752" x="57.6" y="138.624" style="stroke: #000000; stroke-width: 0.8"/>
      </g>
     </g>
     <g id="text_11">
      <!-- 2.0 -->
      <g transform="translate(34.696875 142.423219) scale(0.1 -0.1)">
       <use xlink:href="#DejaVuSans-32"/>
       <use xlink:href="#DejaVuSans-2e" x="63.623047"/>
       <use xlink:href="#DejaVuSans-30" x="95.410156"/>
      </g>
     </g>
    </g>
    <g id="ytick_6">
     <g id="line2d_11">
      <g>
       <use xlink:href="#m8923995752" x="57.6" y="96.384" style="stroke: #000000; stroke-width: 0.8"/>
      </g>
     </g>
     <g id="text_12">
      <!-- 2.5 -->
      <g transform="translate(34.696875 100.183219) scale(0.1 -0.1)">
       <use xlink:href="#DejaVuSans-32"/>
       <use xlink:href="#DejaVuSans-2e" x="63.623047"/>
       <use xlink:href="#DejaVuSans-35" x="95.410156"/>
      </g>
     </g>
    </g>
    <g id="ytick_7">
     <g id="line2d_12">
      <g>
       <use xlink:href="#m8923995752" x="57.6" y="54.144" style="stroke: #000000; stroke-width: 0.8"/>
      </g>
     </g>
     <g id="text_13">
      <!-- 3.0 -->
      <g transform="translate(34.696875 57.943219) scale(0.1 -0.1)">
       <defs>
        <path id="DejaVuSans-33" d="M 2597 2516 
Q 3050 2419 3304 2112 
Q 3559 1806 3559 1356 
Q 3559 666 3084 287 
Q 2609 -91 1734 -91 
Q 1441 -91 1130 -33 
Q 819 25 488 141 
L 488 750 
Q 750 597 1062 519 
Q 1375 441 1716 441 
Q 2309 441 2620 675 
Q 2931 909 2931 1356 
Q 2931 1769 2642 2001 
Q 2353 2234 1838 2234 
L 1294 2234 
L 1294 2753 
L 1863 2753 
Q 2328 2753 2575 2939 
Q 2822 3125 2822 3475 
Q 2822 3834 2567 4026 
Q 2313 4219 1838 4219 
Q 1578 4219 1281 4162 
Q 984 4106 628 3988 
L 628 4550 
Q 988 4650 1302 4700 
Q 1616 4750 1894 4750 
Q 2613 4750 3031 4423 
Q 3450 4097 3450 3541 
Q 3450 3153 3228 2886 
Q 3006 2619 2597 2516 
z
" transform="scale(0.015625)"/>
       </defs>
       <use xlink:href="#DejaVuSans-33"/>
       <use xlink:href="#DejaVuSans-2e" x="63.623047"/>
       <use xlink:href="#DejaVuSans-30" x="95.410156"/>
      </g>
     </g>
    </g>
    <g id="text_14">
     <!-- Number of solutions -->
     <g transform="translate(28.617187 225.0155) rotate(-90) scale(0.1 -0.1)">
      <defs>
       <path id="DejaVuSans-4e" d="M 628 4666 
L 1478 4666 
L 3547 763 
L 3547 4666 
L 4159 4666 
L 4159 0 
L 3309 0 
L 1241 3903 
L 1241 0 
L 628 0 
L 628 4666 
z
" transform="scale(0.015625)"/>
       <path id="DejaVuSans-6d" d="M 3328 2828 
Q 3544 3216 3844 3400 
Q 4144 3584 4550 3584 
Q 5097 3584 5394 3201 
Q 5691 2819 5691 2113 
L 5691 0 
L 5113 0 
L 5113 2094 
Q 5113 2597 4934 2840 
Q 4756 3084 4391 3084 
Q 3944 3084 3684 2787 
Q 3425 2491 3425 1978 
L 3425 0 
L 2847 0 
L 2847 2094 
Q 2847 2600 2669 2842 
Q 2491 3084 2119 3084 
Q 1678 3084 1418 2786 
Q 1159 2488 1159 1978 
L 1159 0 
L 581 0 
L 581 3500 
L 1159 3500 
L 1159 2956 
Q 1356 3278 1631 3431 
Q 1906 3584 2284 3584 
Q 2666 3584 2933 3390 
Q 3200 3197 3328 2828 
z
" transform="scale(0.015625)"/>
       <path id="DejaVuSans-62" d="M 3116 1747 
Q 3116 2381 2855 2742 
Q 2594 3103 2138 3103 
Q 1681 3103 1420 2742 
Q 1159 2381 1159 1747 
Q 1159 1113 1420 752 
Q 1681 391 2138 391 
Q 2594 391 2855 752 
Q 3116 1113 3116 1747 
z
M 1159 2969 
Q 1341 3281 1617 3432 
Q 1894 3584 2278 3584 
Q 2916 3584 3314 3078 
Q 3713 2572 3713 1747 
Q 3713 922 3314 415 
Q 2916 -91 2278 -91 
Q 1894 -91 1617 61 
Q 1341 213 1159 525 
L 1159 0 
L 581 0 
L 581 4863 
L 1159 4863 
L 1159 2969 
z
" transform="scale(0.015625)"/>
       <path id="DejaVuSans-6f" d="M 1959 3097 
Q 1497 3097 1228 2736 
Q 959 2375 959 1747 
Q 959 1119 1226 758 
Q 1494 397 1959 397 
Q 2419 397 2687 759 
Q 2956 1122 2956 1747 
Q 2956 2369 2687 2733 
Q 2419 3097 1959 3097 
z
M 1959 3584 
Q 2709 3584 3137 3096 
Q 3566 2609 3566 1747 
Q 3566 888 3137 398 
Q 2709 -91 1959 -91 
Q 1206 -91 779 398 
Q 353 888 353 1747 
Q 353 2609 779 3096 
Q 1206 3584 1959 3584 
z
" transform="scale(0.015625)"/>
       <path id="DejaVuSans-66" d="M 2375 4863 
L 2375 4384 
L 1825 4384 
Q 1516 4384 1395 4259 
Q 1275 4134 1275 3809 
L 1275 3500 
L 2222 3500 
L 2222 3053 
L 1275 3053 
L 1275 0 
L 697 0 
L 697 3053 
L 147 3053 
L 147 3500 
L 697 3500 
L 697 3744 
Q 697 4328 969 4595 
Q 1241 4863 1831 4863 
L 2375 4863 
z
" transform="scale(0.015625)"/>
       <path id="DejaVuSans-73" d="M 2834 3397 
L 2834 2853 
Q 2591 2978 2328 3040 
Q 2066 3103 1784 3103 
Q 1356 3103 1142 2972 
Q 928 2841 928 2578 
Q 928 2378 1081 2264 
Q 1234 2150 1697 2047 
L 1894 2003 
Q 2506 1872 2764 1633 
Q 3022 1394 3022 966 
Q 3022 478 2636 193 
Q 2250 -91 1575 -91 
Q 1294 -91 989 -36 
Q 684 19 347 128 
L 347 722 
Q 666 556 975 473 
Q 1284 391 1588 391 
Q 1994 391 2212 530 
Q 2431 669 2431 922 
Q 2431 1156 2273 1281 
Q 2116 1406 1581 1522 
L 1381 1569 
Q 847 1681 609 1914 
Q 372 2147 372 2553 
Q 372 3047 722 3315 
Q 1072 3584 1716 3584 
Q 2034 3584 2315 3537 
Q 2597 3491 2834 3397 
z
" transform="scale(0.015625)"/>
       <path id="DejaVuSans-6c" d="M 603 4863 
L 1178 4863 
L 1178 0 
L 603 0 
L 603 4863 
z
" transform="scale(0.015625)"/>
      </defs>
      <use xlink:href="#DejaVuSans-4e"/>
      <use xlink:href="#DejaVuSans-75" x="74.804688"/>
      <use xlink:href="#DejaVuSans-6d" x="138.183594"/>
      <use xlink:href="#DejaVuSans-62" x="235.595703"/>
      <use xlink:href="#DejaVuSans-65" x="299.072266"/>
      <use xlink:href="#DejaVuSans-72" x="360.595703"/>
      <use xlink:href="#DejaVuSans-20" x="401.708984"/>
      <use xlink:href="#DejaVuSans-6f" x="433.496094"/>
      <use xlink:href="#DejaVuSans-66" x="494.677734"/>
      <use xlink:href="#DejaVuSans-20" x="529.882812"/>
      <use xlink:href="#DejaVuSans-73" x="561.669922"/>
      <use xlink:href="#DejaVuSans-6f" x="613.769531"/>
      <use xlink:href="#DejaVuSans-6c" x="674.951172"/>
      <use xlink:href="#DejaVuSans-75" x="702.734375"/>
      <use xlink:href="#DejaVuSans-74" x="766.113281"/>
      <use xlink:href="#DejaVuSans-69" x="805.322266"/>
      <use xlink:href="#DejaVuSans-6f" x="833.105469"/>
      <use xlink:href="#DejaVuSans-6e" x="894.287109"/>
      <use xlink:href="#DejaVuSans-73" x="957.666016"/>
     </g>
    </g>
   </g>
   <g id="patch_103">
    <path d="M 57.6 307.584 
L 57.6 41.472 
" style="fill: none; stroke: #000000; stroke-width: 0.8; stroke-linejoin: miter; stroke-linecap: square"/>
   </g>
   <g id="patch_104">
    <path d="M 414.72 307.584 
L 414.72 41.472 
" style="fill: none; stroke: #000000; stroke-width: 0.8; stroke-linejoin: miter; stroke-linecap: square"/>
   </g>
   <g id="patch_105">
    <path d="M 57.6 307.584 
L 414.72 307.584 
" style="fill: none; stroke: #000000; stroke-width: 0.8; stroke-linejoin: miter; stroke-linecap: square"/>
   </g>
   <g id="patch_106">
    <path d="M 57.6 41.472 
L 414.72 41.472 
" style="fill: none; stroke: #000000; stroke-width: 0.8; stroke-linejoin: miter; stroke-linecap: square"/>
   </g>
  </g>
 </g>
 <defs>
  <clipPath id="p19562b04c0">
   <rect x="57.6" y="41.472" width="357.12" height="266.112"/>
  </clipPath>
 </defs>
</svg>
