<?xml version="1.0" encoding="utf-8" standalone="no"?>
<!DOCTYPE svg PUBLIC "-//W3C//DTD SVG 1.1//EN"
  "http://www.w3.org/Graphics/SVG/1.1/DTD/svg11.dtd">
<svg xmlns:xlink="http://www.w3.org/1999/xlink" width="460.8pt" height="345.6pt" viewBox="0 0 460.8 345.6" xmlns="http://www.w3.org/2000/svg" version="1.1">
 <metadata>
  <rdf:RDF xmlns:dc="http://purl.org/dc/elements/1.1/" xmlns:cc="http://creativecommons.org/ns#" xmlns:rdf="http://www.w3.org/1999/02/22-rdf-syntax-ns#">
   <cc:Work>
    <dc:type rdf:resource="http://purl.org/dc/dcmitype/StillImage"/>
    <dc:date>2024-04-26T11:17:11.361158</dc:date>
    <dc:format>image/svg+xml</dc:format>
    <dc:creator>
     <cc:Agent>
      <dc:title>Matplotlib v3.8.3, https://matplotlib.org/</dc:title>
     </cc:Agent>
    </dc:creator>
   </cc:Work>
  </rdf:RDF>
 </metadata>
 <defs>
  <style type="text/css">*{stroke-linejoin: round; stroke-linecap: butt}</style>
 </defs>
 <g id="figure_1">
  <g id="patch_1">
   <path d="M 0 345.6 
L 460.8 345.6 
L 460.8 0 
L 0 0 
z
" style="fill: #ffffff"/>
  </g>
  <g id="axes_1">
   <g id="patch_2">
    <path d="M 57.6 307.584 
L 414.72 307.584 
L 414.72 41.472 
L 57.6 41.472 
z
" style="fill: #ffffff"/>
   </g>
   <g id="matplotlib.axis_1">
    <g id="xtick_1">
     <g id="line2d_1">
      <defs>
       <path id="m4297de7899" d="M 0 0 
L 0 3.5 
" style="stroke: #000000; stroke-width: 0.8"/>
      </defs>
      <g>
       <use xlink:href="#m4297de7899" x="73.832727" y="307.584" style="stroke: #000000; stroke-width: 0.8"/>
      </g>
     </g>
     <g id="text_1">
      <!-- 0 -->
      <g transform="translate(70.651477 322.182437) scale(0.1 -0.1)">
       <defs>
        <path id="DejaVuSans-30" d="M 2034 4250 
Q 1547 4250 1301 3770 
Q 1056 3291 1056 2328 
Q 1056 1369 1301 889 
Q 1547 409 2034 409 
Q 2525 409 2770 889 
Q 3016 1369 3016 2328 
Q 3016 3291 2770 3770 
Q 2525 4250 2034 4250 
z
M 2034 4750 
Q 2819 4750 3233 4129 
Q 3647 3509 3647 2328 
Q 3647 1150 3233 529 
Q 2819 -91 2034 -91 
Q 1250 -91 836 529 
Q 422 1150 422 2328 
Q 422 3509 836 4129 
Q 1250 4750 2034 4750 
z
" transform="scale(0.015625)"/>
       </defs>
       <use xlink:href="#DejaVuSans-30"/>
      </g>
     </g>
    </g>
    <g id="xtick_2">
     <g id="line2d_2">
      <g>
       <use xlink:href="#m4297de7899" x="138.763636" y="307.584" style="stroke: #000000; stroke-width: 0.8"/>
      </g>
     </g>
     <g id="text_2">
      <!-- 20 -->
      <g transform="translate(132.401136 322.182437) scale(0.1 -0.1)">
       <defs>
        <path id="DejaVuSans-32" d="M 1228 531 
L 3431 531 
L 3431 0 
L 469 0 
L 469 531 
Q 828 903 1448 1529 
Q 2069 2156 2228 2338 
Q 2531 2678 2651 2914 
Q 2772 3150 2772 3378 
Q 2772 3750 2511 3984 
Q 2250 4219 1831 4219 
Q 1534 4219 1204 4116 
Q 875 4013 500 3803 
L 500 4441 
Q 881 4594 1212 4672 
Q 1544 4750 1819 4750 
Q 2544 4750 2975 4387 
Q 3406 4025 3406 3419 
Q 3406 3131 3298 2873 
Q 3191 2616 2906 2266 
Q 2828 2175 2409 1742 
Q 1991 1309 1228 531 
z
" transform="scale(0.015625)"/>
       </defs>
       <use xlink:href="#DejaVuSans-32"/>
       <use xlink:href="#DejaVuSans-30" x="63.623047"/>
      </g>
     </g>
    </g>
    <g id="xtick_3">
     <g id="line2d_3">
      <g>
       <use xlink:href="#m4297de7899" x="203.694545" y="307.584" style="stroke: #000000; stroke-width: 0.8"/>
      </g>
     </g>
     <g id="text_3">
      <!-- 40 -->
      <g transform="translate(197.332045 322.182437) scale(0.1 -0.1)">
       <defs>
        <path id="DejaVuSans-34" d="M 2419 4116 
L 825 1625 
L 2419 1625 
L 2419 4116 
z
M 2253 4666 
L 3047 4666 
L 3047 1625 
L 3713 1625 
L 3713 1100 
L 3047 1100 
L 3047 0 
L 2419 0 
L 2419 1100 
L 313 1100 
L 313 1709 
L 2253 4666 
z
" transform="scale(0.015625)"/>
       </defs>
       <use xlink:href="#DejaVuSans-34"/>
       <use xlink:href="#DejaVuSans-30" x="63.623047"/>
      </g>
     </g>
    </g>
    <g id="xtick_4">
     <g id="line2d_4">
      <g>
       <use xlink:href="#m4297de7899" x="268.625455" y="307.584" style="stroke: #000000; stroke-width: 0.8"/>
      </g>
     </g>
     <g id="text_4">
      <!-- 60 -->
      <g transform="translate(262.262955 322.182437) scale(0.1 -0.1)">
       <defs>
        <path id="DejaVuSans-36" d="M 2113 2584 
Q 1688 2584 1439 2293 
Q 1191 2003 1191 1497 
Q 1191 994 1439 701 
Q 1688 409 2113 409 
Q 2538 409 2786 701 
Q 3034 994 3034 1497 
Q 3034 2003 2786 2293 
Q 2538 2584 2113 2584 
z
M 3366 4563 
L 3366 3988 
Q 3128 4100 2886 4159 
Q 2644 4219 2406 4219 
Q 1781 4219 1451 3797 
Q 1122 3375 1075 2522 
Q 1259 2794 1537 2939 
Q 1816 3084 2150 3084 
Q 2853 3084 3261 2657 
Q 3669 2231 3669 1497 
Q 3669 778 3244 343 
Q 2819 -91 2113 -91 
Q 1303 -91 875 529 
Q 447 1150 447 2328 
Q 447 3434 972 4092 
Q 1497 4750 2381 4750 
Q 2619 4750 2861 4703 
Q 3103 4656 3366 4563 
z
" transform="scale(0.015625)"/>
       </defs>
       <use xlink:href="#DejaVuSans-36"/>
       <use xlink:href="#DejaVuSans-30" x="63.623047"/>
      </g>
     </g>
    </g>
    <g id="xtick_5">
     <g id="line2d_5">
      <g>
       <use xlink:href="#m4297de7899" x="333.556364" y="307.584" style="stroke: #000000; stroke-width: 0.8"/>
      </g>
     </g>
     <g id="text_5">
      <!-- 80 -->
      <g transform="translate(327.193864 322.182437) scale(0.1 -0.1)">
       <defs>
        <path id="DejaVuSans-38" d="M 2034 2216 
Q 1584 2216 1326 1975 
Q 1069 1734 1069 1313 
Q 1069 891 1326 650 
Q 1584 409 2034 409 
Q 2484 409 2743 651 
Q 3003 894 3003 1313 
Q 3003 1734 2745 1975 
Q 2488 2216 2034 2216 
z
M 1403 2484 
Q 997 2584 770 2862 
Q 544 3141 544 3541 
Q 544 4100 942 4425 
Q 1341 4750 2034 4750 
Q 2731 4750 3128 4425 
Q 3525 4100 3525 3541 
Q 3525 3141 3298 2862 
Q 3072 2584 2669 2484 
Q 3125 2378 3379 2068 
Q 3634 1759 3634 1313 
Q 3634 634 3220 271 
Q 2806 -91 2034 -91 
Q 1263 -91 848 271 
Q 434 634 434 1313 
Q 434 1759 690 2068 
Q 947 2378 1403 2484 
z
M 1172 3481 
Q 1172 3119 1398 2916 
Q 1625 2713 2034 2713 
Q 2441 2713 2670 2916 
Q 2900 3119 2900 3481 
Q 2900 3844 2670 4047 
Q 2441 4250 2034 4250 
Q 1625 4250 1398 4047 
Q 1172 3844 1172 3481 
z
" transform="scale(0.015625)"/>
       </defs>
       <use xlink:href="#DejaVuSans-38"/>
       <use xlink:href="#DejaVuSans-30" x="63.623047"/>
      </g>
     </g>
    </g>
    <g id="xtick_6">
     <g id="line2d_6">
      <g>
       <use xlink:href="#m4297de7899" x="398.487273" y="307.584" style="stroke: #000000; stroke-width: 0.8"/>
      </g>
     </g>
     <g id="text_6">
      <!-- 100 -->
      <g transform="translate(388.943523 322.182437) scale(0.1 -0.1)">
       <defs>
        <path id="DejaVuSans-31" d="M 794 531 
L 1825 531 
L 1825 4091 
L 703 3866 
L 703 4441 
L 1819 4666 
L 2450 4666 
L 2450 531 
L 3481 531 
L 3481 0 
L 794 0 
L 794 531 
z
" transform="scale(0.015625)"/>
       </defs>
       <use xlink:href="#DejaVuSans-31"/>
       <use xlink:href="#DejaVuSans-30" x="63.623047"/>
       <use xlink:href="#DejaVuSans-30" x="127.246094"/>
      </g>
     </g>
    </g>
    <g id="text_7">
     <!-- Time $t$ in seconds -->
     <g transform="translate(192.01 335.860562) scale(0.1 -0.1)">
      <defs>
       <path id="DejaVuSans-54" d="M -19 4666 
L 3928 4666 
L 3928 4134 
L 2272 4134 
L 2272 0 
L 1638 0 
L 1638 4134 
L -19 4134 
L -19 4666 
z
" transform="scale(0.015625)"/>
       <path id="DejaVuSans-69" d="M 603 3500 
L 1178 3500 
L 1178 0 
L 603 0 
L 603 3500 
z
M 603 4863 
L 1178 4863 
L 1178 4134 
L 603 4134 
L 603 4863 
z
" transform="scale(0.015625)"/>
       <path id="DejaVuSans-6d" d="M 3328 2828 
Q 3544 3216 3844 3400 
Q 4144 3584 4550 3584 
Q 5097 3584 5394 3201 
Q 5691 2819 5691 2113 
L 5691 0 
L 5113 0 
L 5113 2094 
Q 5113 2597 4934 2840 
Q 4756 3084 4391 3084 
Q 3944 3084 3684 2787 
Q 3425 2491 3425 1978 
L 3425 0 
L 2847 0 
L 2847 2094 
Q 2847 2600 2669 2842 
Q 2491 3084 2119 3084 
Q 1678 3084 1418 2786 
Q 1159 2488 1159 1978 
L 1159 0 
L 581 0 
L 581 3500 
L 1159 3500 
L 1159 2956 
Q 1356 3278 1631 3431 
Q 1906 3584 2284 3584 
Q 2666 3584 2933 3390 
Q 3200 3197 3328 2828 
z
" transform="scale(0.015625)"/>
       <path id="DejaVuSans-65" d="M 3597 1894 
L 3597 1613 
L 953 1613 
Q 991 1019 1311 708 
Q 1631 397 2203 397 
Q 2534 397 2845 478 
Q 3156 559 3463 722 
L 3463 178 
Q 3153 47 2828 -22 
Q 2503 -91 2169 -91 
Q 1331 -91 842 396 
Q 353 884 353 1716 
Q 353 2575 817 3079 
Q 1281 3584 2069 3584 
Q 2775 3584 3186 3129 
Q 3597 2675 3597 1894 
z
M 3022 2063 
Q 3016 2534 2758 2815 
Q 2500 3097 2075 3097 
Q 1594 3097 1305 2825 
Q 1016 2553 972 2059 
L 3022 2063 
z
" transform="scale(0.015625)"/>
       <path id="DejaVuSans-20" transform="scale(0.015625)"/>
       <path id="DejaVuSans-Oblique-74" d="M 2706 3500 
L 2619 3053 
L 1472 3053 
L 1100 1153 
Q 1081 1047 1072 975 
Q 1063 903 1063 863 
Q 1063 663 1183 572 
Q 1303 481 1569 481 
L 2150 481 
L 2053 0 
L 1503 0 
Q 991 0 739 200 
Q 488 400 488 806 
Q 488 878 497 964 
Q 506 1050 525 1153 
L 897 3053 
L 409 3053 
L 500 3500 
L 978 3500 
L 1172 4494 
L 1747 4494 
L 1556 3500 
L 2706 3500 
z
" transform="scale(0.015625)"/>
       <path id="DejaVuSans-6e" d="M 3513 2113 
L 3513 0 
L 2938 0 
L 2938 2094 
Q 2938 2591 2744 2837 
Q 2550 3084 2163 3084 
Q 1697 3084 1428 2787 
Q 1159 2491 1159 1978 
L 1159 0 
L 581 0 
L 581 3500 
L 1159 3500 
L 1159 2956 
Q 1366 3272 1645 3428 
Q 1925 3584 2291 3584 
Q 2894 3584 3203 3211 
Q 3513 2838 3513 2113 
z
" transform="scale(0.015625)"/>
       <path id="DejaVuSans-73" d="M 2834 3397 
L 2834 2853 
Q 2591 2978 2328 3040 
Q 2066 3103 1784 3103 
Q 1356 3103 1142 2972 
Q 928 2841 928 2578 
Q 928 2378 1081 2264 
Q 1234 2150 1697 2047 
L 1894 2003 
Q 2506 1872 2764 1633 
Q 3022 1394 3022 966 
Q 3022 478 2636 193 
Q 2250 -91 1575 -91 
Q 1294 -91 989 -36 
Q 684 19 347 128 
L 347 722 
Q 666 556 975 473 
Q 1284 391 1588 391 
Q 1994 391 2212 530 
Q 2431 669 2431 922 
Q 2431 1156 2273 1281 
Q 2116 1406 1581 1522 
L 1381 1569 
Q 847 1681 609 1914 
Q 372 2147 372 2553 
Q 372 3047 722 3315 
Q 1072 3584 1716 3584 
Q 2034 3584 2315 3537 
Q 2597 3491 2834 3397 
z
" transform="scale(0.015625)"/>
       <path id="DejaVuSans-63" d="M 3122 3366 
L 3122 2828 
Q 2878 2963 2633 3030 
Q 2388 3097 2138 3097 
Q 1578 3097 1268 2742 
Q 959 2388 959 1747 
Q 959 1106 1268 751 
Q 1578 397 2138 397 
Q 2388 397 2633 464 
Q 2878 531 3122 666 
L 3122 134 
Q 2881 22 2623 -34 
Q 2366 -91 2075 -91 
Q 1284 -91 818 406 
Q 353 903 353 1747 
Q 353 2603 823 3093 
Q 1294 3584 2113 3584 
Q 2378 3584 2631 3529 
Q 2884 3475 3122 3366 
z
" transform="scale(0.015625)"/>
       <path id="DejaVuSans-6f" d="M 1959 3097 
Q 1497 3097 1228 2736 
Q 959 2375 959 1747 
Q 959 1119 1226 758 
Q 1494 397 1959 397 
Q 2419 397 2687 759 
Q 2956 1122 2956 1747 
Q 2956 2369 2687 2733 
Q 2419 3097 1959 3097 
z
M 1959 3584 
Q 2709 3584 3137 3096 
Q 3566 2609 3566 1747 
Q 3566 888 3137 398 
Q 2709 -91 1959 -91 
Q 1206 -91 779 398 
Q 353 888 353 1747 
Q 353 2609 779 3096 
Q 1206 3584 1959 3584 
z
" transform="scale(0.015625)"/>
       <path id="DejaVuSans-64" d="M 2906 2969 
L 2906 4863 
L 3481 4863 
L 3481 0 
L 2906 0 
L 2906 525 
Q 2725 213 2448 61 
Q 2172 -91 1784 -91 
Q 1150 -91 751 415 
Q 353 922 353 1747 
Q 353 2572 751 3078 
Q 1150 3584 1784 3584 
Q 2172 3584 2448 3432 
Q 2725 3281 2906 2969 
z
M 947 1747 
Q 947 1113 1208 752 
Q 1469 391 1925 391 
Q 2381 391 2643 752 
Q 2906 1113 2906 1747 
Q 2906 2381 2643 2742 
Q 2381 3103 1925 3103 
Q 1469 3103 1208 2742 
Q 947 2381 947 1747 
z
" transform="scale(0.015625)"/>
      </defs>
      <use xlink:href="#DejaVuSans-54" transform="translate(0 0.015625)"/>
      <use xlink:href="#DejaVuSans-69" transform="translate(61.083984 0.015625)"/>
      <use xlink:href="#DejaVuSans-6d" transform="translate(88.867188 0.015625)"/>
      <use xlink:href="#DejaVuSans-65" transform="translate(186.279297 0.015625)"/>
      <use xlink:href="#DejaVuSans-20" transform="translate(247.802734 0.015625)"/>
      <use xlink:href="#DejaVuSans-Oblique-74" transform="translate(279.589844 0.015625)"/>
      <use xlink:href="#DejaVuSans-20" transform="translate(318.798828 0.015625)"/>
      <use xlink:href="#DejaVuSans-69" transform="translate(350.585938 0.015625)"/>
      <use xlink:href="#DejaVuSans-6e" transform="translate(378.369141 0.015625)"/>
      <use xlink:href="#DejaVuSans-20" transform="translate(441.748047 0.015625)"/>
      <use xlink:href="#DejaVuSans-73" transform="translate(473.535156 0.015625)"/>
      <use xlink:href="#DejaVuSans-65" transform="translate(525.634766 0.015625)"/>
      <use xlink:href="#DejaVuSans-63" transform="translate(587.158203 0.015625)"/>
      <use xlink:href="#DejaVuSans-6f" transform="translate(642.138672 0.015625)"/>
      <use xlink:href="#DejaVuSans-6e" transform="translate(703.320312 0.015625)"/>
      <use xlink:href="#DejaVuSans-64" transform="translate(766.699219 0.015625)"/>
      <use xlink:href="#DejaVuSans-73" transform="translate(830.175781 0.015625)"/>
     </g>
    </g>
   </g>
   <g id="matplotlib.axis_2">
    <g id="ytick_1">
     <g id="line2d_7">
      <defs>
       <path id="m39e0144418" d="M 0 0 
L -3.5 0 
" style="stroke: #000000; stroke-width: 0.8"/>
      </defs>
      <g>
       <use xlink:href="#m39e0144418" x="57.6" y="306.304326" style="stroke: #000000; stroke-width: 0.8"/>
      </g>
     </g>
     <g id="text_8">
      <!-- −150 -->
      <g transform="translate(23.132812 310.103544) scale(0.1 -0.1)">
       <defs>
        <path id="DejaVuSans-2212" d="M 678 2272 
L 4684 2272 
L 4684 1741 
L 678 1741 
L 678 2272 
z
" transform="scale(0.015625)"/>
        <path id="DejaVuSans-35" d="M 691 4666 
L 3169 4666 
L 3169 4134 
L 1269 4134 
L 1269 2991 
Q 1406 3038 1543 3061 
Q 1681 3084 1819 3084 
Q 2600 3084 3056 2656 
Q 3513 2228 3513 1497 
Q 3513 744 3044 326 
Q 2575 -91 1722 -91 
Q 1428 -91 1123 -41 
Q 819 9 494 109 
L 494 744 
Q 775 591 1075 516 
Q 1375 441 1709 441 
Q 2250 441 2565 725 
Q 2881 1009 2881 1497 
Q 2881 1984 2565 2268 
Q 2250 2553 1709 2553 
Q 1456 2553 1204 2497 
Q 953 2441 691 2322 
L 691 4666 
z
" transform="scale(0.015625)"/>
       </defs>
       <use xlink:href="#DejaVuSans-2212"/>
       <use xlink:href="#DejaVuSans-31" x="83.789062"/>
       <use xlink:href="#DejaVuSans-35" x="147.412109"/>
       <use xlink:href="#DejaVuSans-30" x="211.035156"/>
      </g>
     </g>
    </g>
    <g id="ytick_2">
     <g id="line2d_8">
      <g>
       <use xlink:href="#m39e0144418" x="57.6" y="262.378893" style="stroke: #000000; stroke-width: 0.8"/>
      </g>
     </g>
     <g id="text_9">
      <!-- −100 -->
      <g transform="translate(23.132812 266.178112) scale(0.1 -0.1)">
       <use xlink:href="#DejaVuSans-2212"/>
       <use xlink:href="#DejaVuSans-31" x="83.789062"/>
       <use xlink:href="#DejaVuSans-30" x="147.412109"/>
       <use xlink:href="#DejaVuSans-30" x="211.035156"/>
      </g>
     </g>
    </g>
    <g id="ytick_3">
     <g id="line2d_9">
      <g>
       <use xlink:href="#m39e0144418" x="57.6" y="218.45346" style="stroke: #000000; stroke-width: 0.8"/>
      </g>
     </g>
     <g id="text_10">
      <!-- −50 -->
      <g transform="translate(29.495313 222.252679) scale(0.1 -0.1)">
       <use xlink:href="#DejaVuSans-2212"/>
       <use xlink:href="#DejaVuSans-35" x="83.789062"/>
       <use xlink:href="#DejaVuSans-30" x="147.412109"/>
      </g>
     </g>
    </g>
    <g id="ytick_4">
     <g id="line2d_10">
      <g>
       <use xlink:href="#m39e0144418" x="57.6" y="174.528028" style="stroke: #000000; stroke-width: 0.8"/>
      </g>
     </g>
     <g id="text_11">
      <!-- 0 -->
      <g transform="translate(44.2375 178.327247) scale(0.1 -0.1)">
       <use xlink:href="#DejaVuSans-30"/>
      </g>
     </g>
    </g>
    <g id="ytick_5">
     <g id="line2d_11">
      <g>
       <use xlink:href="#m39e0144418" x="57.6" y="130.602595" style="stroke: #000000; stroke-width: 0.8"/>
      </g>
     </g>
     <g id="text_12">
      <!-- 50 -->
      <g transform="translate(37.875 134.401814) scale(0.1 -0.1)">
       <use xlink:href="#DejaVuSans-35"/>
       <use xlink:href="#DejaVuSans-30" x="63.623047"/>
      </g>
     </g>
    </g>
    <g id="ytick_6">
     <g id="line2d_12">
      <g>
       <use xlink:href="#m39e0144418" x="57.6" y="86.677163" style="stroke: #000000; stroke-width: 0.8"/>
      </g>
     </g>
     <g id="text_13">
      <!-- 100 -->
      <g transform="translate(31.5125 90.476382) scale(0.1 -0.1)">
       <use xlink:href="#DejaVuSans-31"/>
       <use xlink:href="#DejaVuSans-30" x="63.623047"/>
       <use xlink:href="#DejaVuSans-30" x="127.246094"/>
      </g>
     </g>
    </g>
    <g id="ytick_7">
     <g id="line2d_13">
      <g>
       <use xlink:href="#m39e0144418" x="57.6" y="42.75173" style="stroke: #000000; stroke-width: 0.8"/>
      </g>
     </g>
     <g id="text_14">
      <!-- 150 -->
      <g transform="translate(31.5125 46.550949) scale(0.1 -0.1)">
       <use xlink:href="#DejaVuSans-31"/>
       <use xlink:href="#DejaVuSans-35" x="63.623047"/>
       <use xlink:href="#DejaVuSans-30" x="127.246094"/>
      </g>
     </g>
    </g>
    <g id="text_15">
     <!-- Dynamics $x_i(t)$ -->
     <g transform="translate(17.032812 210.728) rotate(-90) scale(0.1 -0.1)">
      <defs>
       <path id="DejaVuSans-44" d="M 1259 4147 
L 1259 519 
L 2022 519 
Q 2988 519 3436 956 
Q 3884 1394 3884 2338 
Q 3884 3275 3436 3711 
Q 2988 4147 2022 4147 
L 1259 4147 
z
M 628 4666 
L 1925 4666 
Q 3281 4666 3915 4102 
Q 4550 3538 4550 2338 
Q 4550 1131 3912 565 
Q 3275 0 1925 0 
L 628 0 
L 628 4666 
z
" transform="scale(0.015625)"/>
       <path id="DejaVuSans-79" d="M 2059 -325 
Q 1816 -950 1584 -1140 
Q 1353 -1331 966 -1331 
L 506 -1331 
L 506 -850 
L 844 -850 
Q 1081 -850 1212 -737 
Q 1344 -625 1503 -206 
L 1606 56 
L 191 3500 
L 800 3500 
L 1894 763 
L 2988 3500 
L 3597 3500 
L 2059 -325 
z
" transform="scale(0.015625)"/>
       <path id="DejaVuSans-61" d="M 2194 1759 
Q 1497 1759 1228 1600 
Q 959 1441 959 1056 
Q 959 750 1161 570 
Q 1363 391 1709 391 
Q 2188 391 2477 730 
Q 2766 1069 2766 1631 
L 2766 1759 
L 2194 1759 
z
M 3341 1997 
L 3341 0 
L 2766 0 
L 2766 531 
Q 2569 213 2275 61 
Q 1981 -91 1556 -91 
Q 1019 -91 701 211 
Q 384 513 384 1019 
Q 384 1609 779 1909 
Q 1175 2209 1959 2209 
L 2766 2209 
L 2766 2266 
Q 2766 2663 2505 2880 
Q 2244 3097 1772 3097 
Q 1472 3097 1187 3025 
Q 903 2953 641 2809 
L 641 3341 
Q 956 3463 1253 3523 
Q 1550 3584 1831 3584 
Q 2591 3584 2966 3190 
Q 3341 2797 3341 1997 
z
" transform="scale(0.015625)"/>
       <path id="DejaVuSans-Oblique-78" d="M 3841 3500 
L 2234 1784 
L 3219 0 
L 2559 0 
L 1819 1388 
L 531 0 
L -166 0 
L 1556 1844 
L 641 3500 
L 1300 3500 
L 1972 2234 
L 3144 3500 
L 3841 3500 
z
" transform="scale(0.015625)"/>
       <path id="DejaVuSans-Oblique-69" d="M 1172 4863 
L 1747 4863 
L 1606 4134 
L 1031 4134 
L 1172 4863 
z
M 909 3500 
L 1484 3500 
L 800 0 
L 225 0 
L 909 3500 
z
" transform="scale(0.015625)"/>
       <path id="DejaVuSans-28" d="M 1984 4856 
Q 1566 4138 1362 3434 
Q 1159 2731 1159 2009 
Q 1159 1288 1364 580 
Q 1569 -128 1984 -844 
L 1484 -844 
Q 1016 -109 783 600 
Q 550 1309 550 2009 
Q 550 2706 781 3412 
Q 1013 4119 1484 4856 
L 1984 4856 
z
" transform="scale(0.015625)"/>
       <path id="DejaVuSans-29" d="M 513 4856 
L 1013 4856 
Q 1481 4119 1714 3412 
Q 1947 2706 1947 2009 
Q 1947 1309 1714 600 
Q 1481 -109 1013 -844 
L 513 -844 
Q 928 -128 1133 580 
Q 1338 1288 1338 2009 
Q 1338 2731 1133 3434 
Q 928 4138 513 4856 
z
" transform="scale(0.015625)"/>
      </defs>
      <use xlink:href="#DejaVuSans-44" transform="translate(0 0.015625)"/>
      <use xlink:href="#DejaVuSans-79" transform="translate(77.001953 0.015625)"/>
      <use xlink:href="#DejaVuSans-6e" transform="translate(136.181641 0.015625)"/>
      <use xlink:href="#DejaVuSans-61" transform="translate(199.560547 0.015625)"/>
      <use xlink:href="#DejaVuSans-6d" transform="translate(260.839844 0.015625)"/>
      <use xlink:href="#DejaVuSans-69" transform="translate(358.251953 0.015625)"/>
      <use xlink:href="#DejaVuSans-63" transform="translate(386.035156 0.015625)"/>
      <use xlink:href="#DejaVuSans-73" transform="translate(441.015625 0.015625)"/>
      <use xlink:href="#DejaVuSans-20" transform="translate(493.115234 0.015625)"/>
      <use xlink:href="#DejaVuSans-Oblique-78" transform="translate(524.902344 0.015625)"/>
      <use xlink:href="#DejaVuSans-Oblique-69" transform="translate(584.082031 -16.390625) scale(0.7)"/>
      <use xlink:href="#DejaVuSans-28" transform="translate(606.264648 0.015625)"/>
      <use xlink:href="#DejaVuSans-Oblique-74" transform="translate(645.27832 0.015625)"/>
      <use xlink:href="#DejaVuSans-29" transform="translate(684.487305 0.015625)"/>
     </g>
    </g>
   </g>
   <g id="line2d_14">
    <path d="M 73.832727 173.286055 
L 74.157707 172.784109 
L 74.482686 171.837796 
L 74.807666 170.030085 
L 75.132645 165.339787 
L 76.432563 128.01602 
L 77.407502 108.068935 
L 78.382441 93.52842 
L 79.357379 82.930118 
L 80.332318 75.206657 
L 81.307256 69.580008 
L 82.282195 65.483179 
L 83.257133 62.503293 
L 84.232072 60.340296 
L 85.207011 58.777066 
L 86.181949 57.656922 
L 87.156888 56.862973 
L 88.456806 56.151699 
L 89.756724 55.694327 
L 91.381622 55.339969 
L 93.656478 55.074585 
L 97.231253 54.908159 
L 104.705782 54.839023 
L 161.577199 54.832334 
L 398.487273 54.832334 
L 398.487273 54.832334 
" clip-path="url(#pf35a4a335f)" style="fill: none; stroke: #1f77b4; stroke-width: 1.5; stroke-linecap: square"/>
   </g>
   <g id="line2d_15">
    <path d="M 73.832727 171.460619 
L 74.157707 171.385787 
L 74.482686 171.080841 
L 74.807666 170.414199 
L 75.132645 168.153334 
L 76.107584 154.89675 
L 77.082523 145.149771 
L 78.057461 138.039248 
L 79.0324 132.845206 
L 80.007338 129.04144 
L 80.982277 126.243665 
L 81.957215 124.17071 
L 82.932154 122.615035 
L 83.907093 121.419848 
L 85.207011 120.174865 
L 87.481867 118.386303 
L 88.781785 117.575607 
L 90.081704 116.995187 
L 91.706601 116.525855 
L 93.656478 116.2029 
L 96.581294 115.975625 
L 101.455987 115.860006 
L 116.405045 115.829731 
L 398.487273 115.829481 
L 398.487273 115.829481 
" clip-path="url(#pf35a4a335f)" style="fill: none; stroke: #ff7f0e; stroke-width: 1.5; stroke-linecap: square"/>
   </g>
   <g id="line2d_16">
    <path d="M 73.832727 170.519511 
L 74.157707 171.495666 
L 74.482686 172.843155 
L 74.807666 174.97771 
L 75.132645 179.760388 
L 76.432563 216.440062 
L 77.407502 236.077927 
L 78.382441 250.391465 
L 79.357379 260.821316 
L 80.332318 268.417319 
L 81.307256 273.944562 
L 82.282195 277.960271 
L 83.257133 280.869412 
L 84.232072 282.964653 
L 85.207011 284.454937 
L 86.181949 285.488214 
L 87.156888 286.17964 
L 88.456806 286.755878 
L 90.081704 287.174386 
L 92.35656 287.479108 
L 95.606355 287.658096 
L 102.105946 287.741185 
L 136.878755 287.752484 
L 398.487273 287.752484 
L 398.487273 287.752484 
" clip-path="url(#pf35a4a335f)" style="fill: none; stroke: #2ca02c; stroke-width: 1.5; stroke-linecap: square"/>
   </g>
   <g id="line2d_17">
    <path d="M 73.832727 165.755204 
L 74.157707 166.029906 
L 74.482686 165.793413 
L 74.807666 164.637309 
L 75.132645 160.623638 
L 76.432563 125.759574 
L 77.407502 107.067734 
L 78.382441 93.443128 
L 79.357379 83.514131 
L 80.332318 76.281097 
L 81.307256 71.015462 
L 82.282195 67.186466 
L 83.257133 64.408074 
L 84.232072 62.400673 
L 85.207011 60.963541 
L 86.181949 59.953445 
L 87.156888 59.260807 
L 88.456806 58.664876 
L 90.081704 58.2217 
L 92.031581 57.92849 
L 94.956396 57.726859 
L 100.481048 57.621474 
L 120.629779 57.600632 
L 398.487273 57.600603 
L 398.487273 57.600603 
" clip-path="url(#pf35a4a335f)" style="fill: none; stroke: #d62728; stroke-width: 1.5; stroke-linecap: square"/>
   </g>
   <g id="line2d_18">
    <path d="M 73.832727 170.258271 
L 74.482686 172.455052 
L 74.807666 174.446095 
L 75.132645 178.796672 
L 76.432563 212.388405 
L 77.407502 230.424227 
L 78.382441 243.56854 
L 79.357379 253.143463 
L 80.332318 260.112225 
L 81.307256 265.176637 
L 82.282195 268.847512 
L 83.257133 271.495302 
L 84.232072 273.386121 
L 85.207011 274.707156 
L 86.181949 275.588122 
L 87.156888 276.134854 
L 88.456806 276.542724 
L 90.406683 276.84915 
L 93.331499 277.04478 
L 98.856151 277.143337 
L 120.629779 277.162168 
L 398.487273 277.162182 
L 398.487273 277.162182 
" clip-path="url(#pf35a4a335f)" style="fill: none; stroke: #9467bd; stroke-width: 1.5; stroke-linecap: square"/>
   </g>
   <g id="line2d_19">
    <path d="M 73.832727 166.601863 
L 74.482686 169.742379 
L 74.807666 172.255875 
L 75.132645 177.500972 
L 76.432563 216.221613 
L 77.407502 236.906245 
L 78.382441 251.983671 
L 79.357379 262.971918 
L 80.332318 270.977368 
L 81.307256 276.806409 
L 82.282195 281.046543 
L 83.257133 284.125214 
L 84.232072 286.352299 
L 85.207011 287.950714 
L 86.181949 289.080008 
L 87.156888 289.86143 
L 88.456806 290.54143 
L 90.081704 291.051255 
L 92.031581 291.389763 
L 94.956396 291.622958 
L 99.831089 291.739308 
L 114.780147 291.769 
L 398.487273 291.76923 
L 398.487273 291.76923 
" clip-path="url(#pf35a4a335f)" style="fill: none; stroke: #8c564b; stroke-width: 1.5; stroke-linecap: square"/>
   </g>
   <g id="line2d_20">
    <path d="M 73.832727 170.39657 
L 74.482686 172.397731 
L 74.807666 173.950502 
L 75.132645 177.47817 
L 76.107584 196.702807 
L 77.082523 210.977927 
L 78.057461 221.388883 
L 79.0324 228.987715 
L 80.007338 234.542549 
L 80.982277 238.61395 
L 81.957215 241.61148 
L 82.932154 243.835974 
L 83.907093 245.511594 
L 84.882031 246.810711 
L 86.181949 248.189879 
L 87.806847 249.585327 
L 89.106765 250.412124 
L 90.406683 250.984874 
L 92.031581 251.442684 
L 93.981458 251.756088 
L 96.906274 251.97598 
L 102.105946 252.090472 
L 119.004881 252.116803 
L 398.487273 252.116918 
L 398.487273 252.116918 
" clip-path="url(#pf35a4a335f)" style="fill: none; stroke: #e377c2; stroke-width: 1.5; stroke-linecap: square"/>
   </g>
   <g id="line2d_21">
    <path d="M 73.832727 174.087389 
L 74.157707 173.548435 
L 74.482686 172.590094 
L 74.807666 170.799248 
L 75.132645 166.29385 
L 76.432563 130.302959 
L 77.407502 111.022468 
L 78.382441 96.969269 
L 79.357379 86.728849 
L 80.332318 79.270383 
L 81.307256 73.84263 
L 82.282195 69.898414 
L 83.257133 67.040002 
L 84.232072 64.979808 
L 85.207011 63.512257 
L 86.181949 62.491524 
L 87.156888 61.804554 
L 88.456806 61.227632 
L 90.081704 60.806188 
L 92.35656 60.49849 
L 95.606355 60.317501 
L 102.105946 60.233388 
L 136.553776 60.221932 
L 398.487273 60.221932 
L 398.487273 60.221932 
" clip-path="url(#pf35a4a335f)" style="fill: none; stroke: #7f7f7f; stroke-width: 1.5; stroke-linecap: square"/>
   </g>
   <g id="line2d_22">
    <path d="M 73.832727 182.236712 
L 74.482686 179.22502 
L 74.807666 176.967454 
L 75.132645 172.183122 
L 76.107584 145.871511 
L 77.082523 126.149005 
L 78.057461 111.768268 
L 79.0324 101.278332 
L 80.007338 93.620618 
L 80.982277 88.023007 
L 81.957215 83.921995 
L 82.932154 80.905225 
L 83.907093 78.668735 
L 84.882031 76.984755 
L 85.85697 75.679 
L 87.156888 74.320733 
L 88.456806 73.306781 
L 89.756724 72.599914 
L 91.056642 72.125538 
L 92.68154 71.75085 
L 94.956396 71.466842 
L 98.531171 71.28696 
L 105.680721 71.212191 
L 152.477772 71.203917 
L 398.487273 71.203917 
L 398.487273 71.203917 
" clip-path="url(#pf35a4a335f)" style="fill: none; stroke: #bcbd22; stroke-width: 1.5; stroke-linecap: square"/>
   </g>
   <g id="line2d_23">
    <path d="M 73.832727 177.02833 
L 74.482686 176.070317 
L 74.807666 175.156895 
L 75.132645 173.372564 
L 76.757543 155.302121 
L 77.732482 147.882661 
L 78.70742 142.482697 
L 79.682359 138.561729 
L 80.657297 135.726582 
L 81.632236 133.691445 
L 82.607174 132.249964 
L 83.582113 131.256231 
L 84.557052 130.612682 
L 85.53199 130.261966 
L 86.506929 130.168965 
L 87.806847 130.322434 
L 91.056642 130.817013 
L 94.306437 131.029399 
L 100.156069 131.131456 
L 122.579656 131.150497 
L 398.487273 131.150513 
L 398.487273 131.150513 
" clip-path="url(#pf35a4a335f)" style="fill: none; stroke: #17becf; stroke-width: 1.5; stroke-linecap: square"/>
   </g>
   <g id="line2d_24">
    <path d="M 73.832727 175.564164 
L 74.157707 176.056151 
L 74.482686 176.926745 
L 74.807666 178.492413 
L 75.132645 182.677818 
L 76.107584 207.69124 
L 77.082523 226.48009 
L 78.057461 240.180113 
L 79.0324 250.173645 
L 80.007338 257.469211 
L 80.982277 262.802428 
L 81.957215 266.710176 
L 82.932154 269.585364 
L 83.907093 271.717687 
L 84.882031 273.324359 
L 86.181949 274.930028 
L 87.481867 276.145377 
L 88.781785 277.039978 
L 90.081704 277.65576 
L 91.706601 278.146281 
L 93.656478 278.481176 
L 96.581294 278.715575 
L 101.455987 278.834172 
L 116.080066 278.864969 
L 398.487273 278.865247 
L 398.487273 278.865247 
" clip-path="url(#pf35a4a335f)" style="fill: none; stroke: #1f77b4; stroke-width: 1.5; stroke-linecap: square"/>
   </g>
   <g id="line2d_25">
    <path d="M 73.832727 180.096758 
L 74.157707 179.972496 
L 74.482686 180.141335 
L 74.807666 180.771656 
L 75.132645 183.258455 
L 76.107584 198.641335 
L 77.082523 210.033715 
L 78.057461 218.343446 
L 79.0324 224.411102 
L 80.007338 228.850727 
L 80.982277 232.110602 
L 81.957215 234.518492 
L 82.932154 236.315753 
L 83.907093 237.683511 
L 85.207011 239.080061 
L 87.156888 240.743319 
L 88.456806 241.63637 
L 89.756724 242.286578 
L 91.381622 242.815138 
L 93.331499 243.179328 
L 95.931335 243.41751 
L 100.156069 243.55329 
L 110.880393 243.598814 
L 357.539853 243.600308 
L 398.487273 243.600308 
L 398.487273 243.600308 
" clip-path="url(#pf35a4a335f)" style="fill: none; stroke: #ff7f0e; stroke-width: 1.5; stroke-linecap: square"/>
   </g>
   <g id="line2d_26">
    <path d="M 73.832727 173.253672 
L 74.157707 173.305717 
L 74.482686 173.229743 
L 74.807666 172.857393 
L 75.132645 171.949188 
L 77.082523 158.624929 
L 78.057461 154.289413 
L 79.0324 151.140249 
L 80.007338 148.863394 
L 80.982277 147.230652 
L 81.957215 146.076786 
L 82.932154 145.284137 
L 83.907093 144.772926 
L 84.882031 144.496056 
L 85.85697 144.433932 
L 87.156888 144.645248 
L 90.731663 145.486923 
L 93.331499 145.766152 
L 97.231253 145.923705 
L 106.0057 145.984189 
L 202.19964 145.988126 
L 398.487273 145.988126 
L 398.487273 145.988126 
" clip-path="url(#pf35a4a335f)" style="fill: none; stroke: #2ca02c; stroke-width: 1.5; stroke-linecap: square"/>
   </g>
   <g id="line2d_27">
    <path d="M 73.832727 178.83154 
L 74.807666 177.964822 
L 75.132645 178.0345 
L 75.457625 178.301068 
L 78.70742 177.417794 
L 80.657297 177.250301 
L 82.607174 177.284375 
L 84.557052 177.529884 
L 85.85697 177.874534 
L 87.481867 178.557031 
L 89.431744 179.340309 
L 91.056642 179.758958 
L 93.331499 180.086664 
L 96.581294 180.287206 
L 102.430925 180.38047 
L 127.129369 180.397438 
L 398.487273 180.397444 
L 398.487273 180.397444 
" clip-path="url(#pf35a4a335f)" style="fill: none; stroke: #d62728; stroke-width: 1.5; stroke-linecap: square"/>
   </g>
   <g id="line2d_28">
    <path d="M 73.832727 174.149441 
L 74.157707 174.570706 
L 74.482686 175.295161 
L 74.807666 176.659389 
L 75.132645 179.900124 
L 76.432563 206.58854 
L 77.407502 221.008627 
L 78.382441 231.515551 
L 79.357379 239.164909 
L 80.332318 244.725389 
L 81.307256 248.756833 
L 82.282195 251.666234 
L 83.257133 253.747583 
L 84.232072 255.209675 
L 85.207011 256.195189 
L 86.181949 256.79869 
L 87.156888 257.104906 
L 88.456806 257.251061 
L 92.031581 257.308535 
L 147.2781 257.307663 
L 398.487273 257.307663 
L 398.487273 257.307663 
" clip-path="url(#pf35a4a335f)" style="fill: none; stroke: #9467bd; stroke-width: 1.5; stroke-linecap: square"/>
   </g>
   <g id="line2d_29">
    <path d="M 73.832727 167.404914 
L 74.157707 167.883701 
L 74.482686 168.075228 
L 74.807666 167.727069 
L 75.132645 166.093891 
L 76.757543 145.603203 
L 77.732482 137.196272 
L 78.70742 131.075929 
L 79.682359 126.6289 
L 80.657297 123.408906 
L 81.632236 121.091376 
L 82.607174 119.441582 
L 83.582113 118.292672 
L 84.557052 117.531299 
L 85.53199 117.087809 
L 86.506929 116.917726 
L 87.806847 116.985972 
L 92.031581 117.424888 
L 96.256314 117.568093 
L 106.33068 117.618194 
L 279.544767 117.620368 
L 398.487273 117.620368 
L 398.487273 117.620368 
" clip-path="url(#pf35a4a335f)" style="fill: none; stroke: #8c564b; stroke-width: 1.5; stroke-linecap: square"/>
   </g>
   <g id="line2d_30">
    <path d="M 73.832727 174.3017 
L 74.482686 174.46666 
L 74.807666 174.80256 
L 75.132645 175.418564 
L 75.782604 178.861085 
L 76.757543 183.659401 
L 77.732482 187.153386 
L 78.70742 189.691115 
L 79.682359 191.524511 
L 80.657297 192.836326 
L 81.632236 193.758916 
L 82.607174 194.38664 
L 83.582113 194.783469 
L 84.557052 194.98667 
L 85.53199 195.008751 
L 86.831908 194.764881 
L 90.731663 193.685363 
L 93.006519 193.395871 
L 96.581294 193.207472 
L 103.405864 193.128414 
L 142.728387 193.1183 
L 398.487273 193.1183 
L 398.487273 193.1183 
" clip-path="url(#pf35a4a335f)" style="fill: none; stroke: #e377c2; stroke-width: 1.5; stroke-linecap: square"/>
   </g>
   <g id="line2d_31">
    <path d="M 73.832727 183.080836 
L 74.482686 179.818608 
L 74.807666 177.252234 
L 75.132645 171.955177 
L 76.432563 133.053826 
L 77.407502 112.276306 
L 78.382441 97.131131 
L 79.357379 86.093429 
L 80.332318 78.051823 
L 81.307256 72.196281 
L 82.282195 67.936636 
L 83.257133 64.843486 
L 84.232072 62.605488 
L 85.207011 60.998597 
L 86.181949 59.86238 
L 87.156888 59.075045 
L 88.456806 58.388686 
L 89.756724 57.955187 
L 91.706601 57.57411 
L 94.306437 57.330187 
L 98.531171 57.19354 
L 109.255495 57.148727 
L 367.614218 57.147317 
L 398.487273 57.147317 
L 398.487273 57.147317 
" clip-path="url(#pf35a4a335f)" style="fill: none; stroke: #7f7f7f; stroke-width: 1.5; stroke-linecap: square"/>
   </g>
   <g id="line2d_32">
    <path d="M 73.832727 168.559941 
L 74.807666 171.382203 
L 75.132645 173.405647 
L 76.107584 182.682835 
L 77.082523 189.334988 
L 78.057461 194.189809 
L 79.0324 197.740343 
L 80.007338 200.347472 
L 80.982277 202.275022 
L 81.957215 203.716437 
L 82.932154 204.81552 
L 84.232072 205.936983 
L 86.831908 207.747183 
L 88.781785 208.937731 
L 90.081704 209.485888 
L 91.706601 209.931369 
L 93.656478 210.238711 
L 96.581294 210.455385 
L 101.780966 210.5687 
L 118.679902 210.594913 
L 398.487273 210.595029 
L 398.487273 210.595029 
" clip-path="url(#pf35a4a335f)" style="fill: none; stroke: #bcbd22; stroke-width: 1.5; stroke-linecap: square"/>
   </g>
   <g id="line2d_33">
    <path d="M 73.832727 181.179742 
L 74.157707 181.001152 
L 74.482686 181.254829 
L 74.807666 182.31587 
L 75.132645 185.748477 
L 76.432563 216.002773 
L 77.407502 232.308299 
L 78.382441 244.190949 
L 79.357379 252.84559 
L 80.332318 259.142636 
L 81.307256 263.716211 
L 82.282195 267.027727 
L 83.257133 269.411476 
L 84.232072 271.106927 
L 85.207011 272.281345 
L 86.181949 273.049427 
L 87.156888 273.506887 
L 88.456806 273.825015 
L 90.731663 274.069917 
L 94.631417 274.210647 
L 104.380803 274.259709 
L 286.694316 274.261661 
L 398.487273 274.261661 
L 398.487273 274.261661 
" clip-path="url(#pf35a4a335f)" style="fill: none; stroke: #17becf; stroke-width: 1.5; stroke-linecap: square"/>
   </g>
   <g id="line2d_34">
    <path d="M 73.832727 178.385448 
L 74.157707 178.627116 
L 74.482686 179.305966 
L 74.807666 180.772763 
L 75.132645 185.051985 
L 76.432563 218.980961 
L 77.407502 236.99406 
L 78.382441 250.128535 
L 79.357379 259.70918 
L 80.332318 266.702238 
L 81.307256 271.812401 
L 82.282195 275.55401 
L 83.257133 278.30352 
L 84.232072 280.338412 
L 85.207011 281.866234 
L 86.181949 283.043501 
L 87.481867 284.241083 
L 88.781785 285.099515 
L 90.081704 285.684295 
L 91.706601 286.148219 
L 93.656478 286.464265 
L 96.581294 286.685135 
L 101.780966 286.799623 
L 118.679902 286.825779 
L 398.487273 286.825891 
L 398.487273 286.825891 
" clip-path="url(#pf35a4a335f)" style="fill: none; stroke: #1f77b4; stroke-width: 1.5; stroke-linecap: square"/>
   </g>
   <g id="line2d_35">
    <path d="M 73.832727 181.551686 
L 74.482686 180.462709 
L 74.807666 180.346923 
L 75.132645 180.778874 
L 75.782604 184.752258 
L 76.757543 190.252788 
L 77.732482 194.258749 
L 78.70742 197.169852 
L 79.682359 199.275696 
L 80.657297 200.786508 
L 81.632236 201.854689 
L 82.607174 202.589245 
L 83.582113 203.064897 
L 84.557052 203.326896 
L 85.53199 203.393796 
L 86.506929 203.272115 
L 88.456806 202.710837 
L 90.406683 202.246513 
L 92.68154 201.945015 
L 95.931335 201.75795 
L 102.105946 201.668664 
L 130.379165 201.654153 
L 398.487273 201.654151 
L 398.487273 201.654151 
" clip-path="url(#pf35a4a335f)" style="fill: none; stroke: #ff7f0e; stroke-width: 1.5; stroke-linecap: square"/>
   </g>
   <g id="line2d_36">
    <path d="M 73.832727 179.860007 
L 74.157707 179.904634 
L 74.482686 180.355237 
L 74.807666 181.505836 
L 75.132645 185.21997 
L 76.107584 208.422317 
L 77.082523 225.840048 
L 78.057461 238.540826 
L 79.0324 247.806542 
L 80.007338 254.572574 
L 80.982277 259.521262 
L 81.957215 263.150703 
L 82.932154 265.825691 
L 83.907093 267.815756 
L 84.882031 269.324026 
L 86.181949 270.850785 
L 87.481867 272.030806 
L 88.781785 272.912104 
L 90.081704 273.522087 
L 91.706601 274.009036 
L 93.656478 274.341871 
L 96.581294 274.575012 
L 101.455987 274.693068 
L 116.405045 274.723785 
L 398.487273 274.724035 
L 398.487273 274.724035 
" clip-path="url(#pf35a4a335f)" style="fill: none; stroke: #2ca02c; stroke-width: 1.5; stroke-linecap: square"/>
   </g>
   <g id="line2d_37">
    <path d="M 73.832727 174.002759 
L 74.157707 174.436088 
L 74.482686 175.063038 
L 74.807666 176.018201 
L 75.132645 178.53485 
L 76.107584 192.391812 
L 77.082523 202.575074 
L 78.057461 210.003651 
L 79.0324 215.429563 
L 80.007338 219.402375 
L 80.982277 222.323404 
L 81.957215 224.486237 
L 82.932154 226.107467 
L 83.907093 227.350491 
L 85.207011 228.639835 
L 87.156888 230.233146 
L 88.781785 231.29791 
L 90.081704 231.887713 
L 91.706601 232.364387 
L 93.656478 232.692308 
L 96.581294 232.923035 
L 101.455987 233.040388 
L 116.405045 233.07111 
L 398.487273 233.071364 
L 398.487273 233.071364 
" clip-path="url(#pf35a4a335f)" style="fill: none; stroke: #d62728; stroke-width: 1.5; stroke-linecap: square"/>
   </g>
   <g id="line2d_38">
    <path d="M 73.832727 170.119155 
L 74.482686 170.419852 
L 74.807666 170.355536 
L 75.132645 169.416721 
L 75.782604 165.555262 
L 76.757543 161.377071 
L 77.732482 158.327206 
L 78.70742 156.094527 
L 79.682359 154.450399 
L 80.657297 153.227248 
L 81.632236 152.302047 
L 82.932154 151.376346 
L 84.882031 150.321926 
L 87.481867 148.886543 
L 89.106765 148.072798 
L 90.731663 147.532263 
L 92.68154 147.152793 
L 95.281376 146.902572 
L 99.50611 146.759142 
L 109.905455 146.710944 
L 317.892351 146.709164 
L 398.487273 146.709164 
L 398.487273 146.709164 
" clip-path="url(#pf35a4a335f)" style="fill: none; stroke: #9467bd; stroke-width: 1.5; stroke-linecap: square"/>
   </g>
   <g id="line2d_39">
    <path d="M 73.832727 181.865242 
L 74.482686 180.101408 
L 74.807666 178.918617 
L 75.132645 177.094746 
L 76.757543 160.590337 
L 77.732482 153.808087 
L 78.70742 148.872873 
L 79.682359 145.291105 
L 80.657297 142.703827 
L 81.632236 140.850195 
L 82.607174 139.542105 
L 83.582113 138.647073 
L 84.557052 138.07754 
L 85.53199 137.783804 
L 86.506929 137.736492 
L 87.806847 137.938339 
L 90.731663 138.461805 
L 93.656478 138.707289 
L 98.531171 138.837049 
L 112.180311 138.871909 
L 398.487273 138.872371 
L 398.487273 138.872371 
" clip-path="url(#pf35a4a335f)" style="fill: none; stroke: #8c564b; stroke-width: 1.5; stroke-linecap: square"/>
   </g>
   <g id="line2d_40">
    <path d="M 73.832727 170.264982 
L 74.157707 170.096343 
L 74.482686 169.464811 
L 74.807666 167.958674 
L 75.132645 163.660673 
L 76.432563 128.063962 
L 77.407502 108.990393 
L 78.382441 95.087728 
L 79.357379 84.956447 
L 80.332318 77.576608 
L 81.307256 72.204869 
L 82.282195 68.299748 
L 83.257133 65.467504 
L 84.232072 63.423134 
L 85.207011 61.962384 
L 86.181949 60.939838 
L 87.156888 60.243668 
L 88.456806 59.650157 
L 90.081704 59.211715 
L 92.35656 58.889943 
L 95.606355 58.70017 
L 101.780966 58.613138 
L 131.679083 58.599718 
L 398.487273 58.599717 
L 398.487273 58.599717 
" clip-path="url(#pf35a4a335f)" style="fill: none; stroke: #e377c2; stroke-width: 1.5; stroke-linecap: square"/>
   </g>
   <g id="line2d_41">
    <path d="M 73.832727 169.960314 
L 74.157707 169.771141 
L 74.482686 169.114993 
L 74.807666 167.610762 
L 75.132645 163.175196 
L 76.432563 127.459417 
L 77.407502 108.451119 
L 78.382441 94.592283 
L 79.357379 84.485758 
L 80.332318 77.112734 
L 81.307256 71.730316 
L 82.282195 67.796549 
L 83.257133 64.915432 
L 84.232072 62.796414 
L 85.207011 61.22446 
L 86.181949 60.039617 
L 87.481867 58.877062 
L 88.781785 58.069781 
L 90.081704 57.526916 
L 91.706601 57.098472 
L 93.981458 56.774314 
L 97.231253 56.579935 
L 103.405864 56.489546 
L 132.004062 56.47534 
L 398.487273 56.475339 
L 398.487273 56.475339 
" clip-path="url(#pf35a4a335f)" style="fill: none; stroke: #7f7f7f; stroke-width: 1.5; stroke-linecap: square"/>
   </g>
   <g id="line2d_42">
    <path d="M 73.832727 181.891338 
L 74.157707 181.406859 
L 74.482686 181.22343 
L 74.807666 181.60311 
L 75.132645 183.350268 
L 76.757543 204.965722 
L 77.732482 213.821589 
L 78.70742 220.269351 
L 79.682359 224.955328 
L 80.657297 228.349901 
L 81.632236 230.795225 
L 82.607174 232.53888 
L 83.582113 233.757165 
L 84.557052 234.570455 
L 85.53199 235.05376 
L 86.506929 235.255572 
L 87.806847 235.220656 
L 92.68154 234.80321 
L 97.881212 234.687192 
L 114.130188 234.65891 
L 398.487273 234.658741 
L 398.487273 234.658741 
" clip-path="url(#pf35a4a335f)" style="fill: none; stroke: #bcbd22; stroke-width: 1.5; stroke-linecap: square"/>
   </g>
   <g id="line2d_43">
    <path d="M 73.832727 181.02821 
L 74.482686 178.884122 
L 74.807666 177.505489 
L 75.132645 174.702392 
L 76.107584 160.71759 
L 77.082523 150.474727 
L 78.057461 143.002612 
L 79.0324 137.544774 
L 80.007338 133.548377 
L 80.982277 130.609712 
L 81.957215 128.433426 
L 82.932154 126.801594 
L 83.907093 125.549752 
L 85.207011 124.249762 
L 87.156888 122.639072 
L 88.781785 121.560441 
L 90.081704 120.962661 
L 91.706601 120.47947 
L 93.656478 120.147042 
L 96.581294 119.913131 
L 101.455987 119.794153 
L 116.080066 119.763032 
L 398.487273 119.762747 
L 398.487273 119.762747 
" clip-path="url(#pf35a4a335f)" style="fill: none; stroke: #17becf; stroke-width: 1.5; stroke-linecap: square"/>
   </g>
   <g id="line2d_44">
    <path d="M 73.832727 170.255503 
L 74.807666 172.545104 
L 75.132645 174.347529 
L 75.782604 180.271835 
L 76.757543 186.9071 
L 77.732482 191.748125 
L 78.70742 195.28645 
L 79.682359 197.882201 
L 80.657297 199.798797 
L 81.632236 201.229127 
L 82.607174 202.315894 
L 83.907093 203.415324 
L 86.181949 204.933516 
L 88.781785 206.52108 
L 90.406683 207.162872 
L 92.031581 207.557729 
L 94.306437 207.86066 
L 97.556233 208.044304 
L 104.055823 208.132067 
L 136.553776 208.144518 
L 398.487273 208.144518 
L 398.487273 208.144518 
" clip-path="url(#pf35a4a335f)" style="fill: none; stroke: #1f77b4; stroke-width: 1.5; stroke-linecap: square"/>
   </g>
   <g id="line2d_45">
    <path d="M 73.832727 172.740976 
L 74.157707 172.660832 
L 74.482686 172.451754 
L 74.807666 172.069868 
L 75.132645 170.677696 
L 75.782604 165.374756 
L 76.757543 159.447155 
L 77.732482 155.122025 
L 78.70742 151.959803 
L 79.682359 149.638262 
L 80.657297 147.921609 
L 81.632236 146.637099 
L 82.932154 145.37994 
L 84.557052 144.233501 
L 88.781785 141.702097 
L 90.406683 141.077011 
L 92.031581 140.692047 
L 94.306437 140.39657 
L 97.556233 140.217381 
L 104.055823 140.131716 
L 137.203735 140.119556 
L 398.487273 140.119555 
L 398.487273 140.119555 
" clip-path="url(#pf35a4a335f)" style="fill: none; stroke: #ff7f0e; stroke-width: 1.5; stroke-linecap: square"/>
   </g>
   <g id="line2d_46">
    <path d="M 73.832727 168.69921 
L 74.482686 170.859651 
L 74.807666 172.353929 
L 75.132645 175.526428 
L 76.107584 192.019407 
L 77.082523 204.186561 
L 78.057461 213.061214 
L 79.0324 219.540931 
L 80.007338 224.281334 
L 80.982277 227.761028 
L 81.957215 230.329907 
L 82.932154 232.24552 
L 83.907093 233.700914 
L 85.207011 235.181633 
L 86.831908 236.662853 
L 88.456806 237.861905 
L 89.756724 238.539173 
L 91.381622 239.08936 
L 93.331499 239.468328 
L 95.931335 239.716125 
L 100.156069 239.857362 
L 110.555414 239.904533 
L 324.716921 239.906257 
L 398.487273 239.906257 
L 398.487273 239.906257 
" clip-path="url(#pf35a4a335f)" style="fill: none; stroke: #2ca02c; stroke-width: 1.5; stroke-linecap: square"/>
   </g>
   <g id="line2d_47">
    <path d="M 73.832727 182.211152 
L 74.482686 179.571385 
L 74.807666 177.507447 
L 75.132645 173.450122 
L 76.432563 143.018621 
L 77.407502 126.644062 
L 78.382441 114.711887 
L 79.357379 106.022678 
L 80.332318 99.702828 
L 81.307256 95.115966 
L 82.282195 91.799217 
L 83.257133 89.417626 
L 84.232072 87.732076 
L 85.207011 86.576995 
L 86.181949 85.840343 
L 87.156888 85.425965 
L 88.456806 85.168373 
L 90.731663 84.997841 
L 95.606355 84.901613 
L 114.780147 84.880758 
L 398.487273 84.880733 
L 398.487273 84.880733 
" clip-path="url(#pf35a4a335f)" style="fill: none; stroke: #d62728; stroke-width: 1.5; stroke-linecap: square"/>
   </g>
   <g id="line2d_48">
    <path d="M 73.832727 180.542997 
L 74.157707 180.470802 
L 74.482686 180.847331 
L 74.807666 182.064327 
L 75.132645 185.824843 
L 76.432563 218.228833 
L 77.407502 235.655147 
L 78.382441 248.355535 
L 79.357379 257.607616 
L 80.332318 264.342241 
L 81.307256 269.23766 
L 82.282195 272.787599 
L 83.257133 275.350255 
L 84.232072 277.183235 
L 85.207011 278.468253 
L 86.181949 279.331755 
L 87.156888 279.875987 
L 88.456806 280.292033 
L 90.406683 280.612001 
L 93.331499 280.81889 
L 98.531171 280.92158 
L 117.379984 280.944044 
L 398.487273 280.944089 
L 398.487273 280.944089 
" clip-path="url(#pf35a4a335f)" style="fill: none; stroke: #9467bd; stroke-width: 1.5; stroke-linecap: square"/>
   </g>
   <g id="line2d_49">
    <path d="M 73.832727 181.325953 
L 74.482686 178.458614 
L 74.807666 176.236634 
L 75.132645 171.429238 
L 76.107584 144.682893 
L 77.082523 124.613588 
L 78.057461 109.98022 
L 79.0324 99.306506 
L 80.007338 91.515461 
L 80.982277 85.821576 
L 81.957215 81.651621 
L 82.932154 78.586245 
L 83.907093 76.316593 
L 84.882031 74.611703 
L 85.85697 73.295467 
L 87.156888 71.936666 
L 88.456806 70.929848 
L 89.756724 70.230199 
L 91.381622 69.671076 
L 93.331499 69.289012 
L 95.931335 69.040432 
L 100.156069 68.899384 
L 110.555414 68.852555 
L 327.966716 68.850862 
L 398.487273 68.850862 
L 398.487273 68.850862 
" clip-path="url(#pf35a4a335f)" style="fill: none; stroke: #8c564b; stroke-width: 1.5; stroke-linecap: square"/>
   </g>
   <g id="line2d_50">
    <path d="M 73.832727 171.743033 
L 74.157707 172.662239 
L 74.482686 173.988376 
L 74.807666 176.138634 
L 75.132645 181.18519 
L 76.432563 219.68492 
L 77.407502 240.217149 
L 78.382441 255.185023 
L 79.357379 266.096377 
L 80.332318 274.05041 
L 81.307256 279.848427 
L 82.282195 284.074559 
L 83.257133 287.154578 
L 84.232072 289.398757 
L 85.207011 291.033079 
L 86.181949 292.222088 
L 87.156888 293.086063 
L 88.456806 293.882445 
L 89.756724 294.403795 
L 91.381622 294.810741 
L 93.656478 295.116726 
L 96.906274 295.299378 
L 103.405864 295.385243 
L 136.878755 295.397121 
L 398.487273 295.397121 
L 398.487273 295.397121 
" clip-path="url(#pf35a4a335f)" style="fill: none; stroke: #e377c2; stroke-width: 1.5; stroke-linecap: square"/>
   </g>
   <g id="line2d_51">
    <path d="M 73.832727 170.027455 
L 74.482686 172.548884 
L 74.807666 174.711644 
L 75.132645 179.642914 
L 76.432563 215.843556 
L 77.407502 235.043854 
L 78.382441 249.043612 
L 79.357379 259.254696 
L 80.332318 266.706797 
L 81.307256 272.150835 
L 82.282195 276.134821 
L 83.257133 279.059654 
L 84.232072 281.220449 
L 85.207011 282.837278 
L 86.181949 284.07546 
L 87.481867 285.322608 
L 88.781785 286.209012 
L 90.081704 286.810796 
L 91.706601 287.287562 
L 93.656478 287.612123 
L 96.581294 287.838828 
L 101.455987 287.9533 
L 116.730025 287.982993 
L 398.487273 287.983208 
L 398.487273 287.983208 
" clip-path="url(#pf35a4a335f)" style="fill: none; stroke: #7f7f7f; stroke-width: 1.5; stroke-linecap: square"/>
   </g>
   <g id="line2d_52">
    <path d="M 73.832727 166.308092 
L 74.482686 168.995101 
L 74.807666 171.047007 
L 75.132645 174.997259 
L 76.432563 204.474099 
L 77.407502 220.345517 
L 78.382441 231.910668 
L 79.357379 240.331865 
L 80.332318 246.455632 
L 81.307256 250.898568 
L 82.282195 254.109088 
L 83.257133 256.411484 
L 84.232072 258.036856 
L 85.207011 259.144508 
L 86.181949 259.841494 
L 87.156888 260.221033 
L 88.456806 260.440323 
L 91.056642 260.577733 
L 97.881212 260.639669 
L 160.60226 260.645048 
L 398.487273 260.645048 
L 398.487273 260.645048 
" clip-path="url(#pf35a4a335f)" style="fill: none; stroke: #bcbd22; stroke-width: 1.5; stroke-linecap: square"/>
   </g>
   <g id="line2d_53">
    <path d="M 73.832727 179.246067 
L 74.157707 178.874666 
L 74.482686 178.681938 
L 74.807666 178.847546 
L 75.132645 179.688703 
L 77.082523 193.896194 
L 78.057461 198.515423 
L 79.0324 201.87154 
L 80.007338 204.299475 
L 80.982277 206.042658 
L 81.957215 207.277441 
L 82.932154 208.129621 
L 83.907093 208.684976 
L 84.882031 208.995099 
L 85.85697 209.083027 
L 86.831908 208.969762 
L 92.031581 207.938379 
L 95.281376 207.732505 
L 101.131007 207.635401 
L 124.854513 207.617508 
L 398.487273 207.617498 
L 398.487273 207.617498 
" clip-path="url(#pf35a4a335f)" style="fill: none; stroke: #17becf; stroke-width: 1.5; stroke-linecap: square"/>
   </g>
   <g id="line2d_54">
    <path d="M 73.832727 172.542657 
L 74.157707 173.349035 
L 74.482686 174.561132 
L 74.807666 176.598765 
L 75.132645 181.426633 
L 76.432563 218.905808 
L 77.407502 238.947157 
L 78.382441 253.555717 
L 79.357379 264.20233 
L 80.332318 271.958993 
L 81.307256 277.607035 
L 82.282195 281.715711 
L 83.257133 284.699205 
L 84.232072 286.857822 
L 85.207011 288.407657 
L 86.181949 289.503442 
L 87.156888 290.262654 
L 88.456806 290.924383 
L 90.081704 291.421068 
L 92.031581 291.751015 
L 94.956396 291.978367 
L 99.831089 292.091823 
L 115.105127 292.120806 
L 398.487273 292.121008 
L 398.487273 292.121008 
" clip-path="url(#pf35a4a335f)" style="fill: none; stroke: #1f77b4; stroke-width: 1.5; stroke-linecap: square"/>
   </g>
   <g id="line2d_55">
    <path d="M 73.832727 175.862474 
L 74.157707 175.112761 
L 74.482686 173.947663 
L 74.807666 171.947397 
L 75.132645 167.120507 
L 76.432563 129.505879 
L 77.407502 109.399745 
L 78.382441 94.74367 
L 79.357379 84.061871 
L 80.332318 76.278703 
L 81.307256 70.610147 
L 82.282195 66.484928 
L 83.257133 63.487242 
L 84.232072 61.315308 
L 85.207011 59.751441 
L 86.181949 58.639241 
L 87.156888 57.860866 
L 88.456806 57.17403 
L 89.756724 56.736708 
L 91.706601 56.350871 
L 94.306437 56.103404 
L 98.531171 55.964582 
L 109.255495 55.918984 
L 362.414545 55.917545 
L 398.487273 55.917545 
L 398.487273 55.917545 
" clip-path="url(#pf35a4a335f)" style="fill: none; stroke: #ff7f0e; stroke-width: 1.5; stroke-linecap: square"/>
   </g>
   <g id="line2d_56">
    <path d="M 73.832727 172.315457 
L 74.157707 171.938947 
L 74.482686 171.170117 
L 74.807666 169.691376 
L 75.132645 165.572143 
L 76.432563 133.722938 
L 77.407502 116.857825 
L 78.382441 104.559297 
L 79.357379 95.586264 
L 80.332318 89.033355 
L 81.307256 84.240162 
L 82.282195 80.724426 
L 83.257133 78.132604 
L 84.232072 76.202946 
L 85.207011 74.737691 
L 86.506929 73.252407 
L 87.806847 72.125621 
L 89.106765 71.312079 
L 90.406683 70.758215 
L 92.031581 70.318638 
L 94.306437 69.984795 
L 97.556233 69.783969 
L 103.405864 69.691887 
L 128.429287 69.675442 
L 398.487273 69.675437 
L 398.487273 69.675437 
" clip-path="url(#pf35a4a335f)" style="fill: none; stroke: #2ca02c; stroke-width: 1.5; stroke-linecap: square"/>
   </g>
   <g id="line2d_57">
    <path d="M 73.832727 168.769414 
L 74.157707 169.01075 
L 74.482686 168.916597 
L 74.807666 168.180401 
L 75.132645 165.729038 
L 76.757543 138.407471 
L 77.732482 127.282847 
L 78.70742 119.180376 
L 79.682359 113.286725 
L 80.657297 109.009686 
L 81.632236 105.918219 
L 82.607174 103.699766 
L 83.582113 102.13026 
L 84.557052 101.053712 
L 85.53199 100.367926 
L 86.506929 100.003993 
L 87.481867 99.877681 
L 89.756724 99.910716 
L 96.581294 100.034796 
L 119.004881 100.054813 
L 398.487273 100.054833 
L 398.487273 100.054833 
" clip-path="url(#pf35a4a335f)" style="fill: none; stroke: #d62728; stroke-width: 1.5; stroke-linecap: square"/>
   </g>
   <g id="line2d_58">
    <path d="M 73.832727 182.69149 
L 74.157707 182.520268 
L 74.482686 182.85064 
L 74.807666 184.058109 
L 75.132645 188.220079 
L 76.432563 223.010131 
L 77.407502 241.534884 
L 78.382441 255.041304 
L 79.357379 264.891087 
L 80.332318 272.077208 
L 81.307256 277.323741 
L 82.282195 281.158936 
L 83.257133 283.96885 
L 84.232072 286.036874 
L 85.207011 287.572984 
L 86.181949 288.733598 
L 87.481867 289.87699 
L 88.781785 290.673876 
L 90.081704 291.210567 
L 91.706601 291.634399 
L 93.981458 291.955179 
L 97.231253 292.14758 
L 103.405864 292.237071 
L 132.329042 292.251143 
L 398.487273 292.251144 
L 398.487273 292.251144 
" clip-path="url(#pf35a4a335f)" style="fill: none; stroke: #9467bd; stroke-width: 1.5; stroke-linecap: square"/>
   </g>
   <g id="line2d_59">
    <path d="M 73.832727 171.256601 
L 74.157707 172.208495 
L 74.482686 173.523535 
L 74.807666 175.556116 
L 75.132645 180.328589 
L 76.432563 215.629496 
L 77.407502 234.344345 
L 78.382441 247.9905 
L 79.357379 257.944364 
L 80.332318 265.209817 
L 81.307256 270.518998 
L 82.282195 274.406282 
L 83.257133 277.262779 
L 84.232072 279.376769 
L 85.207011 280.963858 
L 86.181949 282.186628 
L 87.481867 283.43023 
L 88.781785 284.321486 
L 90.081704 284.928582 
L 91.706601 285.410195 
L 93.656478 285.738288 
L 96.581294 285.967574 
L 101.455987 286.083406 
L 116.405045 286.113448 
L 398.487273 286.113691 
L 398.487273 286.113691 
" clip-path="url(#pf35a4a335f)" style="fill: none; stroke: #8c564b; stroke-width: 1.5; stroke-linecap: square"/>
   </g>
   <g id="line2d_60">
    <path d="M 73.832727 165.943083 
L 74.157707 166.15727 
L 74.482686 165.851017 
L 74.807666 164.621144 
L 75.132645 160.393954 
L 76.432563 124.46868 
L 77.407502 105.277846 
L 78.382441 91.287555 
L 79.357379 81.088294 
L 80.332318 73.652494 
L 81.307256 68.23104 
L 82.282195 64.277785 
L 83.257133 61.394495 
L 84.232072 59.290669 
L 85.207011 57.754204 
L 86.181949 56.630155 
L 87.156888 55.806114 
L 88.456806 55.039067 
L 89.756724 54.533916 
L 91.381622 54.138651 
L 93.656478 53.841065 
L 96.906274 53.663268 
L 103.405864 53.579612 
L 137.528714 53.568024 
L 398.487273 53.568024 
L 398.487273 53.568024 
" clip-path="url(#pf35a4a335f)" style="fill: none; stroke: #e377c2; stroke-width: 1.5; stroke-linecap: square"/>
   </g>
   <g id="line2d_61">
    <path d="M 73.832727 174.31719 
L 74.157707 173.70255 
L 74.482686 172.678106 
L 74.807666 170.877571 
L 75.132645 166.246486 
L 76.432563 130.713098 
L 77.407502 111.844202 
L 78.382441 98.086239 
L 79.357379 88.051815 
L 80.332318 80.729112 
L 81.307256 75.380255 
L 82.282195 71.466792 
L 83.257133 68.594893 
L 84.232072 66.47481 
L 85.207011 64.89075 
L 86.181949 63.680875 
L 87.481867 62.467468 
L 88.781785 61.608263 
L 90.081704 61.025826 
L 91.706601 60.564665 
L 93.656478 60.25083 
L 96.581294 60.031665 
L 101.780966 59.918147 
L 118.679902 59.89224 
L 398.487273 59.89213 
L 398.487273 59.89213 
" clip-path="url(#pf35a4a335f)" style="fill: none; stroke: #7f7f7f; stroke-width: 1.5; stroke-linecap: square"/>
   </g>
   <g id="line2d_62">
    <path d="M 73.832727 175.179063 
L 74.157707 175.584564 
L 74.482686 176.262883 
L 74.807666 177.417765 
L 75.132645 180.571217 
L 76.107584 198.782721 
L 77.082523 212.312824 
L 78.057461 222.180686 
L 79.0324 229.383655 
L 80.007338 234.64999 
L 80.982277 238.511198 
L 81.957215 241.355661 
L 82.932154 243.468788 
L 83.907093 245.063522 
L 85.207011 246.662543 
L 86.831908 248.210593 
L 88.131826 249.213164 
L 89.431744 249.954728 
L 90.731663 250.462853 
L 92.35656 250.867627 
L 94.631417 251.175969 
L 97.881212 251.361994 
L 104.055823 251.449105 
L 133.30398 251.462948 
L 398.487273 251.462949 
L 398.487273 251.462949 
" clip-path="url(#pf35a4a335f)" style="fill: none; stroke: #bcbd22; stroke-width: 1.5; stroke-linecap: square"/>
   </g>
   <g id="line2d_63">
    <path d="M 73.832727 178.73666 
L 74.157707 177.669063 
L 74.482686 176.209739 
L 74.807666 173.945719 
L 75.132645 168.783839 
L 76.432563 130.032668 
L 77.407502 109.391183 
L 78.382441 94.343096 
L 79.357379 83.372181 
L 80.332318 75.373034 
L 81.307256 69.539769 
L 82.282195 65.284794 
L 83.257133 62.179527 
L 84.232072 59.911058 
L 85.207011 58.250463 
L 86.181949 57.030051 
L 87.156888 56.128927 
L 88.456806 55.283564 
L 89.756724 54.724225 
L 91.381622 54.285726 
L 93.656478 53.955257 
L 96.906274 53.757679 
L 103.080885 53.666084 
L 131.354103 53.651754 
L 398.487273 53.651753 
L 398.487273 53.651753 
" clip-path="url(#pf35a4a335f)" style="fill: none; stroke: #17becf; stroke-width: 1.5; stroke-linecap: square"/>
   </g>
   <g id="line2d_64">
    <path d="M 73.832727 177.696702 
L 74.482686 176.665089 
L 74.807666 175.755167 
L 75.132645 174.069631 
L 76.757543 157.168338 
L 77.732482 150.217513 
L 78.70742 145.159295 
L 79.682359 141.487658 
L 80.657297 138.834566 
L 81.632236 136.932549 
L 82.607174 135.588646 
L 83.582113 134.666771 
L 84.557052 134.076631 
L 85.53199 133.766351 
L 86.506929 133.704887 
L 87.806847 133.890566 
L 90.731663 134.391534 
L 93.656478 134.627766 
L 98.531171 134.752799 
L 112.505291 134.786471 
L 398.487273 134.786874 
L 398.487273 134.786874 
" clip-path="url(#pf35a4a335f)" style="fill: none; stroke: #1f77b4; stroke-width: 1.5; stroke-linecap: square"/>
   </g>
   <g id="line2d_65">
    <path d="M 73.832727 170.062404 
L 74.157707 169.949798 
L 74.482686 169.388856 
L 74.807666 167.976704 
L 75.132645 163.91218 
L 76.432563 129.82798 
L 77.407502 111.530918 
L 78.382441 98.195181 
L 79.357379 88.478832 
L 80.332318 81.40404 
L 81.307256 76.258248 
L 82.282195 72.522601 
L 83.257133 69.820286 
L 84.232072 67.879532 
L 85.207011 66.507271 
L 86.181949 65.567757 
L 87.156888 64.953673 
L 88.456806 64.458199 
L 90.081704 64.107396 
L 92.35656 63.855076 
L 96.256314 63.692997 
L 104.705782 63.634532 
L 198.949844 63.630613 
L 398.487273 63.630613 
L 398.487273 63.630613 
" clip-path="url(#pf35a4a335f)" style="fill: none; stroke: #ff7f0e; stroke-width: 1.5; stroke-linecap: square"/>
   </g>
   <g id="line2d_66">
    <path d="M 73.832727 166.597499 
L 74.482686 169.593631 
L 74.807666 171.793974 
L 75.132645 176.416817 
L 76.107584 201.595124 
L 77.082523 220.435411 
L 78.057461 234.173332 
L 79.0324 244.195337 
L 80.007338 251.513052 
L 80.982277 256.864414 
L 81.957215 260.788076 
L 82.932154 263.678445 
L 83.907093 265.82675 
L 84.882031 267.452141 
L 86.181949 269.091283 
L 87.481867 270.35051 
L 88.781785 271.287061 
L 90.081704 271.93427 
L 91.706601 272.450622 
L 93.656478 272.80344 
L 96.256314 273.033094 
L 100.806028 273.167964 
L 112.83027 273.207575 
L 398.487273 273.208413 
L 398.487273 273.208413 
" clip-path="url(#pf35a4a335f)" style="fill: none; stroke: #2ca02c; stroke-width: 1.5; stroke-linecap: square"/>
   </g>
   <g id="line2d_67">
    <path d="M 73.832727 180.262707 
L 74.482686 178.562454 
L 74.807666 177.249994 
L 75.132645 174.878161 
L 76.757543 152.734855 
L 77.732482 143.69678 
L 78.70742 137.116536 
L 79.682359 132.334598 
L 80.657297 128.870989 
L 81.632236 126.376594 
L 82.607174 124.598836 
L 83.582113 123.357955 
L 84.557052 122.531398 
L 85.53199 122.043117 
L 86.506929 121.844126 
L 87.806847 121.891147 
L 92.68154 122.342548 
L 97.556233 122.463654 
L 111.855332 122.497003 
L 398.487273 122.497373 
L 398.487273 122.497373 
" clip-path="url(#pf35a4a335f)" style="fill: none; stroke: #d62728; stroke-width: 1.5; stroke-linecap: square"/>
   </g>
   <g id="line2d_68">
    <path d="M 73.832727 178.033366 
L 74.157707 178.327163 
L 74.482686 179.090599 
L 74.807666 180.731913 
L 75.132645 185.329448 
L 76.432563 222.400562 
L 77.407502 242.183738 
L 78.382441 256.605849 
L 79.357379 267.119911 
L 80.332318 274.785206 
L 81.307256 280.373972 
L 82.282195 284.44921 
L 83.257133 287.421441 
L 84.232072 289.590128 
L 85.207011 291.17391 
L 86.181949 292.332498 
L 87.156888 293.181774 
L 88.456806 293.972222 
L 89.756724 294.492748 
L 91.381622 294.900033 
L 93.656478 295.206664 
L 96.906274 295.389863 
L 103.405864 295.47606 
L 136.878755 295.488 
L 398.487273 295.488 
L 398.487273 295.488 
" clip-path="url(#pf35a4a335f)" style="fill: none; stroke: #9467bd; stroke-width: 1.5; stroke-linecap: square"/>
   </g>
   <g id="line2d_69">
    <path d="M 73.832727 178.37618 
L 74.157707 178.635286 
L 74.482686 179.367524 
L 74.807666 180.981168 
L 75.132645 185.552917 
L 76.432563 222.551242 
L 77.407502 242.298179 
L 78.382441 256.693833 
L 79.357379 267.188535 
L 80.332318 274.839603 
L 81.307256 280.417838 
L 82.282195 284.485187 
L 83.257133 287.451383 
L 84.232072 289.615274 
L 85.207011 291.194983 
L 86.181949 292.349777 
L 87.156888 293.195327 
L 88.456806 293.981343 
L 89.756724 294.498568 
L 91.381622 294.903148 
L 93.656478 295.207693 
L 96.906274 295.389626 
L 103.405864 295.475218 
L 136.878755 295.487072 
L 398.487273 295.487072 
L 398.487273 295.487072 
" clip-path="url(#pf35a4a335f)" style="fill: none; stroke: #8c564b; stroke-width: 1.5; stroke-linecap: square"/>
   </g>
   <g id="line2d_70">
    <path d="M 73.832727 180.25754 
L 74.482686 177.889946 
L 74.807666 176.131194 
L 75.132645 172.301158 
L 76.107584 151.605976 
L 77.082523 136.211127 
L 78.057461 124.98408 
L 79.0324 116.790717 
L 80.007338 110.80313 
L 80.982277 106.417198 
L 81.957215 103.191649 
L 82.932154 100.802624 
L 83.907093 99.00939 
L 84.882031 97.62788 
L 86.181949 96.180143 
L 87.806847 94.744846 
L 89.106765 93.904105 
L 90.406683 93.323515 
L 92.031581 92.860025 
L 93.981458 92.542961 
L 96.906274 92.320618 
L 102.105946 92.204915 
L 118.679902 92.178339 
L 398.487273 92.178211 
L 398.487273 92.178211 
" clip-path="url(#pf35a4a335f)" style="fill: none; stroke: #e377c2; stroke-width: 1.5; stroke-linecap: square"/>
   </g>
   <g id="line2d_71">
    <path d="M 73.832727 177.276885 
L 74.157707 177.578798 
L 74.482686 178.259972 
L 74.807666 179.616 
L 75.132645 183.509433 
L 76.107584 207.111744 
L 77.082523 224.818247 
L 78.057461 237.729555 
L 79.0324 247.148782 
L 80.007338 254.026778 
L 80.982277 259.057167 
L 81.957215 262.746274 
L 82.932154 265.464899 
L 83.907093 267.486971 
L 84.882031 269.018853 
L 86.181949 270.568095 
L 87.481867 271.763732 
L 88.781785 272.655796 
L 90.081704 273.272997 
L 91.706601 273.765636 
L 93.656478 274.102333 
L 96.581294 274.338168 
L 101.455987 274.457581 
L 116.080066 274.488621 
L 398.487273 274.488902 
L 398.487273 274.488902 
" clip-path="url(#pf35a4a335f)" style="fill: none; stroke: #7f7f7f; stroke-width: 1.5; stroke-linecap: square"/>
   </g>
   <g id="line2d_72">
    <path d="M 73.832727 181.147113 
L 74.482686 179.063994 
L 74.807666 177.452166 
L 75.132645 174.428193 
L 76.432563 151.34824 
L 77.407502 138.848049 
L 78.382441 129.741545 
L 79.357379 123.114661 
L 80.332318 118.302009 
L 81.307256 114.81914 
L 82.282195 112.314195 
L 83.257133 110.533794 
L 84.232072 109.299595 
L 85.207011 108.492588 
L 86.181949 108.036918 
L 87.156888 107.859062 
L 88.781785 107.866106 
L 95.281376 108.060275 
L 108.930516 108.096667 
L 398.487273 108.097209 
L 398.487273 108.097209 
" clip-path="url(#pf35a4a335f)" style="fill: none; stroke: #bcbd22; stroke-width: 1.5; stroke-linecap: square"/>
   </g>
   <g id="line2d_73">
    <path d="M 73.832727 167.344048 
L 74.482686 168.581517 
L 74.807666 168.839765 
L 75.132645 168.748531 
L 75.457625 167.677449 
L 76.432563 163.494174 
L 77.407502 160.410677 
L 78.382441 158.17014 
L 79.357379 156.550845 
L 80.332318 155.392317 
L 81.307256 154.578312 
L 82.282195 154.025645 
L 83.257133 153.677416 
L 84.557052 153.475835 
L 85.85697 153.559567 
L 87.156888 153.916582 
L 89.756724 154.750626 
L 91.706601 155.115921 
L 94.306437 155.361976 
L 98.531171 155.504525 
L 108.930516 155.552869 
L 314.317576 155.55468 
L 398.487273 155.55468 
L 398.487273 155.55468 
" clip-path="url(#pf35a4a335f)" style="fill: none; stroke: #17becf; stroke-width: 1.5; stroke-linecap: square"/>
   </g>
   <g id="line2d_74">
    <path d="M 73.832727 182.484075 
L 74.157707 182.24326 
L 74.482686 182.483528 
L 74.807666 183.602965 
L 75.132645 187.385412 
L 76.432563 220.491783 
L 77.407502 238.283288 
L 78.382441 251.250382 
L 79.357379 260.697818 
L 80.332318 267.576302 
L 81.307256 272.578608 
L 82.282195 276.209152 
L 83.257133 278.834172 
L 84.232072 280.717637 
L 85.207011 282.046767 
L 86.181949 282.95288 
L 87.156888 283.540339 
L 88.456806 284.008846 
L 90.081704 284.337413 
L 92.68154 284.59383 
L 96.906274 284.73445 
L 107.630598 284.779811 
L 367.939197 284.7812 
L 398.487273 284.7812 
L 398.487273 284.7812 
" clip-path="url(#pf35a4a335f)" style="fill: none; stroke: #1f77b4; stroke-width: 1.5; stroke-linecap: square"/>
   </g>
   <g id="line2d_75">
    <path d="M 73.832727 170.089519 
L 74.482686 172.633833 
L 74.807666 174.845982 
L 75.132645 179.892522 
L 76.432563 217.193476 
L 77.407502 237.002857 
L 78.382441 251.446004 
L 79.357379 261.979109 
L 80.332318 269.664071 
L 81.307256 275.275233 
L 82.282195 279.377541 
L 83.257133 282.383922 
L 84.232072 284.5976 
L 85.207011 286.243425 
L 86.181949 287.489078 
L 87.481867 288.719779 
L 88.781785 289.579739 
L 90.081704 290.159531 
L 91.706601 290.617597 
L 93.656478 290.928962 
L 96.581294 291.146223 
L 101.780966 291.258662 
L 119.004881 291.284302 
L 398.487273 291.2844 
L 398.487273 291.2844 
" clip-path="url(#pf35a4a335f)" style="fill: none; stroke: #ff7f0e; stroke-width: 1.5; stroke-linecap: square"/>
   </g>
   <g id="line2d_76">
    <path d="M 73.832727 179.384563 
L 74.157707 179.45511 
L 74.482686 179.976443 
L 74.807666 181.350169 
L 75.132645 185.36749 
L 76.432563 219.234734 
L 77.407502 237.419638 
L 78.382441 250.673549 
L 79.357379 260.33013 
L 80.332318 267.361167 
L 81.307256 272.474804 
L 82.282195 276.186669 
L 83.257133 278.871188 
L 84.232072 280.798327 
L 85.207011 282.159733 
L 86.181949 283.09 
L 87.156888 283.695794 
L 88.456806 284.182008 
L 90.081704 284.524782 
L 92.35656 284.77081 
L 96.256314 284.928663 
L 105.030762 284.98593 
L 212.598984 284.989354 
L 398.487273 284.989354 
L 398.487273 284.989354 
" clip-path="url(#pf35a4a335f)" style="fill: none; stroke: #2ca02c; stroke-width: 1.5; stroke-linecap: square"/>
   </g>
   <g id="line2d_77">
    <path d="M 73.832727 179.691378 
L 74.157707 179.692356 
L 74.482686 180.047783 
L 74.807666 180.996164 
L 75.132645 184.206116 
L 76.107584 204.080868 
L 77.082523 218.923809 
L 78.057461 229.748316 
L 79.0324 237.647811 
L 80.007338 243.420476 
L 80.982277 247.648741 
L 81.957215 250.758021 
L 82.932154 253.060512 
L 83.907093 254.788229 
L 84.882031 256.118478 
L 86.181949 257.510791 
L 87.806847 258.888444 
L 89.106765 259.694517 
L 90.406683 260.250996 
L 92.031581 260.695181 
L 93.981458 260.999018 
L 96.906274 261.212075 
L 102.105946 261.322939 
L 119.329861 261.348425 
L 398.487273 261.348525 
L 398.487273 261.348525 
" clip-path="url(#pf35a4a335f)" style="fill: none; stroke: #d62728; stroke-width: 1.5; stroke-linecap: square"/>
   </g>
   <g id="line2d_78">
    <path d="M 73.832727 176.057054 
L 74.157707 176.208126 
L 74.482686 176.517635 
L 74.807666 177.061657 
L 75.132645 178.823604 
L 76.107584 188.537106 
L 77.082523 195.566968 
L 78.057461 200.697031 
L 79.0324 204.447989 
L 80.007338 207.200851 
L 80.982277 209.234102 
L 81.957215 210.751849 
L 82.932154 211.905614 
L 84.232072 213.075573 
L 86.506929 214.702093 
L 88.456806 215.950941 
L 89.756724 216.550083 
L 91.381622 217.041405 
L 93.331499 217.381351 
L 96.256314 217.62123 
L 101.131007 217.743502 
L 115.430106 217.775529 
L 398.487273 217.775857 
L 398.487273 217.775857 
" clip-path="url(#pf35a4a335f)" style="fill: none; stroke: #9467bd; stroke-width: 1.5; stroke-linecap: square"/>
   </g>
   <g id="line2d_79">
    <path d="M 73.832727 182.517857 
L 74.157707 182.220793 
L 74.482686 182.294269 
L 74.807666 182.960753 
L 75.132645 185.836665 
L 76.107584 204.387161 
L 77.082523 218.230594 
L 78.057461 228.326609 
L 79.0324 235.695344 
L 80.007338 241.081601 
L 80.982277 245.028912 
L 81.957215 247.934369 
L 82.932154 250.089596 
L 83.907093 251.711774 
L 84.882031 252.967695 
L 86.181949 254.297217 
L 87.806847 255.636513 
L 89.106765 256.428104 
L 90.406683 256.9761 
L 92.031581 257.414006 
L 94.306437 257.747934 
L 97.556233 257.94944 
L 103.405864 258.042132 
L 128.429287 258.058764 
L 398.487273 258.058769 
L 398.487273 258.058769 
" clip-path="url(#pf35a4a335f)" style="fill: none; stroke: #8c564b; stroke-width: 1.5; stroke-linecap: square"/>
   </g>
   <g id="line2d_80">
    <path d="M 73.832727 165.837482 
L 74.482686 167.090119 
L 74.807666 167.530171 
L 75.132645 167.297422 
L 75.782604 165.638712 
L 76.757543 164.127661 
L 77.732482 163.022086 
L 78.70742 162.206661 
L 80.007338 161.425628 
L 81.632236 160.748018 
L 86.831908 158.89762 
L 89.106765 157.835155 
L 90.731663 157.341796 
L 92.68154 156.994 
L 95.281376 156.764167 
L 99.831089 156.627642 
L 111.530352 156.587088 
L 398.487273 156.586109 
L 398.487273 156.586109 
" clip-path="url(#pf35a4a335f)" style="fill: none; stroke: #e377c2; stroke-width: 1.5; stroke-linecap: square"/>
   </g>
   <g id="line2d_81">
    <path d="M 73.832727 166.40922 
L 74.157707 166.835919 
L 74.482686 166.873408 
L 74.807666 166.192759 
L 75.132645 163.559138 
L 76.432563 138.696586 
L 77.407502 125.219619 
L 78.382441 115.400211 
L 79.357379 108.252019 
L 80.332318 103.056834 
L 81.307256 99.291617 
L 82.282195 96.576197 
L 83.257133 94.636127 
L 84.232072 93.276842 
L 85.207011 92.366006 
L 86.181949 91.81656 
L 87.156888 91.549302 
L 88.781785 91.430191 
L 94.956396 91.438427 
L 139.478591 91.449264 
L 398.487273 91.449264 
L 398.487273 91.449264 
" clip-path="url(#pf35a4a335f)" style="fill: none; stroke: #7f7f7f; stroke-width: 1.5; stroke-linecap: square"/>
   </g>
   <g id="line2d_82">
    <path d="M 73.832727 182.874435 
L 74.157707 182.644567 
L 74.482686 182.874745 
L 74.807666 183.884036 
L 75.132645 187.620059 
L 76.432563 218.636905 
L 77.407502 235.087128 
L 78.382441 247.083017 
L 79.357379 255.835073 
L 80.332318 262.226338 
L 81.307256 266.900924 
L 82.282195 270.329172 
L 83.257133 272.85584 
L 84.232072 274.736087 
L 85.207011 276.162532 
L 86.506929 277.605732 
L 87.806847 278.697654 
L 89.106765 279.484784 
L 90.406683 280.020361 
L 92.031581 280.445325 
L 94.306437 280.768024 
L 97.556233 280.962126 
L 103.730844 281.052696 
L 132.329042 281.067007 
L 398.487273 281.067008 
L 398.487273 281.067008 
" clip-path="url(#pf35a4a335f)" style="fill: none; stroke: #bcbd22; stroke-width: 1.5; stroke-linecap: square"/>
   </g>
   <g id="line2d_83">
    <path d="M 73.832727 169.624273 
L 74.807666 172.19131 
L 75.132645 174.181382 
L 76.107584 183.543375 
L 77.082523 190.266487 
L 78.057461 195.173023 
L 79.0324 198.761224 
L 80.007338 201.395761 
L 80.982277 203.343215 
L 81.957215 204.799037 
L 82.932154 205.908488 
L 84.232072 207.039248 
L 86.831908 208.857885 
L 88.781785 210.049877 
L 90.081704 210.598361 
L 91.706601 211.044049 
L 93.656478 211.351513 
L 96.581294 211.568264 
L 101.780966 211.681613 
L 118.679902 211.707833 
L 398.487273 211.707949 
L 398.487273 211.707949 
" clip-path="url(#pf35a4a335f)" style="fill: none; stroke: #17becf; stroke-width: 1.5; stroke-linecap: square"/>
   </g>
   <g id="line2d_84">
    <path d="M 73.832727 177.563159 
L 74.157707 176.633844 
L 74.482686 175.337942 
L 74.807666 173.319924 
L 75.132645 168.554279 
L 76.432563 133.213825 
L 77.407502 114.475578 
L 78.382441 100.812406 
L 79.357379 90.846216 
L 80.332318 83.5719 
L 81.307256 78.256431 
L 82.282195 74.36479 
L 83.257133 71.505424 
L 84.232072 69.389771 
L 85.207011 67.802091 
L 86.181949 66.57978 
L 87.481867 65.338123 
L 88.781785 64.449164 
L 90.081704 63.843876 
L 91.706601 63.363775 
L 93.656478 63.036741 
L 96.581294 62.808208 
L 101.455987 62.692763 
L 116.405045 62.662824 
L 398.487273 62.662582 
L 398.487273 62.662582 
" clip-path="url(#pf35a4a335f)" style="fill: none; stroke: #1f77b4; stroke-width: 1.5; stroke-linecap: square"/>
   </g>
   <g id="line2d_85">
    <path d="M 73.832727 180.831072 
L 74.157707 180.49169 
L 74.482686 180.349162 
L 74.807666 180.465464 
L 75.132645 181.777572 
L 76.107584 190.009518 
L 77.082523 195.937822 
L 78.057461 200.264892 
L 79.0324 203.430554 
L 80.007338 205.756879 
L 80.982277 207.479391 
L 81.957215 208.770886 
L 83.257133 210.040451 
L 84.882031 211.214337 
L 88.781785 213.61122 
L 90.406683 214.242997 
L 92.031581 214.631654 
L 94.306437 214.929814 
L 97.556233 215.11056 
L 104.055823 215.196935 
L 136.878755 215.209188 
L 398.487273 215.209188 
L 398.487273 215.209188 
" clip-path="url(#pf35a4a335f)" style="fill: none; stroke: #ff7f0e; stroke-width: 1.5; stroke-linecap: square"/>
   </g>
   <g id="line2d_86">
    <path d="M 73.832727 166.187441 
L 74.482686 169.332576 
L 74.807666 171.816607 
L 75.132645 176.9111 
L 76.432563 214.541326 
L 77.407502 234.670728 
L 78.382441 249.342581 
L 79.357379 260.033614 
L 80.332318 267.819974 
L 81.307256 273.485923 
L 82.282195 277.602665 
L 83.257133 280.585347 
L 84.232072 282.73404 
L 85.207011 284.263062 
L 86.181949 285.32425 
L 87.156888 286.035641 
L 88.456806 286.629958 
L 90.081704 287.062394 
L 92.35656 287.377531 
L 95.606355 287.56272 
L 102.105946 287.648719 
L 135.903817 287.660419 
L 398.487273 287.66042 
L 398.487273 287.66042 
" clip-path="url(#pf35a4a335f)" style="fill: none; stroke: #2ca02c; stroke-width: 1.5; stroke-linecap: square"/>
   </g>
   <g id="line2d_87">
    <path d="M 73.832727 180.505715 
L 74.157707 180.395671 
L 74.482686 180.62495 
L 74.807666 181.406096 
L 75.132645 184.311554 
L 76.107584 202.470494 
L 77.082523 215.997984 
L 78.057461 225.863802 
L 79.0324 233.064987 
L 80.007338 238.329537 
L 80.982277 242.18875 
L 81.957215 245.030826 
L 82.932154 247.140969 
L 83.907093 248.731821 
L 85.207011 250.323358 
L 86.831908 251.856159 
L 88.131826 252.843777 
L 89.431744 253.572893 
L 90.731663 254.072173 
L 92.35656 254.46979 
L 94.631417 254.772629 
L 97.881212 254.955306 
L 104.380803 255.042187 
L 137.203735 255.054426 
L 398.487273 255.054427 
L 398.487273 255.054427 
" clip-path="url(#pf35a4a335f)" style="fill: none; stroke: #d62728; stroke-width: 1.5; stroke-linecap: square"/>
   </g>
   <g id="line2d_88">
    <path d="M 73.832727 169.853983 
L 74.482686 171.078415 
L 74.807666 172.009202 
L 75.132645 173.54632 
L 76.757543 188.485159 
L 77.732482 194.647969 
L 78.70742 199.131553 
L 79.682359 202.383981 
L 80.657297 204.731017 
L 81.632236 206.409304 
L 82.607174 207.589291 
L 83.582113 208.390561 
L 84.557052 208.891209 
L 85.53199 209.13395 
L 86.506929 209.143017 
L 88.131826 208.828099 
L 90.731663 208.335716 
L 93.331499 208.091523 
L 97.556233 207.947471 
L 107.630598 207.898246 
L 287.019296 207.89616 
L 398.487273 207.89616 
L 398.487273 207.89616 
" clip-path="url(#pf35a4a335f)" style="fill: none; stroke: #9467bd; stroke-width: 1.5; stroke-linecap: square"/>
   </g>
   <g id="line2d_89">
    <path d="M 73.832727 178.021856 
L 74.482686 176.494286 
L 74.807666 175.095468 
L 75.132645 172.195274 
L 76.432563 149.0385 
L 77.407502 136.489511 
L 78.382441 127.347324 
L 79.357379 120.694216 
L 80.332318 115.86212 
L 81.307256 112.364621 
L 82.282195 109.848403 
L 83.257133 108.058967 
L 84.232072 106.817043 
L 85.207011 106.002749 
L 86.181949 105.539397 
L 87.156888 105.353185 
L 88.781785 105.3474 
L 95.931335 105.528127 
L 112.83027 105.555909 
L 398.487273 105.556059 
L 398.487273 105.556059 
" clip-path="url(#pf35a4a335f)" style="fill: none; stroke: #8c564b; stroke-width: 1.5; stroke-linecap: square"/>
   </g>
   <g id="line2d_90">
    <path d="M 73.832727 179.582924 
L 74.157707 179.681556 
L 74.482686 180.254831 
L 74.807666 181.715086 
L 75.132645 186.008623 
L 76.432563 221.767353 
L 77.407502 240.921054 
L 78.382441 254.882403 
L 79.357379 265.056976 
L 80.332318 272.469173 
L 81.307256 277.865615 
L 82.282195 281.790227 
L 83.257133 284.638672 
L 84.232072 286.697628 
L 85.207011 288.17305 
L 86.181949 289.21207 
L 87.156888 289.926971 
L 88.456806 290.544703 
L 90.081704 291.005514 
L 92.031581 291.310806 
L 94.956396 291.520888 
L 100.156069 291.628319 
L 118.029943 291.652451 
L 398.487273 291.652523 
L 398.487273 291.652523 
" clip-path="url(#pf35a4a335f)" style="fill: none; stroke: #e377c2; stroke-width: 1.5; stroke-linecap: square"/>
   </g>
   <g id="line2d_91">
    <path d="M 73.832727 166.310297 
L 74.482686 167.594785 
L 74.807666 167.773032 
L 75.132645 167.340907 
L 75.782604 163.153874 
L 76.757543 157.384553 
L 77.732482 153.182625 
L 78.70742 150.128617 
L 79.682359 147.918517 
L 80.657297 146.331584 
L 81.632236 145.20775 
L 82.607174 144.432408 
L 83.582113 143.926733 
L 84.557052 143.642436 
L 85.53199 143.558678 
L 86.506929 143.667243 
L 88.456806 144.210009 
L 90.406683 144.663689 
L 92.68154 144.958759 
L 95.931335 145.141951 
L 102.430925 145.230832 
L 134.278919 145.243659 
L 398.487273 145.243659 
L 398.487273 145.243659 
" clip-path="url(#pf35a4a335f)" style="fill: none; stroke: #7f7f7f; stroke-width: 1.5; stroke-linecap: square"/>
   </g>
   <g id="line2d_92">
    <path d="M 73.832727 181.584221 
L 74.482686 178.783604 
L 74.807666 176.495792 
L 75.132645 171.749562 
L 76.432563 136.165485 
L 77.407502 117.094348 
L 78.382441 103.194793 
L 79.357379 93.068346 
L 80.332318 85.696036 
L 81.307256 80.335366 
L 82.282195 76.445755 
L 83.257133 73.6348 
L 84.232072 71.619867 
L 85.207011 70.200831 
L 86.181949 69.237666 
L 87.156888 68.618494 
L 88.456806 68.130776 
L 90.081704 67.792262 
L 92.35656 67.551172 
L 96.256314 67.397154 
L 105.030762 67.341491 
L 215.84878 67.338183 
L 398.487273 67.338183 
L 398.487273 67.338183 
" clip-path="url(#pf35a4a335f)" style="fill: none; stroke: #bcbd22; stroke-width: 1.5; stroke-linecap: square"/>
   </g>
   <g id="line2d_93">
    <path d="M 73.832727 180.251147 
L 74.157707 179.985708 
L 74.482686 180.038687 
L 74.807666 180.702647 
L 75.132645 182.961328 
L 76.757543 208.545448 
L 77.732482 218.978762 
L 78.70742 226.576981 
L 79.682359 232.102524 
L 80.657297 236.110455 
L 81.632236 239.00471 
L 82.607174 241.078021 
L 83.582113 242.539858 
L 84.557052 243.535277 
L 85.53199 244.158059 
L 86.506929 244.470758 
L 87.806847 244.551982 
L 100.806028 244.249367 
L 154.752629 244.241944 
L 398.487273 244.241944 
L 398.487273 244.241944 
" clip-path="url(#pf35a4a335f)" style="fill: none; stroke: #17becf; stroke-width: 1.5; stroke-linecap: square"/>
   </g>
   <g id="line2d_94">
    <path d="M 73.832727 174.447738 
L 74.157707 173.835227 
L 74.482686 172.791716 
L 74.807666 170.898768 
L 75.132645 166.15234 
L 76.432563 128.724839 
L 77.407502 108.7188 
L 78.382441 94.135535 
L 79.357379 83.506508 
L 80.332318 75.761334 
L 81.307256 70.119811 
L 82.282195 66.013412 
L 83.257133 63.028258 
L 84.232072 60.863802 
L 85.207011 59.302974 
L 86.181949 58.189539 
L 87.156888 57.406248 
L 88.456806 56.710748 
L 89.756724 56.266094 
L 91.706601 55.87307 
L 94.306437 55.620743 
L 98.531171 55.479097 
L 108.930516 55.432698 
L 332.19145 55.431063 
L 398.487273 55.431063 
L 398.487273 55.431063 
" clip-path="url(#pf35a4a335f)" style="fill: none; stroke: #1f77b4; stroke-width: 1.5; stroke-linecap: square"/>
   </g>
   <g id="line2d_95">
    <path d="M 73.832727 168.990916 
L 74.157707 168.900345 
L 74.482686 168.319808 
L 74.807666 166.843053 
L 75.132645 162.393723 
L 76.432563 125.780445 
L 77.407502 106.233812 
L 78.382441 91.984145 
L 79.357379 81.595804 
L 80.332318 74.022172 
L 81.307256 68.500248 
L 82.282195 64.473764 
L 83.257133 61.537108 
L 84.232072 59.394402 
L 85.207011 57.829631 
L 86.181949 56.684999 
L 87.156888 55.846013 
L 88.456806 55.065202 
L 89.756724 54.551046 
L 91.381622 54.148752 
L 93.656478 53.845882 
L 96.906274 53.664931 
L 103.405864 53.579793 
L 137.203735 53.568 
L 398.487273 53.568 
L 398.487273 53.568 
" clip-path="url(#pf35a4a335f)" style="fill: none; stroke: #ff7f0e; stroke-width: 1.5; stroke-linecap: square"/>
   </g>
   <g id="line2d_96">
    <path d="M 73.832727 167.42522 
L 74.807666 169.559351 
L 75.457625 171.103295 
L 76.107584 171.672343 
L 77.407502 172.439565 
L 79.0324 173.058673 
L 81.307256 173.612889 
L 85.207011 174.503513 
L 86.831908 175.159006 
L 89.431744 176.29844 
L 91.056642 176.735752 
L 93.331499 177.077502 
L 96.581294 177.28643 
L 102.430925 177.383511 
L 126.154431 177.401151 
L 398.487273 177.401159 
L 398.487273 177.401159 
" clip-path="url(#pf35a4a335f)" style="fill: none; stroke: #2ca02c; stroke-width: 1.5; stroke-linecap: square"/>
   </g>
   <g id="line2d_97">
    <path d="M 73.832727 177.301514 
L 74.157707 176.428207 
L 74.482686 175.214068 
L 74.807666 173.338443 
L 75.132645 168.872087 
L 76.107584 143.159776 
L 77.082523 123.860359 
L 78.057461 109.78814 
L 79.0324 99.52329 
L 80.007338 92.029957 
L 80.982277 86.552601 
L 81.957215 82.53982 
L 82.932154 79.588123 
L 83.907093 77.400106 
L 84.882031 75.75295 
L 85.85697 74.476209 
L 87.156888 73.148956 
L 88.456806 72.15876 
L 89.756724 71.468636 
L 91.381622 70.916513 
L 93.331499 70.539025 
L 95.931335 70.293339 
L 100.156069 70.153889 
L 110.555414 70.107572 
L 330.241572 70.105896 
L 398.487273 70.105896 
L 398.487273 70.105896 
" clip-path="url(#pf35a4a335f)" style="fill: none; stroke: #d62728; stroke-width: 1.5; stroke-linecap: square"/>
   </g>
   <g id="line2d_98">
    <path d="M 73.832727 180.635341 
L 74.157707 180.2515 
L 74.482686 180.140624 
L 74.807666 180.552549 
L 75.132645 182.212078 
L 76.757543 202.543583 
L 77.732482 210.884841 
L 78.70742 216.957256 
L 79.682359 221.369257 
L 80.657297 224.563582 
L 81.632236 226.862217 
L 82.607174 228.497994 
L 83.582113 229.636357 
L 84.557052 230.389576 
L 85.53199 230.82644 
L 86.506929 230.990758 
L 87.806847 230.9158 
L 92.031581 230.465248 
L 96.256314 230.318891 
L 106.33068 230.267738 
L 276.294971 230.265522 
L 398.487273 230.265522 
L 398.487273 230.265522 
" clip-path="url(#pf35a4a335f)" style="fill: none; stroke: #9467bd; stroke-width: 1.5; stroke-linecap: square"/>
   </g>
   <g id="line2d_99">
    <path d="M 73.832727 182.799712 
L 74.157707 182.50955 
L 74.482686 182.694656 
L 74.807666 183.74714 
L 75.132645 187.392971 
L 76.432563 219.637807 
L 77.407502 236.982786 
L 78.382441 249.624019 
L 79.357379 258.833242 
L 80.332318 265.53704 
L 81.307256 270.410565 
L 82.282195 273.945315 
L 83.257133 276.497936 
L 84.232072 278.325043 
L 85.207011 279.607883 
L 86.181949 280.472803 
L 87.156888 281.021567 
L 88.456806 281.445393 
L 90.406683 281.774447 
L 93.331499 281.988282 
L 98.531171 282.094711 
L 116.730025 282.118047 
L 398.487273 282.118106 
L 398.487273 282.118106 
" clip-path="url(#pf35a4a335f)" style="fill: none; stroke: #8c564b; stroke-width: 1.5; stroke-linecap: square"/>
   </g>
   <g id="line2d_100">
    <path d="M 73.832727 181.310256 
L 74.157707 181.165379 
L 74.482686 181.403997 
L 74.807666 182.277097 
L 75.132645 185.503538 
L 76.107584 205.957753 
L 77.082523 221.260004 
L 78.057461 232.419179 
L 79.0324 240.562289 
L 80.007338 246.511961 
L 80.982277 250.868419 
L 81.957215 254.070017 
L 82.932154 256.438294 
L 83.907093 258.211892 
L 84.882031 259.572599 
L 86.181949 260.986262 
L 87.481867 262.123841 
L 88.781785 262.996369 
L 90.081704 263.606255 
L 91.706601 264.094979 
L 93.656478 264.429696 
L 96.581294 264.664483 
L 101.455987 264.783536 
L 116.080066 264.814544 
L 398.487273 264.814826 
L 398.487273 264.814826 
" clip-path="url(#pf35a4a335f)" style="fill: none; stroke: #e377c2; stroke-width: 1.5; stroke-linecap: square"/>
   </g>
   <g id="line2d_101">
    <path d="M 73.832727 169.073166 
L 74.482686 171.838723 
L 74.807666 174.196469 
L 75.132645 179.441299 
L 76.432563 218.30552 
L 77.407502 238.989648 
L 78.382441 254.069198 
L 79.357379 265.063773 
L 80.332318 273.081295 
L 81.307256 278.929526 
L 82.282195 283.197504 
L 83.257133 286.315059 
L 84.232072 288.596403 
L 85.207011 290.272082 
L 86.181949 291.511643 
L 87.156888 292.43621 
L 88.456806 293.312986 
L 89.756724 293.89683 
L 91.381622 294.35572 
L 93.331499 294.666708 
L 96.256314 294.883215 
L 101.455987 294.994993 
L 118.679902 295.020393 
L 398.487273 295.020489 
L 398.487273 295.020489 
" clip-path="url(#pf35a4a335f)" style="fill: none; stroke: #7f7f7f; stroke-width: 1.5; stroke-linecap: square"/>
   </g>
   <g id="line2d_102">
    <path d="M 73.832727 167.78645 
L 74.482686 170.740467 
L 74.807666 173.094953 
L 75.132645 178.212422 
L 76.432563 215.126748 
L 77.407502 234.703097 
L 78.382441 248.976891 
L 79.357379 259.387546 
L 80.332318 266.984819 
L 81.307256 272.53425 
L 82.282195 276.594483 
L 83.257133 279.574116 
L 84.232072 281.773768 
L 85.207011 283.417333 
L 86.181949 284.672732 
L 87.481867 285.93192 
L 88.781785 286.823618 
L 90.081704 287.428103 
L 91.706601 287.906727 
L 93.656478 288.23245 
L 96.581294 288.459916 
L 101.455987 288.574747 
L 116.730025 288.604523 
L 398.487273 288.604739 
L 398.487273 288.604739 
" clip-path="url(#pf35a4a335f)" style="fill: none; stroke: #bcbd22; stroke-width: 1.5; stroke-linecap: square"/>
   </g>
   <g id="line2d_103">
    <path d="M 73.832727 172.734389 
L 74.482686 173.728812 
L 74.807666 174.42935 
L 75.132645 176.153768 
L 76.107584 184.721512 
L 77.082523 190.85757 
L 78.057461 195.336158 
L 79.0324 198.612412 
L 80.007338 201.019587 
L 80.982277 202.801361 
L 81.957215 204.136492 
L 82.932154 205.158079 
L 84.232072 206.207815 
L 87.481867 208.363951 
L 89.106765 209.255599 
L 90.731663 209.841069 
L 92.68154 210.250645 
L 95.281376 210.520224 
L 99.18113 210.668625 
L 108.280557 210.724975 
L 224.948206 210.728186 
L 398.487273 210.728186 
L 398.487273 210.728186 
" clip-path="url(#pf35a4a335f)" style="fill: none; stroke: #17becf; stroke-width: 1.5; stroke-linecap: square"/>
   </g>
   <g id="line2d_104">
    <path d="M 73.832727 178.284527 
L 74.157707 177.264039 
L 74.482686 175.84663 
L 74.807666 173.61731 
L 75.132645 168.48954 
L 76.432563 129.787367 
L 77.407502 109.162749 
L 78.382441 94.127177 
L 79.357379 83.165805 
L 80.332318 75.174273 
L 81.307256 69.347472 
L 82.282195 65.098431 
L 83.257133 61.999125 
L 84.232072 59.737283 
L 85.207011 58.084838 
L 86.181949 56.875116 
L 87.156888 55.98731 
L 88.456806 55.159933 
L 89.756724 54.614662 
L 91.381622 54.18788 
L 93.656478 53.866516 
L 96.906274 53.674492 
L 103.080885 53.585524 
L 132.004062 53.571616 
L 398.487273 53.571615 
L 398.487273 53.571615 
" clip-path="url(#pf35a4a335f)" style="fill: none; stroke: #1f77b4; stroke-width: 1.5; stroke-linecap: square"/>
   </g>
   <g id="line2d_105">
    <path d="M 73.832727 166.364455 
L 74.482686 168.904486 
L 74.807666 170.811932 
L 75.132645 174.391745 
L 76.432563 201.139442 
L 77.407502 215.572962 
L 78.382441 226.08937 
L 79.357379 233.745048 
L 80.332318 239.309211 
L 81.307256 243.342048 
L 82.282195 246.250745 
L 83.257133 248.329271 
L 84.232072 249.786088 
L 85.207011 250.763071 
L 86.181949 251.353653 
L 87.156888 251.642657 
L 88.456806 251.764896 
L 92.35656 251.782003 
L 126.154431 251.762918 
L 398.487273 251.762917 
L 398.487273 251.762917 
" clip-path="url(#pf35a4a335f)" style="fill: none; stroke: #ff7f0e; stroke-width: 1.5; stroke-linecap: square"/>
   </g>
   <g id="line2d_106">
    <path d="M 73.832727 178.360004 
L 74.482686 176.875871 
L 74.807666 175.891854 
L 75.132645 173.72482 
L 76.107584 162.96936 
L 77.082523 155.176878 
L 78.057461 149.490871 
L 79.0324 145.334644 
L 80.007338 142.286361 
L 80.982277 140.037778 
L 81.957215 138.363095 
L 82.932154 137.094977 
L 84.232072 135.819347 
L 86.181949 134.324042 
L 88.456806 132.795001 
L 89.756724 132.178697 
L 91.381622 131.673992 
L 93.331499 131.325014 
L 95.931335 131.096283 
L 100.481048 130.961142 
L 112.505291 130.921133 
L 398.487273 130.920274 
L 398.487273 130.920274 
" clip-path="url(#pf35a4a335f)" style="fill: none; stroke: #2ca02c; stroke-width: 1.5; stroke-linecap: square"/>
   </g>
   <g id="line2d_107">
    <path d="M 73.832727 180.818134 
L 74.482686 177.908154 
L 74.807666 175.474342 
L 75.132645 170.174425 
L 76.432563 130.88775 
L 77.407502 109.947132 
L 78.382441 94.681589 
L 79.357379 83.553321 
L 80.332318 75.441296 
L 81.307256 69.528293 
L 82.282195 65.218592 
L 83.257133 62.077992 
L 84.232072 59.790128 
L 85.207011 58.124652 
L 86.181949 56.913926 
L 87.156888 56.035274 
L 88.456806 55.226499 
L 89.756724 54.697491 
L 91.381622 54.284714 
L 93.656478 53.974404 
L 96.906274 53.789194 
L 103.080885 53.703476 
L 133.30398 53.690098 
L 398.487273 53.690097 
L 398.487273 53.690097 
" clip-path="url(#pf35a4a335f)" style="fill: none; stroke: #d62728; stroke-width: 1.5; stroke-linecap: square"/>
   </g>
   <g id="line2d_108">
    <path d="M 73.832727 175.441612 
L 74.157707 175.072985 
L 74.482686 174.470398 
L 74.807666 173.350029 
L 75.132645 170.817888 
L 76.757543 145.340709 
L 77.732482 134.963196 
L 78.70742 127.405935 
L 79.682359 121.910745 
L 80.657297 117.925679 
L 81.632236 115.049099 
L 82.607174 112.99001 
L 83.582113 111.540356 
L 84.557052 110.556386 
L 85.53199 109.945713 
L 86.506929 109.647006 
L 87.806847 109.586334 
L 97.556233 109.929569 
L 117.055004 109.952527 
L 398.487273 109.952579 
L 398.487273 109.952579 
" clip-path="url(#pf35a4a335f)" style="fill: none; stroke: #9467bd; stroke-width: 1.5; stroke-linecap: square"/>
   </g>
   <g id="line2d_109">
    <path d="M 73.832727 180.025727 
L 74.482686 178.22408 
L 74.807666 176.775188 
L 75.132645 174.019512 
L 76.757543 148.307991 
L 77.732482 137.846535 
L 78.70742 130.228216 
L 79.682359 124.688756 
L 80.657297 120.671774 
L 81.632236 117.772415 
L 82.607174 115.697371 
L 83.582113 114.236965 
L 84.557052 113.246404 
L 85.53199 112.63275 
L 86.506929 112.334379 
L 87.806847 112.277708 
L 96.906274 112.630692 
L 113.15525 112.659656 
L 398.487273 112.659837 
L 398.487273 112.659837 
" clip-path="url(#pf35a4a335f)" style="fill: none; stroke: #8c564b; stroke-width: 1.5; stroke-linecap: square"/>
   </g>
   <g id="line2d_110">
    <path d="M 73.832727 179.077685 
L 74.157707 179.158809 
L 74.482686 179.677512 
L 74.807666 181.029316 
L 75.132645 184.940575 
L 76.432563 217.983815 
L 77.407502 235.741487 
L 78.382441 248.683556 
L 79.357379 258.112056 
L 80.332318 264.975657 
L 81.307256 269.965608 
L 82.282195 273.585139 
L 83.257133 276.199439 
L 84.232072 278.071337 
L 85.207011 279.386574 
L 86.181949 280.274748 
L 87.156888 280.84004 
L 88.456806 281.278723 
L 90.406683 281.620799 
L 93.331499 281.843605 
L 98.531171 281.954637 
L 116.080066 281.978998 
L 398.487273 281.979074 
L 398.487273 281.979074 
" clip-path="url(#pf35a4a335f)" style="fill: none; stroke: #e377c2; stroke-width: 1.5; stroke-linecap: square"/>
   </g>
   <g id="line2d_111">
    <path d="M 73.832727 180.864109 
L 74.157707 180.816606 
L 74.482686 181.192303 
L 74.807666 182.292523 
L 75.132645 186.006577 
L 76.432563 216.030534 
L 77.407502 231.927692 
L 78.382441 243.520856 
L 79.357379 251.980209 
L 80.332318 258.159469 
L 81.307256 262.681421 
L 82.282195 266.000954 
L 83.257133 268.451799 
L 84.232072 270.28155 
L 85.207011 271.678141 
L 86.506929 273.109148 
L 87.806847 274.211172 
L 89.106765 275.013757 
L 90.406683 275.561863 
L 92.031581 275.997431 
L 94.306437 276.328483 
L 97.556233 276.527749 
L 103.730844 276.620797 
L 131.354103 276.635515 
L 398.487273 276.635517 
L 398.487273 276.635517 
" clip-path="url(#pf35a4a335f)" style="fill: none; stroke: #7f7f7f; stroke-width: 1.5; stroke-linecap: square"/>
   </g>
   <g id="line2d_112">
    <path d="M 73.832727 166.084152 
L 74.157707 166.309825 
L 74.482686 166.061241 
L 74.807666 165.003295 
L 75.132645 161.143591 
L 76.432563 129.00673 
L 77.407502 111.943911 
L 78.382441 99.501866 
L 79.357379 90.425377 
L 80.332318 83.798875 
L 81.307256 78.954577 
L 82.282195 75.404973 
L 83.257133 72.793011 
L 84.232072 70.855009 
L 85.207011 69.3929 
L 86.506929 67.930983 
L 87.806847 66.843537 
L 89.106765 66.067513 
L 90.406683 65.541434 
L 92.031581 65.124646 
L 94.306437 64.808445 
L 97.556233 64.618386 
L 103.730844 64.529769 
L 132.654021 64.515781 
L 398.487273 64.51578 
L 398.487273 64.51578 
" clip-path="url(#pf35a4a335f)" style="fill: none; stroke: #bcbd22; stroke-width: 1.5; stroke-linecap: square"/>
   </g>
   <g id="line2d_113">
    <path d="M 73.832727 180.65232 
L 74.157707 180.557462 
L 74.482686 180.906276 
L 74.807666 182.086231 
L 75.132645 185.762307 
L 76.432563 217.601094 
L 77.407502 234.733261 
L 78.382441 247.219015 
L 79.357379 256.314241 
L 80.332318 262.933917 
L 81.307256 267.744699 
L 82.282195 271.231818 
L 83.257133 273.747177 
L 84.232072 275.543584 
L 85.207011 276.798894 
L 86.181949 277.636381 
L 87.156888 278.156577 
L 88.456806 278.545189 
L 90.406683 278.837544 
L 93.331499 279.024331 
L 99.18113 279.120306 
L 124.204554 279.136477 
L 398.487273 279.136481 
L 398.487273 279.136481 
" clip-path="url(#pf35a4a335f)" style="fill: none; stroke: #17becf; stroke-width: 1.5; stroke-linecap: square"/>
   </g>
   <g id="patch_3">
    <path d="M 57.6 307.584 
L 57.6 41.472 
" style="fill: none; stroke: #000000; stroke-width: 0.8; stroke-linejoin: miter; stroke-linecap: square"/>
   </g>
   <g id="patch_4">
    <path d="M 414.72 307.584 
L 414.72 41.472 
" style="fill: none; stroke: #000000; stroke-width: 0.8; stroke-linejoin: miter; stroke-linecap: square"/>
   </g>
   <g id="patch_5">
    <path d="M 57.6 307.584 
L 414.72 307.584 
" style="fill: none; stroke: #000000; stroke-width: 0.8; stroke-linejoin: miter; stroke-linecap: square"/>
   </g>
   <g id="patch_6">
    <path d="M 57.6 41.472 
L 414.72 41.472 
" style="fill: none; stroke: #000000; stroke-width: 0.8; stroke-linejoin: miter; stroke-linecap: square"/>
   </g>
  </g>
 </g>
 <defs>
  <clipPath id="pf35a4a335f">
   <rect x="57.6" y="41.472" width="357.12" height="266.112"/>
  </clipPath>
 </defs>
</svg>
