<?xml version="1.0" encoding="utf-8" standalone="no"?>
<!DOCTYPE svg PUBLIC "-//W3C//DTD SVG 1.1//EN"
  "http://www.w3.org/Graphics/SVG/1.1/DTD/svg11.dtd">
<svg xmlns:xlink="http://www.w3.org/1999/xlink" width="460.8pt" height="345.6pt" viewBox="0 0 460.8 345.6" xmlns="http://www.w3.org/2000/svg" version="1.1">
 <metadata>
  <rdf:RDF xmlns:dc="http://purl.org/dc/elements/1.1/" xmlns:cc="http://creativecommons.org/ns#" xmlns:rdf="http://www.w3.org/1999/02/22-rdf-syntax-ns#">
   <cc:Work>
    <dc:type rdf:resource="http://purl.org/dc/dcmitype/StillImage"/>
    <dc:date>2024-04-22T17:46:11.277809</dc:date>
    <dc:format>image/svg+xml</dc:format>
    <dc:creator>
     <cc:Agent>
      <dc:title>Matplotlib v3.8.3, https://matplotlib.org/</dc:title>
     </cc:Agent>
    </dc:creator>
   </cc:Work>
  </rdf:RDF>
 </metadata>
 <defs>
  <style type="text/css">*{stroke-linejoin: round; stroke-linecap: butt}</style>
 </defs>
 <g id="figure_1">
  <g id="patch_1">
   <path d="M 0 345.6 
L 460.8 345.6 
L 460.8 0 
L 0 0 
z
" style="fill: #ffffff"/>
  </g>
  <g id="axes_1">
   <g id="patch_2">
    <path d="M 65.41 145.23 
L 246.863512 145.23 
L 246.863512 27.6 
L 65.41 27.6 
z
" style="fill: #ffffff"/>
   </g>
   <g id="matplotlib.axis_1">
    <g id="xtick_1">
     <g id="line2d_1">
      <defs>
       <path id="ma94b806ffc" d="M 0 0 
L 0 3.5 
" style="stroke: #000000; stroke-width: 0.8"/>
      </defs>
      <g>
       <use xlink:href="#ma94b806ffc" x="73.657887" y="145.23" style="stroke: #000000; stroke-width: 0.8"/>
      </g>
     </g>
    </g>
    <g id="xtick_2">
     <g id="line2d_2">
      <g>
       <use xlink:href="#ma94b806ffc" x="106.649435" y="145.23" style="stroke: #000000; stroke-width: 0.8"/>
      </g>
     </g>
    </g>
    <g id="xtick_3">
     <g id="line2d_3">
      <g>
       <use xlink:href="#ma94b806ffc" x="139.640982" y="145.23" style="stroke: #000000; stroke-width: 0.8"/>
      </g>
     </g>
    </g>
    <g id="xtick_4">
     <g id="line2d_4">
      <g>
       <use xlink:href="#ma94b806ffc" x="172.63253" y="145.23" style="stroke: #000000; stroke-width: 0.8"/>
      </g>
     </g>
    </g>
    <g id="xtick_5">
     <g id="line2d_5">
      <g>
       <use xlink:href="#ma94b806ffc" x="205.624078" y="145.23" style="stroke: #000000; stroke-width: 0.8"/>
      </g>
     </g>
    </g>
    <g id="xtick_6">
     <g id="line2d_6">
      <g>
       <use xlink:href="#ma94b806ffc" x="238.615625" y="145.23" style="stroke: #000000; stroke-width: 0.8"/>
      </g>
     </g>
    </g>
   </g>
   <g id="matplotlib.axis_2">
    <g id="ytick_1">
     <g id="line2d_7">
      <defs>
       <path id="me39520834e" d="M 0 0 
L -3.5 0 
" style="stroke: #000000; stroke-width: 0.8"/>
      </defs>
      <g>
       <use xlink:href="#me39520834e" x="65.41" y="139.883182" style="stroke: #000000; stroke-width: 0.8"/>
      </g>
     </g>
     <g id="text_1">
      <!-- −50 -->
      <g transform="translate(37.305313 143.682401) scale(0.1 -0.1)">
       <defs>
        <path id="DejaVuSans-2212" d="M 678 2272 
L 4684 2272 
L 4684 1741 
L 678 1741 
L 678 2272 
z
" transform="scale(0.015625)"/>
        <path id="DejaVuSans-35" d="M 691 4666 
L 3169 4666 
L 3169 4134 
L 1269 4134 
L 1269 2991 
Q 1406 3038 1543 3061 
Q 1681 3084 1819 3084 
Q 2600 3084 3056 2656 
Q 3513 2228 3513 1497 
Q 3513 744 3044 326 
Q 2575 -91 1722 -91 
Q 1428 -91 1123 -41 
Q 819 9 494 109 
L 494 744 
Q 775 591 1075 516 
Q 1375 441 1709 441 
Q 2250 441 2565 725 
Q 2881 1009 2881 1497 
Q 2881 1984 2565 2268 
Q 2250 2553 1709 2553 
Q 1456 2553 1204 2497 
Q 953 2441 691 2322 
L 691 4666 
z
" transform="scale(0.015625)"/>
        <path id="DejaVuSans-30" d="M 2034 4250 
Q 1547 4250 1301 3770 
Q 1056 3291 1056 2328 
Q 1056 1369 1301 889 
Q 1547 409 2034 409 
Q 2525 409 2770 889 
Q 3016 1369 3016 2328 
Q 3016 3291 2770 3770 
Q 2525 4250 2034 4250 
z
M 2034 4750 
Q 2819 4750 3233 4129 
Q 3647 3509 3647 2328 
Q 3647 1150 3233 529 
Q 2819 -91 2034 -91 
Q 1250 -91 836 529 
Q 422 1150 422 2328 
Q 422 3509 836 4129 
Q 1250 4750 2034 4750 
z
" transform="scale(0.015625)"/>
       </defs>
       <use xlink:href="#DejaVuSans-2212"/>
       <use xlink:href="#DejaVuSans-35" x="83.789062"/>
       <use xlink:href="#DejaVuSans-30" x="147.412109"/>
      </g>
     </g>
    </g>
    <g id="ytick_2">
     <g id="line2d_8">
      <g>
       <use xlink:href="#me39520834e" x="65.41" y="115.798415" style="stroke: #000000; stroke-width: 0.8"/>
      </g>
     </g>
     <g id="text_2">
      <!-- −25 -->
      <g transform="translate(37.305313 119.597634) scale(0.1 -0.1)">
       <defs>
        <path id="DejaVuSans-32" d="M 1228 531 
L 3431 531 
L 3431 0 
L 469 0 
L 469 531 
Q 828 903 1448 1529 
Q 2069 2156 2228 2338 
Q 2531 2678 2651 2914 
Q 2772 3150 2772 3378 
Q 2772 3750 2511 3984 
Q 2250 4219 1831 4219 
Q 1534 4219 1204 4116 
Q 875 4013 500 3803 
L 500 4441 
Q 881 4594 1212 4672 
Q 1544 4750 1819 4750 
Q 2544 4750 2975 4387 
Q 3406 4025 3406 3419 
Q 3406 3131 3298 2873 
Q 3191 2616 2906 2266 
Q 2828 2175 2409 1742 
Q 1991 1309 1228 531 
z
" transform="scale(0.015625)"/>
       </defs>
       <use xlink:href="#DejaVuSans-2212"/>
       <use xlink:href="#DejaVuSans-32" x="83.789062"/>
       <use xlink:href="#DejaVuSans-35" x="147.412109"/>
      </g>
     </g>
    </g>
    <g id="ytick_3">
     <g id="line2d_9">
      <g>
       <use xlink:href="#me39520834e" x="65.41" y="91.713649" style="stroke: #000000; stroke-width: 0.8"/>
      </g>
     </g>
     <g id="text_3">
      <!-- 0 -->
      <g transform="translate(52.0475 95.512867) scale(0.1 -0.1)">
       <use xlink:href="#DejaVuSans-30"/>
      </g>
     </g>
    </g>
    <g id="ytick_4">
     <g id="line2d_10">
      <g>
       <use xlink:href="#me39520834e" x="65.41" y="67.628882" style="stroke: #000000; stroke-width: 0.8"/>
      </g>
     </g>
     <g id="text_4">
      <!-- 25 -->
      <g transform="translate(45.685 71.428101) scale(0.1 -0.1)">
       <use xlink:href="#DejaVuSans-32"/>
       <use xlink:href="#DejaVuSans-35" x="63.623047"/>
      </g>
     </g>
    </g>
    <g id="ytick_5">
     <g id="line2d_11">
      <g>
       <use xlink:href="#me39520834e" x="65.41" y="43.544115" style="stroke: #000000; stroke-width: 0.8"/>
      </g>
     </g>
     <g id="text_5">
      <!-- 50 -->
      <g transform="translate(45.685 47.343334) scale(0.1 -0.1)">
       <use xlink:href="#DejaVuSans-35"/>
       <use xlink:href="#DejaVuSans-30" x="63.623047"/>
      </g>
     </g>
    </g>
   </g>
   <g id="line2d_12">
    <path d="M 73.657887 124.468931 
L 75.804484 120.472053 
L 77.951081 116.962305 
L 80.097679 113.885562 
L 82.244276 111.192404 
L 84.390873 108.835539 
L 86.702593 106.621712 
L 89.179436 104.563584 
L 91.821402 102.65665 
L 94.463367 101.003342 
L 97.270456 99.514022 
L 100.903159 97.872469 
L 105.196353 95.900682 
L 107.177828 94.743556 
L 108.498811 93.750787 
L 109.654671 92.615075 
L 110.645408 91.341293 
L 111.636145 89.671131 
L 112.957128 86.92852 
L 118.24106 75.354444 
L 120.387657 71.47482 
L 122.534254 68.066666 
L 124.680851 65.075246 
L 126.827448 62.444098 
L 129.139168 59.967387 
L 131.450888 57.817723 
L 133.927731 55.830443 
L 136.404574 54.123603 
L 139.04654 52.562626 
L 141.853629 51.149319 
L 144.82584 49.891623 
L 148.128297 48.73923 
L 151.761 47.71644 
L 155.889072 46.796353 
L 160.512512 45.996458 
L 165.631321 45.33904 
L 171.740867 44.789967 
L 179.831887 44.306705 
L 189.24389 43.971751 
L 202.949087 43.73549 
L 222.763831 43.6032 
L 238.615625 43.569281 
L 238.615625 43.569281 
" clip-path="url(#p38411337be)" style="fill: none; stroke: #1f77b4; stroke-width: 1.5; stroke-linecap: square"/>
   </g>
   <g id="line2d_13">
    <path d="M 73.657887 139.883182 
L 75.639361 134.43085 
L 77.620836 129.59205 
L 79.60231 125.309113 
L 81.583784 121.529844 
L 83.565259 118.199274 
L 85.711856 115.030453 
L 87.858453 112.243307 
L 90.335296 109.395735 
L 92.977262 106.683179 
L 95.619227 104.296501 
L 98.426316 102.080911 
L 102.554388 99.162736 
L 105.856845 96.714694 
L 108.003442 94.84879 
L 109.324425 93.43883 
L 110.480285 91.890616 
L 111.471022 90.198916 
L 112.792005 87.445458 
L 118.24106 75.449184 
L 120.387657 71.55794 
L 122.534254 68.139676 
L 124.680851 65.139316 
L 126.827448 62.500336 
L 129.139168 60.016255 
L 131.450888 57.860195 
L 133.927731 55.867002 
L 136.404574 54.155083 
L 139.04654 52.589461 
L 141.853629 51.171948 
L 144.82584 49.91051 
L 148.128297 48.754688 
L 151.761 47.728855 
L 155.889072 46.80603 
L 160.512512 46.003755 
L 165.631321 45.344381 
L 171.740867 44.793675 
L 179.666764 44.316864 
L 189.078767 43.977248 
L 202.618842 43.740171 
L 222.268462 43.60463 
L 238.615625 43.569356 
L 238.615625 43.569356 
" clip-path="url(#p38411337be)" style="fill: none; stroke: #ff7f0e; stroke-width: 1.5; stroke-linecap: square"/>
   </g>
   <g id="patch_3">
    <path d="M 65.41 145.23 
L 65.41 27.6 
" style="fill: none; stroke: #000000; stroke-width: 0.8; stroke-linejoin: miter; stroke-linecap: square"/>
   </g>
   <g id="patch_4">
    <path d="M 246.863512 145.23 
L 246.863512 27.6 
" style="fill: none; stroke: #000000; stroke-width: 0.8; stroke-linejoin: miter; stroke-linecap: square"/>
   </g>
   <g id="patch_5">
    <path d="M 65.41 145.23 
L 246.863512 145.23 
" style="fill: none; stroke: #000000; stroke-width: 0.8; stroke-linejoin: miter; stroke-linecap: square"/>
   </g>
   <g id="patch_6">
    <path d="M 65.41 27.6 
L 246.863512 27.6 
" style="fill: none; stroke: #000000; stroke-width: 0.8; stroke-linejoin: miter; stroke-linecap: square"/>
   </g>
   <g id="text_6">
    <!-- $x_0=-34, y_0=-50$ -->
    <g transform="translate(95.536756 21.6) scale(0.12 -0.12)">
     <defs>
      <path id="DejaVuSans-Oblique-78" d="M 3841 3500 
L 2234 1784 
L 3219 0 
L 2559 0 
L 1819 1388 
L 531 0 
L -166 0 
L 1556 1844 
L 641 3500 
L 1300 3500 
L 1972 2234 
L 3144 3500 
L 3841 3500 
z
" transform="scale(0.015625)"/>
      <path id="DejaVuSans-3d" d="M 678 2906 
L 4684 2906 
L 4684 2381 
L 678 2381 
L 678 2906 
z
M 678 1631 
L 4684 1631 
L 4684 1100 
L 678 1100 
L 678 1631 
z
" transform="scale(0.015625)"/>
      <path id="DejaVuSans-33" d="M 2597 2516 
Q 3050 2419 3304 2112 
Q 3559 1806 3559 1356 
Q 3559 666 3084 287 
Q 2609 -91 1734 -91 
Q 1441 -91 1130 -33 
Q 819 25 488 141 
L 488 750 
Q 750 597 1062 519 
Q 1375 441 1716 441 
Q 2309 441 2620 675 
Q 2931 909 2931 1356 
Q 2931 1769 2642 2001 
Q 2353 2234 1838 2234 
L 1294 2234 
L 1294 2753 
L 1863 2753 
Q 2328 2753 2575 2939 
Q 2822 3125 2822 3475 
Q 2822 3834 2567 4026 
Q 2313 4219 1838 4219 
Q 1578 4219 1281 4162 
Q 984 4106 628 3988 
L 628 4550 
Q 988 4650 1302 4700 
Q 1616 4750 1894 4750 
Q 2613 4750 3031 4423 
Q 3450 4097 3450 3541 
Q 3450 3153 3228 2886 
Q 3006 2619 2597 2516 
z
" transform="scale(0.015625)"/>
      <path id="DejaVuSans-34" d="M 2419 4116 
L 825 1625 
L 2419 1625 
L 2419 4116 
z
M 2253 4666 
L 3047 4666 
L 3047 1625 
L 3713 1625 
L 3713 1100 
L 3047 1100 
L 3047 0 
L 2419 0 
L 2419 1100 
L 313 1100 
L 313 1709 
L 2253 4666 
z
" transform="scale(0.015625)"/>
      <path id="DejaVuSans-2c" d="M 750 794 
L 1409 794 
L 1409 256 
L 897 -744 
L 494 -744 
L 750 256 
L 750 794 
z
" transform="scale(0.015625)"/>
      <path id="DejaVuSans-Oblique-79" d="M 1588 -325 
Q 1188 -997 936 -1164 
Q 684 -1331 294 -1331 
L -159 -1331 
L -63 -850 
L 269 -850 
Q 509 -850 678 -719 
Q 847 -588 1056 -206 
L 1234 128 
L 459 3500 
L 1069 3500 
L 1650 819 
L 3256 3500 
L 3859 3500 
L 1588 -325 
z
" transform="scale(0.015625)"/>
     </defs>
     <use xlink:href="#DejaVuSans-Oblique-78" transform="translate(0 0.78125)"/>
     <use xlink:href="#DejaVuSans-30" transform="translate(59.179688 -15.625) scale(0.7)"/>
     <use xlink:href="#DejaVuSans-3d" transform="translate(125.932617 0.78125)"/>
     <use xlink:href="#DejaVuSans-2212" transform="translate(248.686523 0.78125)"/>
     <use xlink:href="#DejaVuSans-33" transform="translate(351.958008 0.78125)"/>
     <use xlink:href="#DejaVuSans-34" transform="translate(415.581055 0.78125)"/>
     <use xlink:href="#DejaVuSans-2c" transform="translate(479.204102 0.78125)"/>
     <use xlink:href="#DejaVuSans-Oblique-79" transform="translate(530.473633 0.78125)"/>
     <use xlink:href="#DejaVuSans-30" transform="translate(589.65332 -15.625) scale(0.7)"/>
     <use xlink:href="#DejaVuSans-3d" transform="translate(656.40625 0.78125)"/>
     <use xlink:href="#DejaVuSans-2212" transform="translate(779.160156 0.78125)"/>
     <use xlink:href="#DejaVuSans-35" transform="translate(882.431641 0.78125)"/>
     <use xlink:href="#DejaVuSans-30" transform="translate(946.054688 0.78125)"/>
    </g>
   </g>
  </g>
  <g id="axes_2">
   <g id="patch_7">
    <path d="M 264.855 145.23 
L 446.308512 145.23 
L 446.308512 27.6 
L 264.855 27.6 
z
" style="fill: #ffffff"/>
   </g>
   <g id="matplotlib.axis_3">
    <g id="xtick_7">
     <g id="line2d_14">
      <g>
       <use xlink:href="#ma94b806ffc" x="273.102887" y="145.23" style="stroke: #000000; stroke-width: 0.8"/>
      </g>
     </g>
    </g>
    <g id="xtick_8">
     <g id="line2d_15">
      <g>
       <use xlink:href="#ma94b806ffc" x="306.094435" y="145.23" style="stroke: #000000; stroke-width: 0.8"/>
      </g>
     </g>
    </g>
    <g id="xtick_9">
     <g id="line2d_16">
      <g>
       <use xlink:href="#ma94b806ffc" x="339.085982" y="145.23" style="stroke: #000000; stroke-width: 0.8"/>
      </g>
     </g>
    </g>
    <g id="xtick_10">
     <g id="line2d_17">
      <g>
       <use xlink:href="#ma94b806ffc" x="372.07753" y="145.23" style="stroke: #000000; stroke-width: 0.8"/>
      </g>
     </g>
    </g>
    <g id="xtick_11">
     <g id="line2d_18">
      <g>
       <use xlink:href="#ma94b806ffc" x="405.069078" y="145.23" style="stroke: #000000; stroke-width: 0.8"/>
      </g>
     </g>
    </g>
    <g id="xtick_12">
     <g id="line2d_19">
      <g>
       <use xlink:href="#ma94b806ffc" x="438.060625" y="145.23" style="stroke: #000000; stroke-width: 0.8"/>
      </g>
     </g>
    </g>
   </g>
   <g id="matplotlib.axis_4">
    <g id="ytick_6">
     <g id="line2d_20">
      <g>
       <use xlink:href="#me39520834e" x="264.855" y="139.883182" style="stroke: #000000; stroke-width: 0.8"/>
      </g>
     </g>
    </g>
    <g id="ytick_7">
     <g id="line2d_21">
      <g>
       <use xlink:href="#me39520834e" x="264.855" y="115.798415" style="stroke: #000000; stroke-width: 0.8"/>
      </g>
     </g>
    </g>
    <g id="ytick_8">
     <g id="line2d_22">
      <g>
       <use xlink:href="#me39520834e" x="264.855" y="91.713649" style="stroke: #000000; stroke-width: 0.8"/>
      </g>
     </g>
    </g>
    <g id="ytick_9">
     <g id="line2d_23">
      <g>
       <use xlink:href="#me39520834e" x="264.855" y="67.628882" style="stroke: #000000; stroke-width: 0.8"/>
      </g>
     </g>
    </g>
    <g id="ytick_10">
     <g id="line2d_24">
      <g>
       <use xlink:href="#me39520834e" x="264.855" y="43.544115" style="stroke: #000000; stroke-width: 0.8"/>
      </g>
     </g>
    </g>
   </g>
   <g id="line2d_25">
    <path d="M 273.102887 117.725197 
L 275.084361 109.328492 
L 277.065836 101.87735 
L 279.04731 95.269684 
L 281.028784 89.414173 
L 283.010259 84.226143 
L 284.991733 79.627567 
L 286.973207 75.547066 
L 289.119804 71.640449 
L 291.266402 68.209773 
L 293.412999 65.199662 
L 295.559596 62.559125 
L 297.871316 60.07542 
L 300.183036 57.913746 
L 302.659879 55.905938 
L 305.136722 54.1786 
L 307.778688 52.604635 
L 310.585776 51.191223 
L 313.723111 49.872458 
L 317.190691 48.670868 
L 320.823394 47.651677 
L 324.786343 46.773046 
L 329.24466 46.014786 
L 334.693714 45.323757 
L 340.968383 44.753201 
L 348.233789 44.324078 
L 358.306283 43.973711 
L 371.350989 43.733437 
L 394.798436 43.588474 
L 438.060625 43.549795 
L 438.060625 43.549795 
" clip-path="url(#p34033e9680)" style="fill: none; stroke: #1f77b4; stroke-width: 1.5; stroke-linecap: square"/>
   </g>
   <g id="line2d_26">
    <path d="M 273.102887 55.104803 
L 276.075098 61.413634 
L 277.561204 64.305578 
L 278.551941 65.811263 
L 279.377556 66.71299 
L 280.038047 67.175308 
L 280.698539 67.397125 
L 281.35903 67.378379 
L 282.019521 67.127831 
L 282.845136 66.5163 
L 283.835873 65.418656 
L 285.321979 63.322264 
L 286.808084 61.271557 
L 288.29419 59.732016 
L 290.60591 57.615832 
L 293.082753 55.653232 
L 295.559596 53.965581 
L 298.201562 52.424994 
L 301.173773 50.959791 
L 304.311108 49.67233 
L 307.613565 48.55983 
L 311.246268 47.5716 
L 315.374339 46.682363 
L 319.99778 45.911639 
L 325.281711 45.261664 
L 331.55638 44.723437 
L 339.6474 44.263032 
L 349.389649 43.943665 
L 364.580952 43.701771 
L 386.872538 43.588155 
L 437.400134 43.547355 
L 438.060625 43.547228 
L 438.060625 43.547228 
" clip-path="url(#p34033e9680)" style="fill: none; stroke: #ff7f0e; stroke-width: 1.5; stroke-linecap: square"/>
   </g>
   <g id="patch_8">
    <path d="M 264.855 145.23 
L 264.855 27.6 
" style="fill: none; stroke: #000000; stroke-width: 0.8; stroke-linejoin: miter; stroke-linecap: square"/>
   </g>
   <g id="patch_9">
    <path d="M 446.308512 145.23 
L 446.308512 27.6 
" style="fill: none; stroke: #000000; stroke-width: 0.8; stroke-linejoin: miter; stroke-linecap: square"/>
   </g>
   <g id="patch_10">
    <path d="M 264.855 145.23 
L 446.308512 145.23 
" style="fill: none; stroke: #000000; stroke-width: 0.8; stroke-linejoin: miter; stroke-linecap: square"/>
   </g>
   <g id="patch_11">
    <path d="M 264.855 27.6 
L 446.308512 27.6 
" style="fill: none; stroke: #000000; stroke-width: 0.8; stroke-linejoin: miter; stroke-linecap: square"/>
   </g>
   <g id="text_7">
    <!-- $x_0=-27, y_0=38$ -->
    <g transform="translate(302.361756 21.6) scale(0.12 -0.12)">
     <defs>
      <path id="DejaVuSans-37" d="M 525 4666 
L 3525 4666 
L 3525 4397 
L 1831 0 
L 1172 0 
L 2766 4134 
L 525 4134 
L 525 4666 
z
" transform="scale(0.015625)"/>
      <path id="DejaVuSans-38" d="M 2034 2216 
Q 1584 2216 1326 1975 
Q 1069 1734 1069 1313 
Q 1069 891 1326 650 
Q 1584 409 2034 409 
Q 2484 409 2743 651 
Q 3003 894 3003 1313 
Q 3003 1734 2745 1975 
Q 2488 2216 2034 2216 
z
M 1403 2484 
Q 997 2584 770 2862 
Q 544 3141 544 3541 
Q 544 4100 942 4425 
Q 1341 4750 2034 4750 
Q 2731 4750 3128 4425 
Q 3525 4100 3525 3541 
Q 3525 3141 3298 2862 
Q 3072 2584 2669 2484 
Q 3125 2378 3379 2068 
Q 3634 1759 3634 1313 
Q 3634 634 3220 271 
Q 2806 -91 2034 -91 
Q 1263 -91 848 271 
Q 434 634 434 1313 
Q 434 1759 690 2068 
Q 947 2378 1403 2484 
z
M 1172 3481 
Q 1172 3119 1398 2916 
Q 1625 2713 2034 2713 
Q 2441 2713 2670 2916 
Q 2900 3119 2900 3481 
Q 2900 3844 2670 4047 
Q 2441 4250 2034 4250 
Q 1625 4250 1398 4047 
Q 1172 3844 1172 3481 
z
" transform="scale(0.015625)"/>
     </defs>
     <use xlink:href="#DejaVuSans-Oblique-78" transform="translate(0 0.78125)"/>
     <use xlink:href="#DejaVuSans-30" transform="translate(59.179688 -15.625) scale(0.7)"/>
     <use xlink:href="#DejaVuSans-3d" transform="translate(125.932617 0.78125)"/>
     <use xlink:href="#DejaVuSans-2212" transform="translate(248.686523 0.78125)"/>
     <use xlink:href="#DejaVuSans-32" transform="translate(351.958008 0.78125)"/>
     <use xlink:href="#DejaVuSans-37" transform="translate(415.581055 0.78125)"/>
     <use xlink:href="#DejaVuSans-2c" transform="translate(479.204102 0.78125)"/>
     <use xlink:href="#DejaVuSans-Oblique-79" transform="translate(530.473633 0.78125)"/>
     <use xlink:href="#DejaVuSans-30" transform="translate(589.65332 -15.625) scale(0.7)"/>
     <use xlink:href="#DejaVuSans-3d" transform="translate(656.40625 0.78125)"/>
     <use xlink:href="#DejaVuSans-33" transform="translate(759.677734 0.78125)"/>
     <use xlink:href="#DejaVuSans-38" transform="translate(823.300781 0.78125)"/>
    </g>
   </g>
  </g>
  <g id="axes_3">
   <g id="patch_12">
    <path d="M 65.41 293.96 
L 246.863512 293.96 
L 246.863512 176.33 
L 65.41 176.33 
z
" style="fill: #ffffff"/>
   </g>
   <g id="matplotlib.axis_5">
    <g id="xtick_13">
     <g id="line2d_27">
      <g>
       <use xlink:href="#ma94b806ffc" x="73.657887" y="293.96" style="stroke: #000000; stroke-width: 0.8"/>
      </g>
     </g>
     <g id="text_8">
      <!-- 0 -->
      <g transform="translate(70.476637 308.558437) scale(0.1 -0.1)">
       <use xlink:href="#DejaVuSans-30"/>
      </g>
     </g>
    </g>
    <g id="xtick_14">
     <g id="line2d_28">
      <g>
       <use xlink:href="#ma94b806ffc" x="106.649435" y="293.96" style="stroke: #000000; stroke-width: 0.8"/>
      </g>
     </g>
     <g id="text_9">
      <!-- 2 -->
      <g transform="translate(103.468185 308.558437) scale(0.1 -0.1)">
       <use xlink:href="#DejaVuSans-32"/>
      </g>
     </g>
    </g>
    <g id="xtick_15">
     <g id="line2d_29">
      <g>
       <use xlink:href="#ma94b806ffc" x="139.640982" y="293.96" style="stroke: #000000; stroke-width: 0.8"/>
      </g>
     </g>
     <g id="text_10">
      <!-- 4 -->
      <g transform="translate(136.459732 308.558437) scale(0.1 -0.1)">
       <use xlink:href="#DejaVuSans-34"/>
      </g>
     </g>
    </g>
    <g id="xtick_16">
     <g id="line2d_30">
      <g>
       <use xlink:href="#ma94b806ffc" x="172.63253" y="293.96" style="stroke: #000000; stroke-width: 0.8"/>
      </g>
     </g>
     <g id="text_11">
      <!-- 6 -->
      <g transform="translate(169.45128 308.558437) scale(0.1 -0.1)">
       <defs>
        <path id="DejaVuSans-36" d="M 2113 2584 
Q 1688 2584 1439 2293 
Q 1191 2003 1191 1497 
Q 1191 994 1439 701 
Q 1688 409 2113 409 
Q 2538 409 2786 701 
Q 3034 994 3034 1497 
Q 3034 2003 2786 2293 
Q 2538 2584 2113 2584 
z
M 3366 4563 
L 3366 3988 
Q 3128 4100 2886 4159 
Q 2644 4219 2406 4219 
Q 1781 4219 1451 3797 
Q 1122 3375 1075 2522 
Q 1259 2794 1537 2939 
Q 1816 3084 2150 3084 
Q 2853 3084 3261 2657 
Q 3669 2231 3669 1497 
Q 3669 778 3244 343 
Q 2819 -91 2113 -91 
Q 1303 -91 875 529 
Q 447 1150 447 2328 
Q 447 3434 972 4092 
Q 1497 4750 2381 4750 
Q 2619 4750 2861 4703 
Q 3103 4656 3366 4563 
z
" transform="scale(0.015625)"/>
       </defs>
       <use xlink:href="#DejaVuSans-36"/>
      </g>
     </g>
    </g>
    <g id="xtick_17">
     <g id="line2d_31">
      <g>
       <use xlink:href="#ma94b806ffc" x="205.624078" y="293.96" style="stroke: #000000; stroke-width: 0.8"/>
      </g>
     </g>
     <g id="text_12">
      <!-- 8 -->
      <g transform="translate(202.442828 308.558437) scale(0.1 -0.1)">
       <use xlink:href="#DejaVuSans-38"/>
      </g>
     </g>
    </g>
    <g id="xtick_18">
     <g id="line2d_32">
      <g>
       <use xlink:href="#ma94b806ffc" x="238.615625" y="293.96" style="stroke: #000000; stroke-width: 0.8"/>
      </g>
     </g>
     <g id="text_13">
      <!-- 10 -->
      <g transform="translate(232.253125 308.558437) scale(0.1 -0.1)">
       <defs>
        <path id="DejaVuSans-31" d="M 794 531 
L 1825 531 
L 1825 4091 
L 703 3866 
L 703 4441 
L 1819 4666 
L 2450 4666 
L 2450 531 
L 3481 531 
L 3481 0 
L 794 0 
L 794 531 
z
" transform="scale(0.015625)"/>
       </defs>
       <use xlink:href="#DejaVuSans-31"/>
       <use xlink:href="#DejaVuSans-30" x="63.623047"/>
      </g>
     </g>
    </g>
   </g>
   <g id="matplotlib.axis_6">
    <g id="ytick_11">
     <g id="line2d_33">
      <g>
       <use xlink:href="#me39520834e" x="65.41" y="288.613182" style="stroke: #000000; stroke-width: 0.8"/>
      </g>
     </g>
     <g id="text_14">
      <!-- −50 -->
      <g transform="translate(37.305313 292.412401) scale(0.1 -0.1)">
       <use xlink:href="#DejaVuSans-2212"/>
       <use xlink:href="#DejaVuSans-35" x="83.789062"/>
       <use xlink:href="#DejaVuSans-30" x="147.412109"/>
      </g>
     </g>
    </g>
    <g id="ytick_12">
     <g id="line2d_34">
      <g>
       <use xlink:href="#me39520834e" x="65.41" y="264.528415" style="stroke: #000000; stroke-width: 0.8"/>
      </g>
     </g>
     <g id="text_15">
      <!-- −25 -->
      <g transform="translate(37.305313 268.327634) scale(0.1 -0.1)">
       <use xlink:href="#DejaVuSans-2212"/>
       <use xlink:href="#DejaVuSans-32" x="83.789062"/>
       <use xlink:href="#DejaVuSans-35" x="147.412109"/>
      </g>
     </g>
    </g>
    <g id="ytick_13">
     <g id="line2d_35">
      <g>
       <use xlink:href="#me39520834e" x="65.41" y="240.443649" style="stroke: #000000; stroke-width: 0.8"/>
      </g>
     </g>
     <g id="text_16">
      <!-- 0 -->
      <g transform="translate(52.0475 244.242867) scale(0.1 -0.1)">
       <use xlink:href="#DejaVuSans-30"/>
      </g>
     </g>
    </g>
    <g id="ytick_14">
     <g id="line2d_36">
      <g>
       <use xlink:href="#me39520834e" x="65.41" y="216.358882" style="stroke: #000000; stroke-width: 0.8"/>
      </g>
     </g>
     <g id="text_17">
      <!-- 25 -->
      <g transform="translate(45.685 220.158101) scale(0.1 -0.1)">
       <use xlink:href="#DejaVuSans-32"/>
       <use xlink:href="#DejaVuSans-35" x="63.623047"/>
      </g>
     </g>
    </g>
    <g id="ytick_15">
     <g id="line2d_37">
      <g>
       <use xlink:href="#me39520834e" x="65.41" y="192.274115" style="stroke: #000000; stroke-width: 0.8"/>
      </g>
     </g>
     <g id="text_18">
      <!-- 50 -->
      <g transform="translate(45.685 196.073334) scale(0.1 -0.1)">
       <use xlink:href="#DejaVuSans-35"/>
       <use xlink:href="#DejaVuSans-30" x="63.623047"/>
      </g>
     </g>
    </g>
   </g>
   <g id="line2d_38">
    <path d="M 73.657887 200.944631 
L 76.299853 206.965757 
L 77.951081 210.4406 
L 78.941818 212.086097 
L 79.767433 213.101469 
L 80.593047 213.7517 
L 81.253539 213.997549 
L 81.91403 214.001087 
L 82.574521 213.773313 
L 83.400136 213.194656 
L 84.390873 212.149787 
L 86.042102 209.955539 
L 87.363084 208.347804 
L 89.674804 206.248648 
L 92.151647 204.299911 
L 94.62849 202.62303 
L 97.270456 201.092784 
L 100.242668 199.63953 
L 103.380002 198.361139 
L 106.682459 197.254898 
L 110.315162 196.272252 
L 114.443234 195.390681 
L 119.231797 194.602944 
L 124.515728 193.962384 
L 130.790397 193.432587 
L 139.04654 192.974747 
L 148.953912 192.658379 
L 164.310338 192.424967 
L 187.097293 192.315115 
L 238.615625 192.276992 
L 238.615625 192.276992 
" clip-path="url(#pf673294ecb)" style="fill: none; stroke: #1f77b4; stroke-width: 1.5; stroke-linecap: square"/>
   </g>
   <g id="line2d_39">
    <path d="M 73.657887 265.491806 
L 75.639361 257.204151 
L 77.620836 249.849958 
L 79.60231 243.328437 
L 81.583784 237.549287 
L 83.565259 232.428765 
L 85.546733 227.889687 
L 87.69333 223.546782 
L 89.839927 219.728796 
L 91.986525 216.376644 
L 94.133122 213.435704 
L 96.279719 210.855744 
L 98.591439 208.428545 
L 100.903159 206.315291 
L 103.380002 204.352974 
L 105.856845 202.665462 
L 108.498811 201.128145 
L 111.305899 199.747531 
L 114.443234 198.458507 
L 117.910814 197.283302 
L 121.543517 196.287404 
L 125.506465 195.429506 
L 130.129906 194.665436 
L 135.744083 193.978182 
L 142.183874 193.41979 
L 149.614403 193.007777 
L 160.347389 192.660246 
L 173.722341 192.442666 
L 200.967613 192.302894 
L 238.615625 192.279824 
L 238.615625 192.279824 
" clip-path="url(#pf673294ecb)" style="fill: none; stroke: #ff7f0e; stroke-width: 1.5; stroke-linecap: square"/>
   </g>
   <g id="patch_13">
    <path d="M 65.41 293.96 
L 65.41 176.33 
" style="fill: none; stroke: #000000; stroke-width: 0.8; stroke-linejoin: miter; stroke-linecap: square"/>
   </g>
   <g id="patch_14">
    <path d="M 246.863512 293.96 
L 246.863512 176.33 
" style="fill: none; stroke: #000000; stroke-width: 0.8; stroke-linejoin: miter; stroke-linecap: square"/>
   </g>
   <g id="patch_15">
    <path d="M 65.41 293.96 
L 246.863512 293.96 
" style="fill: none; stroke: #000000; stroke-width: 0.8; stroke-linejoin: miter; stroke-linecap: square"/>
   </g>
   <g id="patch_16">
    <path d="M 65.41 176.33 
L 246.863512 176.33 
" style="fill: none; stroke: #000000; stroke-width: 0.8; stroke-linejoin: miter; stroke-linecap: square"/>
   </g>
   <g id="text_19">
    <!-- $x_0=41, y_0=-26$ -->
    <g transform="translate(102.916756 170.33) scale(0.12 -0.12)">
     <use xlink:href="#DejaVuSans-Oblique-78" transform="translate(0 0.78125)"/>
     <use xlink:href="#DejaVuSans-30" transform="translate(59.179688 -15.625) scale(0.7)"/>
     <use xlink:href="#DejaVuSans-3d" transform="translate(125.932617 0.78125)"/>
     <use xlink:href="#DejaVuSans-34" transform="translate(229.204102 0.78125)"/>
     <use xlink:href="#DejaVuSans-31" transform="translate(292.827148 0.78125)"/>
     <use xlink:href="#DejaVuSans-2c" transform="translate(356.450195 0.78125)"/>
     <use xlink:href="#DejaVuSans-Oblique-79" transform="translate(407.719727 0.78125)"/>
     <use xlink:href="#DejaVuSans-30" transform="translate(466.899414 -15.625) scale(0.7)"/>
     <use xlink:href="#DejaVuSans-3d" transform="translate(533.652344 0.78125)"/>
     <use xlink:href="#DejaVuSans-2212" transform="translate(656.40625 0.78125)"/>
     <use xlink:href="#DejaVuSans-32" transform="translate(759.677734 0.78125)"/>
     <use xlink:href="#DejaVuSans-36" transform="translate(823.300781 0.78125)"/>
    </g>
   </g>
  </g>
  <g id="axes_4">
   <g id="patch_17">
    <path d="M 264.855 293.96 
L 446.308512 293.96 
L 446.308512 176.33 
L 264.855 176.33 
z
" style="fill: #ffffff"/>
   </g>
   <g id="matplotlib.axis_7">
    <g id="xtick_19">
     <g id="line2d_40">
      <g>
       <use xlink:href="#ma94b806ffc" x="273.102887" y="293.96" style="stroke: #000000; stroke-width: 0.8"/>
      </g>
     </g>
     <g id="text_20">
      <!-- 0 -->
      <g transform="translate(269.921637 308.558437) scale(0.1 -0.1)">
       <use xlink:href="#DejaVuSans-30"/>
      </g>
     </g>
    </g>
    <g id="xtick_20">
     <g id="line2d_41">
      <g>
       <use xlink:href="#ma94b806ffc" x="306.094435" y="293.96" style="stroke: #000000; stroke-width: 0.8"/>
      </g>
     </g>
     <g id="text_21">
      <!-- 2 -->
      <g transform="translate(302.913185 308.558437) scale(0.1 -0.1)">
       <use xlink:href="#DejaVuSans-32"/>
      </g>
     </g>
    </g>
    <g id="xtick_21">
     <g id="line2d_42">
      <g>
       <use xlink:href="#ma94b806ffc" x="339.085982" y="293.96" style="stroke: #000000; stroke-width: 0.8"/>
      </g>
     </g>
     <g id="text_22">
      <!-- 4 -->
      <g transform="translate(335.904732 308.558437) scale(0.1 -0.1)">
       <use xlink:href="#DejaVuSans-34"/>
      </g>
     </g>
    </g>
    <g id="xtick_22">
     <g id="line2d_43">
      <g>
       <use xlink:href="#ma94b806ffc" x="372.07753" y="293.96" style="stroke: #000000; stroke-width: 0.8"/>
      </g>
     </g>
     <g id="text_23">
      <!-- 6 -->
      <g transform="translate(368.89628 308.558437) scale(0.1 -0.1)">
       <use xlink:href="#DejaVuSans-36"/>
      </g>
     </g>
    </g>
    <g id="xtick_23">
     <g id="line2d_44">
      <g>
       <use xlink:href="#ma94b806ffc" x="405.069078" y="293.96" style="stroke: #000000; stroke-width: 0.8"/>
      </g>
     </g>
     <g id="text_24">
      <!-- 8 -->
      <g transform="translate(401.887828 308.558437) scale(0.1 -0.1)">
       <use xlink:href="#DejaVuSans-38"/>
      </g>
     </g>
    </g>
    <g id="xtick_24">
     <g id="line2d_45">
      <g>
       <use xlink:href="#ma94b806ffc" x="438.060625" y="293.96" style="stroke: #000000; stroke-width: 0.8"/>
      </g>
     </g>
     <g id="text_25">
      <!-- 10 -->
      <g transform="translate(431.698125 308.558437) scale(0.1 -0.1)">
       <use xlink:href="#DejaVuSans-31"/>
       <use xlink:href="#DejaVuSans-30" x="63.623047"/>
      </g>
     </g>
    </g>
   </g>
   <g id="matplotlib.axis_8">
    <g id="ytick_16">
     <g id="line2d_46">
      <g>
       <use xlink:href="#me39520834e" x="264.855" y="288.613182" style="stroke: #000000; stroke-width: 0.8"/>
      </g>
     </g>
    </g>
    <g id="ytick_17">
     <g id="line2d_47">
      <g>
       <use xlink:href="#me39520834e" x="264.855" y="264.528415" style="stroke: #000000; stroke-width: 0.8"/>
      </g>
     </g>
    </g>
    <g id="ytick_18">
     <g id="line2d_48">
      <g>
       <use xlink:href="#me39520834e" x="264.855" y="240.443649" style="stroke: #000000; stroke-width: 0.8"/>
      </g>
     </g>
    </g>
    <g id="ytick_19">
     <g id="line2d_49">
      <g>
       <use xlink:href="#me39520834e" x="264.855" y="216.358882" style="stroke: #000000; stroke-width: 0.8"/>
      </g>
     </g>
    </g>
    <g id="ytick_20">
     <g id="line2d_50">
      <g>
       <use xlink:href="#me39520834e" x="264.855" y="192.274115" style="stroke: #000000; stroke-width: 0.8"/>
      </g>
     </g>
    </g>
   </g>
   <g id="line2d_51">
    <path d="M 273.102887 181.676818 
L 275.744853 183.245673 
L 278.551941 184.662917 
L 281.524153 185.922131 
L 284.82661 187.074112 
L 288.459313 188.095777 
L 292.587385 189.016908 
L 297.210825 189.815943 
L 302.329633 190.472001 
L 308.439179 191.025966 
L 316.199954 191.498083 
L 325.446834 191.829127 
L 339.6474 192.087398 
L 360.122635 192.216997 
L 404.540685 192.271577 
L 438.060625 192.270504 
L 438.060625 192.270504 
" clip-path="url(#pf813b10b4c)" style="fill: none; stroke: #1f77b4; stroke-width: 1.5; stroke-linecap: square"/>
   </g>
   <g id="line2d_52">
    <path d="M 273.102887 215.395491 
L 275.249484 212.574076 
L 277.561204 209.913076 
L 279.872924 207.597441 
L 282.184644 205.588313 
L 284.661487 203.733543 
L 287.303453 202.046658 
L 290.110542 200.529007 
L 293.247876 199.101313 
L 296.38521 197.914102 
L 299.85279 196.841696 
L 303.650616 195.905303 
L 307.943811 195.079919 
L 313.062619 194.328013 
L 318.676797 193.7289 
L 325.281711 193.254442 
L 334.528591 192.837421 
L 345.591823 192.556661 
L 363.259969 192.374809 
L 389.349381 192.302088 
L 438.060625 192.281995 
L 438.060625 192.281995 
" clip-path="url(#pf813b10b4c)" style="fill: none; stroke: #ff7f0e; stroke-width: 1.5; stroke-linecap: square"/>
   </g>
   <g id="patch_18">
    <path d="M 264.855 293.96 
L 264.855 176.33 
" style="fill: none; stroke: #000000; stroke-width: 0.8; stroke-linejoin: miter; stroke-linecap: square"/>
   </g>
   <g id="patch_19">
    <path d="M 446.308512 293.96 
L 446.308512 176.33 
" style="fill: none; stroke: #000000; stroke-width: 0.8; stroke-linejoin: miter; stroke-linecap: square"/>
   </g>
   <g id="patch_20">
    <path d="M 264.855 293.96 
L 446.308512 293.96 
" style="fill: none; stroke: #000000; stroke-width: 0.8; stroke-linejoin: miter; stroke-linecap: square"/>
   </g>
   <g id="patch_21">
    <path d="M 264.855 176.33 
L 446.308512 176.33 
" style="fill: none; stroke: #000000; stroke-width: 0.8; stroke-linejoin: miter; stroke-linecap: square"/>
   </g>
   <g id="text_26">
    <!-- $x_0=61, y_0=26$ -->
    <g transform="translate(309.681756 170.33) scale(0.12 -0.12)">
     <use xlink:href="#DejaVuSans-Oblique-78" transform="translate(0 0.78125)"/>
     <use xlink:href="#DejaVuSans-30" transform="translate(59.179688 -15.625) scale(0.7)"/>
     <use xlink:href="#DejaVuSans-3d" transform="translate(125.932617 0.78125)"/>
     <use xlink:href="#DejaVuSans-36" transform="translate(229.204102 0.78125)"/>
     <use xlink:href="#DejaVuSans-31" transform="translate(292.827148 0.78125)"/>
     <use xlink:href="#DejaVuSans-2c" transform="translate(356.450195 0.78125)"/>
     <use xlink:href="#DejaVuSans-Oblique-79" transform="translate(407.719727 0.78125)"/>
     <use xlink:href="#DejaVuSans-30" transform="translate(466.899414 -15.625) scale(0.7)"/>
     <use xlink:href="#DejaVuSans-3d" transform="translate(533.652344 0.78125)"/>
     <use xlink:href="#DejaVuSans-32" transform="translate(636.923828 0.78125)"/>
     <use xlink:href="#DejaVuSans-36" transform="translate(700.546875 0.78125)"/>
    </g>
   </g>
   <g id="legend_1">
    <g id="patch_22">
     <path d="M 271.855 288.96 
L 321.555 288.96 
Q 323.555 288.96 323.555 286.96 
L 323.555 258.581875 
Q 323.555 256.581875 321.555 256.581875 
L 271.855 256.581875 
Q 269.855 256.581875 269.855 258.581875 
L 269.855 286.96 
Q 269.855 288.96 271.855 288.96 
z
" style="fill: #ffffff; opacity: 0.8; stroke: #cccccc; stroke-linejoin: miter"/>
    </g>
    <g id="line2d_53">
     <path d="M 273.855 264.680312 
L 283.855 264.680312 
L 293.855 264.680312 
" style="fill: none; stroke: #1f77b4; stroke-width: 1.5; stroke-linecap: square"/>
    </g>
    <g id="text_27">
     <!-- $x(t)$ -->
     <g transform="translate(301.855 268.180312) scale(0.1 -0.1)">
      <defs>
       <path id="DejaVuSans-28" d="M 1984 4856 
Q 1566 4138 1362 3434 
Q 1159 2731 1159 2009 
Q 1159 1288 1364 580 
Q 1569 -128 1984 -844 
L 1484 -844 
Q 1016 -109 783 600 
Q 550 1309 550 2009 
Q 550 2706 781 3412 
Q 1013 4119 1484 4856 
L 1984 4856 
z
" transform="scale(0.015625)"/>
       <path id="DejaVuSans-Oblique-74" d="M 2706 3500 
L 2619 3053 
L 1472 3053 
L 1100 1153 
Q 1081 1047 1072 975 
Q 1063 903 1063 863 
Q 1063 663 1183 572 
Q 1303 481 1569 481 
L 2150 481 
L 2053 0 
L 1503 0 
Q 991 0 739 200 
Q 488 400 488 806 
Q 488 878 497 964 
Q 506 1050 525 1153 
L 897 3053 
L 409 3053 
L 500 3500 
L 978 3500 
L 1172 4494 
L 1747 4494 
L 1556 3500 
L 2706 3500 
z
" transform="scale(0.015625)"/>
       <path id="DejaVuSans-29" d="M 513 4856 
L 1013 4856 
Q 1481 4119 1714 3412 
Q 1947 2706 1947 2009 
Q 1947 1309 1714 600 
Q 1481 -109 1013 -844 
L 513 -844 
Q 928 -128 1133 580 
Q 1338 1288 1338 2009 
Q 1338 2731 1133 3434 
Q 928 4138 513 4856 
z
" transform="scale(0.015625)"/>
      </defs>
      <use xlink:href="#DejaVuSans-Oblique-78" transform="translate(0 0.125)"/>
      <use xlink:href="#DejaVuSans-28" transform="translate(59.179688 0.125)"/>
      <use xlink:href="#DejaVuSans-Oblique-74" transform="translate(98.193359 0.125)"/>
      <use xlink:href="#DejaVuSans-29" transform="translate(137.402344 0.125)"/>
     </g>
    </g>
    <g id="line2d_54">
     <path d="M 273.855 279.36 
L 283.855 279.36 
L 293.855 279.36 
" style="fill: none; stroke: #ff7f0e; stroke-width: 1.5; stroke-linecap: square"/>
    </g>
    <g id="text_28">
     <!-- $y(t)$ -->
     <g transform="translate(301.855 282.86) scale(0.1 -0.1)">
      <use xlink:href="#DejaVuSans-Oblique-79" transform="translate(0 0.125)"/>
      <use xlink:href="#DejaVuSans-28" transform="translate(59.179688 0.125)"/>
      <use xlink:href="#DejaVuSans-Oblique-74" transform="translate(98.193359 0.125)"/>
      <use xlink:href="#DejaVuSans-29" transform="translate(137.402344 0.125)"/>
     </g>
    </g>
   </g>
  </g>
  <g id="text_29">
   <!-- Time $t$ in seconds -->
   <g transform="translate(177.42 339.648375) scale(0.12 -0.12)">
    <defs>
     <path id="DejaVuSans-54" d="M -19 4666 
L 3928 4666 
L 3928 4134 
L 2272 4134 
L 2272 0 
L 1638 0 
L 1638 4134 
L -19 4134 
L -19 4666 
z
" transform="scale(0.015625)"/>
     <path id="DejaVuSans-69" d="M 603 3500 
L 1178 3500 
L 1178 0 
L 603 0 
L 603 3500 
z
M 603 4863 
L 1178 4863 
L 1178 4134 
L 603 4134 
L 603 4863 
z
" transform="scale(0.015625)"/>
     <path id="DejaVuSans-6d" d="M 3328 2828 
Q 3544 3216 3844 3400 
Q 4144 3584 4550 3584 
Q 5097 3584 5394 3201 
Q 5691 2819 5691 2113 
L 5691 0 
L 5113 0 
L 5113 2094 
Q 5113 2597 4934 2840 
Q 4756 3084 4391 3084 
Q 3944 3084 3684 2787 
Q 3425 2491 3425 1978 
L 3425 0 
L 2847 0 
L 2847 2094 
Q 2847 2600 2669 2842 
Q 2491 3084 2119 3084 
Q 1678 3084 1418 2786 
Q 1159 2488 1159 1978 
L 1159 0 
L 581 0 
L 581 3500 
L 1159 3500 
L 1159 2956 
Q 1356 3278 1631 3431 
Q 1906 3584 2284 3584 
Q 2666 3584 2933 3390 
Q 3200 3197 3328 2828 
z
" transform="scale(0.015625)"/>
     <path id="DejaVuSans-65" d="M 3597 1894 
L 3597 1613 
L 953 1613 
Q 991 1019 1311 708 
Q 1631 397 2203 397 
Q 2534 397 2845 478 
Q 3156 559 3463 722 
L 3463 178 
Q 3153 47 2828 -22 
Q 2503 -91 2169 -91 
Q 1331 -91 842 396 
Q 353 884 353 1716 
Q 353 2575 817 3079 
Q 1281 3584 2069 3584 
Q 2775 3584 3186 3129 
Q 3597 2675 3597 1894 
z
M 3022 2063 
Q 3016 2534 2758 2815 
Q 2500 3097 2075 3097 
Q 1594 3097 1305 2825 
Q 1016 2553 972 2059 
L 3022 2063 
z
" transform="scale(0.015625)"/>
     <path id="DejaVuSans-20" transform="scale(0.015625)"/>
     <path id="DejaVuSans-6e" d="M 3513 2113 
L 3513 0 
L 2938 0 
L 2938 2094 
Q 2938 2591 2744 2837 
Q 2550 3084 2163 3084 
Q 1697 3084 1428 2787 
Q 1159 2491 1159 1978 
L 1159 0 
L 581 0 
L 581 3500 
L 1159 3500 
L 1159 2956 
Q 1366 3272 1645 3428 
Q 1925 3584 2291 3584 
Q 2894 3584 3203 3211 
Q 3513 2838 3513 2113 
z
" transform="scale(0.015625)"/>
     <path id="DejaVuSans-73" d="M 2834 3397 
L 2834 2853 
Q 2591 2978 2328 3040 
Q 2066 3103 1784 3103 
Q 1356 3103 1142 2972 
Q 928 2841 928 2578 
Q 928 2378 1081 2264 
Q 1234 2150 1697 2047 
L 1894 2003 
Q 2506 1872 2764 1633 
Q 3022 1394 3022 966 
Q 3022 478 2636 193 
Q 2250 -91 1575 -91 
Q 1294 -91 989 -36 
Q 684 19 347 128 
L 347 722 
Q 666 556 975 473 
Q 1284 391 1588 391 
Q 1994 391 2212 530 
Q 2431 669 2431 922 
Q 2431 1156 2273 1281 
Q 2116 1406 1581 1522 
L 1381 1569 
Q 847 1681 609 1914 
Q 372 2147 372 2553 
Q 372 3047 722 3315 
Q 1072 3584 1716 3584 
Q 2034 3584 2315 3537 
Q 2597 3491 2834 3397 
z
" transform="scale(0.015625)"/>
     <path id="DejaVuSans-63" d="M 3122 3366 
L 3122 2828 
Q 2878 2963 2633 3030 
Q 2388 3097 2138 3097 
Q 1578 3097 1268 2742 
Q 959 2388 959 1747 
Q 959 1106 1268 751 
Q 1578 397 2138 397 
Q 2388 397 2633 464 
Q 2878 531 3122 666 
L 3122 134 
Q 2881 22 2623 -34 
Q 2366 -91 2075 -91 
Q 1284 -91 818 406 
Q 353 903 353 1747 
Q 353 2603 823 3093 
Q 1294 3584 2113 3584 
Q 2378 3584 2631 3529 
Q 2884 3475 3122 3366 
z
" transform="scale(0.015625)"/>
     <path id="DejaVuSans-6f" d="M 1959 3097 
Q 1497 3097 1228 2736 
Q 959 2375 959 1747 
Q 959 1119 1226 758 
Q 1494 397 1959 397 
Q 2419 397 2687 759 
Q 2956 1122 2956 1747 
Q 2956 2369 2687 2733 
Q 2419 3097 1959 3097 
z
M 1959 3584 
Q 2709 3584 3137 3096 
Q 3566 2609 3566 1747 
Q 3566 888 3137 398 
Q 2709 -91 1959 -91 
Q 1206 -91 779 398 
Q 353 888 353 1747 
Q 353 2609 779 3096 
Q 1206 3584 1959 3584 
z
" transform="scale(0.015625)"/>
     <path id="DejaVuSans-64" d="M 2906 2969 
L 2906 4863 
L 3481 4863 
L 3481 0 
L 2906 0 
L 2906 525 
Q 2725 213 2448 61 
Q 2172 -91 1784 -91 
Q 1150 -91 751 415 
Q 353 922 353 1747 
Q 353 2572 751 3078 
Q 1150 3584 1784 3584 
Q 2172 3584 2448 3432 
Q 2725 3281 2906 2969 
z
M 947 1747 
Q 947 1113 1208 752 
Q 1469 391 1925 391 
Q 2381 391 2643 752 
Q 2906 1113 2906 1747 
Q 2906 2381 2643 2742 
Q 2381 3103 1925 3103 
Q 1469 3103 1208 2742 
Q 947 2381 947 1747 
z
" transform="scale(0.015625)"/>
    </defs>
    <use xlink:href="#DejaVuSans-54" transform="translate(0 0.015625)"/>
    <use xlink:href="#DejaVuSans-69" transform="translate(61.083984 0.015625)"/>
    <use xlink:href="#DejaVuSans-6d" transform="translate(88.867188 0.015625)"/>
    <use xlink:href="#DejaVuSans-65" transform="translate(186.279297 0.015625)"/>
    <use xlink:href="#DejaVuSans-20" transform="translate(247.802734 0.015625)"/>
    <use xlink:href="#DejaVuSans-Oblique-74" transform="translate(279.589844 0.015625)"/>
    <use xlink:href="#DejaVuSans-20" transform="translate(318.798828 0.015625)"/>
    <use xlink:href="#DejaVuSans-69" transform="translate(350.585938 0.015625)"/>
    <use xlink:href="#DejaVuSans-6e" transform="translate(378.369141 0.015625)"/>
    <use xlink:href="#DejaVuSans-20" transform="translate(441.748047 0.015625)"/>
    <use xlink:href="#DejaVuSans-73" transform="translate(473.535156 0.015625)"/>
    <use xlink:href="#DejaVuSans-65" transform="translate(525.634766 0.015625)"/>
    <use xlink:href="#DejaVuSans-63" transform="translate(587.158203 0.015625)"/>
    <use xlink:href="#DejaVuSans-6f" transform="translate(642.138672 0.015625)"/>
    <use xlink:href="#DejaVuSans-6e" transform="translate(703.320312 0.015625)"/>
    <use xlink:href="#DejaVuSans-64" transform="translate(766.699219 0.015625)"/>
    <use xlink:href="#DejaVuSans-73" transform="translate(830.175781 0.015625)"/>
   </g>
  </g>
  <g id="text_30">
   <!-- Neuron's firing rate $r(t)$ in spikes/s -->
   <g transform="translate(18.336 275.76) rotate(-90) scale(0.12 -0.12)">
    <defs>
     <path id="DejaVuSans-4e" d="M 628 4666 
L 1478 4666 
L 3547 763 
L 3547 4666 
L 4159 4666 
L 4159 0 
L 3309 0 
L 1241 3903 
L 1241 0 
L 628 0 
L 628 4666 
z
" transform="scale(0.015625)"/>
     <path id="DejaVuSans-75" d="M 544 1381 
L 544 3500 
L 1119 3500 
L 1119 1403 
Q 1119 906 1312 657 
Q 1506 409 1894 409 
Q 2359 409 2629 706 
Q 2900 1003 2900 1516 
L 2900 3500 
L 3475 3500 
L 3475 0 
L 2900 0 
L 2900 538 
Q 2691 219 2414 64 
Q 2138 -91 1772 -91 
Q 1169 -91 856 284 
Q 544 659 544 1381 
z
M 1991 3584 
L 1991 3584 
z
" transform="scale(0.015625)"/>
     <path id="DejaVuSans-72" d="M 2631 2963 
Q 2534 3019 2420 3045 
Q 2306 3072 2169 3072 
Q 1681 3072 1420 2755 
Q 1159 2438 1159 1844 
L 1159 0 
L 581 0 
L 581 3500 
L 1159 3500 
L 1159 2956 
Q 1341 3275 1631 3429 
Q 1922 3584 2338 3584 
Q 2397 3584 2469 3576 
Q 2541 3569 2628 3553 
L 2631 2963 
z
" transform="scale(0.015625)"/>
     <path id="DejaVuSans-27" d="M 1147 4666 
L 1147 2931 
L 616 2931 
L 616 4666 
L 1147 4666 
z
" transform="scale(0.015625)"/>
     <path id="DejaVuSans-66" d="M 2375 4863 
L 2375 4384 
L 1825 4384 
Q 1516 4384 1395 4259 
Q 1275 4134 1275 3809 
L 1275 3500 
L 2222 3500 
L 2222 3053 
L 1275 3053 
L 1275 0 
L 697 0 
L 697 3053 
L 147 3053 
L 147 3500 
L 697 3500 
L 697 3744 
Q 697 4328 969 4595 
Q 1241 4863 1831 4863 
L 2375 4863 
z
" transform="scale(0.015625)"/>
     <path id="DejaVuSans-67" d="M 2906 1791 
Q 2906 2416 2648 2759 
Q 2391 3103 1925 3103 
Q 1463 3103 1205 2759 
Q 947 2416 947 1791 
Q 947 1169 1205 825 
Q 1463 481 1925 481 
Q 2391 481 2648 825 
Q 2906 1169 2906 1791 
z
M 3481 434 
Q 3481 -459 3084 -895 
Q 2688 -1331 1869 -1331 
Q 1566 -1331 1297 -1286 
Q 1028 -1241 775 -1147 
L 775 -588 
Q 1028 -725 1275 -790 
Q 1522 -856 1778 -856 
Q 2344 -856 2625 -561 
Q 2906 -266 2906 331 
L 2906 616 
Q 2728 306 2450 153 
Q 2172 0 1784 0 
Q 1141 0 747 490 
Q 353 981 353 1791 
Q 353 2603 747 3093 
Q 1141 3584 1784 3584 
Q 2172 3584 2450 3431 
Q 2728 3278 2906 2969 
L 2906 3500 
L 3481 3500 
L 3481 434 
z
" transform="scale(0.015625)"/>
     <path id="DejaVuSans-61" d="M 2194 1759 
Q 1497 1759 1228 1600 
Q 959 1441 959 1056 
Q 959 750 1161 570 
Q 1363 391 1709 391 
Q 2188 391 2477 730 
Q 2766 1069 2766 1631 
L 2766 1759 
L 2194 1759 
z
M 3341 1997 
L 3341 0 
L 2766 0 
L 2766 531 
Q 2569 213 2275 61 
Q 1981 -91 1556 -91 
Q 1019 -91 701 211 
Q 384 513 384 1019 
Q 384 1609 779 1909 
Q 1175 2209 1959 2209 
L 2766 2209 
L 2766 2266 
Q 2766 2663 2505 2880 
Q 2244 3097 1772 3097 
Q 1472 3097 1187 3025 
Q 903 2953 641 2809 
L 641 3341 
Q 956 3463 1253 3523 
Q 1550 3584 1831 3584 
Q 2591 3584 2966 3190 
Q 3341 2797 3341 1997 
z
" transform="scale(0.015625)"/>
     <path id="DejaVuSans-74" d="M 1172 4494 
L 1172 3500 
L 2356 3500 
L 2356 3053 
L 1172 3053 
L 1172 1153 
Q 1172 725 1289 603 
Q 1406 481 1766 481 
L 2356 481 
L 2356 0 
L 1766 0 
Q 1100 0 847 248 
Q 594 497 594 1153 
L 594 3053 
L 172 3053 
L 172 3500 
L 594 3500 
L 594 4494 
L 1172 4494 
z
" transform="scale(0.015625)"/>
     <path id="DejaVuSans-Oblique-72" d="M 2853 2969 
Q 2766 3016 2653 3041 
Q 2541 3066 2413 3066 
Q 1953 3066 1609 2717 
Q 1266 2369 1153 1784 
L 800 0 
L 225 0 
L 909 3500 
L 1484 3500 
L 1375 2956 
Q 1603 3259 1920 3421 
Q 2238 3584 2597 3584 
Q 2691 3584 2781 3573 
Q 2872 3563 2963 3538 
L 2853 2969 
z
" transform="scale(0.015625)"/>
     <path id="DejaVuSans-70" d="M 1159 525 
L 1159 -1331 
L 581 -1331 
L 581 3500 
L 1159 3500 
L 1159 2969 
Q 1341 3281 1617 3432 
Q 1894 3584 2278 3584 
Q 2916 3584 3314 3078 
Q 3713 2572 3713 1747 
Q 3713 922 3314 415 
Q 2916 -91 2278 -91 
Q 1894 -91 1617 61 
Q 1341 213 1159 525 
z
M 3116 1747 
Q 3116 2381 2855 2742 
Q 2594 3103 2138 3103 
Q 1681 3103 1420 2742 
Q 1159 2381 1159 1747 
Q 1159 1113 1420 752 
Q 1681 391 2138 391 
Q 2594 391 2855 752 
Q 3116 1113 3116 1747 
z
" transform="scale(0.015625)"/>
     <path id="DejaVuSans-6b" d="M 581 4863 
L 1159 4863 
L 1159 1991 
L 2875 3500 
L 3609 3500 
L 1753 1863 
L 3688 0 
L 2938 0 
L 1159 1709 
L 1159 0 
L 581 0 
L 581 4863 
z
" transform="scale(0.015625)"/>
     <path id="DejaVuSans-2f" d="M 1625 4666 
L 2156 4666 
L 531 -594 
L 0 -594 
L 1625 4666 
z
" transform="scale(0.015625)"/>
    </defs>
    <use xlink:href="#DejaVuSans-4e" transform="translate(0 0.015625)"/>
    <use xlink:href="#DejaVuSans-65" transform="translate(74.804688 0.015625)"/>
    <use xlink:href="#DejaVuSans-75" transform="translate(136.328125 0.015625)"/>
    <use xlink:href="#DejaVuSans-72" transform="translate(199.707031 0.015625)"/>
    <use xlink:href="#DejaVuSans-6f" transform="translate(240.820312 0.015625)"/>
    <use xlink:href="#DejaVuSans-6e" transform="translate(302.001953 0.015625)"/>
    <use xlink:href="#DejaVuSans-27" transform="translate(365.380859 0.015625)"/>
    <use xlink:href="#DejaVuSans-73" transform="translate(392.871094 0.015625)"/>
    <use xlink:href="#DejaVuSans-20" transform="translate(444.970703 0.015625)"/>
    <use xlink:href="#DejaVuSans-66" transform="translate(476.757812 0.015625)"/>
    <use xlink:href="#DejaVuSans-69" transform="translate(511.962891 0.015625)"/>
    <use xlink:href="#DejaVuSans-72" transform="translate(539.746094 0.015625)"/>
    <use xlink:href="#DejaVuSans-69" transform="translate(580.859375 0.015625)"/>
    <use xlink:href="#DejaVuSans-6e" transform="translate(608.642578 0.015625)"/>
    <use xlink:href="#DejaVuSans-67" transform="translate(672.021484 0.015625)"/>
    <use xlink:href="#DejaVuSans-20" transform="translate(735.498047 0.015625)"/>
    <use xlink:href="#DejaVuSans-72" transform="translate(767.285156 0.015625)"/>
    <use xlink:href="#DejaVuSans-61" transform="translate(808.398438 0.015625)"/>
    <use xlink:href="#DejaVuSans-74" transform="translate(869.677734 0.015625)"/>
    <use xlink:href="#DejaVuSans-65" transform="translate(908.886719 0.015625)"/>
    <use xlink:href="#DejaVuSans-20" transform="translate(970.410156 0.015625)"/>
    <use xlink:href="#DejaVuSans-Oblique-72" transform="translate(1002.197266 0.015625)"/>
    <use xlink:href="#DejaVuSans-28" transform="translate(1043.310547 0.015625)"/>
    <use xlink:href="#DejaVuSans-Oblique-74" transform="translate(1082.324219 0.015625)"/>
    <use xlink:href="#DejaVuSans-29" transform="translate(1121.533203 0.015625)"/>
    <use xlink:href="#DejaVuSans-20" transform="translate(1160.546875 0.015625)"/>
    <use xlink:href="#DejaVuSans-69" transform="translate(1192.333984 0.015625)"/>
    <use xlink:href="#DejaVuSans-6e" transform="translate(1220.117188 0.015625)"/>
    <use xlink:href="#DejaVuSans-20" transform="translate(1283.496094 0.015625)"/>
    <use xlink:href="#DejaVuSans-73" transform="translate(1315.283203 0.015625)"/>
    <use xlink:href="#DejaVuSans-70" transform="translate(1367.382812 0.015625)"/>
    <use xlink:href="#DejaVuSans-69" transform="translate(1430.859375 0.015625)"/>
    <use xlink:href="#DejaVuSans-6b" transform="translate(1458.642578 0.015625)"/>
    <use xlink:href="#DejaVuSans-65" transform="translate(1516.552734 0.015625)"/>
    <use xlink:href="#DejaVuSans-73" transform="translate(1578.076172 0.015625)"/>
    <use xlink:href="#DejaVuSans-2f" transform="translate(1630.175781 0.015625)"/>
    <use xlink:href="#DejaVuSans-73" transform="translate(1663.867188 0.015625)"/>
   </g>
  </g>
 </g>
 <defs>
  <clipPath id="p38411337be">
   <rect x="65.41" y="27.6" width="181.453512" height="117.63"/>
  </clipPath>
  <clipPath id="p34033e9680">
   <rect x="264.855" y="27.6" width="181.453512" height="117.63"/>
  </clipPath>
  <clipPath id="pf673294ecb">
   <rect x="65.41" y="176.33" width="181.453512" height="117.63"/>
  </clipPath>
  <clipPath id="pf813b10b4c">
   <rect x="264.855" y="176.33" width="181.453512" height="117.63"/>
  </clipPath>
 </defs>
</svg>
