<?xml version="1.0" encoding="utf-8" standalone="no"?>
<!DOCTYPE svg PUBLIC "-//W3C//DTD SVG 1.1//EN"
  "http://www.w3.org/Graphics/SVG/1.1/DTD/svg11.dtd">
<svg xmlns:xlink="http://www.w3.org/1999/xlink" width="460.8pt" height="345.6pt" viewBox="0 0 460.8 345.6" xmlns="http://www.w3.org/2000/svg" version="1.1">
 <metadata>
  <rdf:RDF xmlns:dc="http://purl.org/dc/elements/1.1/" xmlns:cc="http://creativecommons.org/ns#" xmlns:rdf="http://www.w3.org/1999/02/22-rdf-syntax-ns#">
   <cc:Work>
    <dc:type rdf:resource="http://purl.org/dc/dcmitype/StillImage"/>
    <dc:date>2024-04-22T17:39:29.498018</dc:date>
    <dc:format>image/svg+xml</dc:format>
    <dc:creator>
     <cc:Agent>
      <dc:title>Matplotlib v3.8.3, https://matplotlib.org/</dc:title>
     </cc:Agent>
    </dc:creator>
   </cc:Work>
  </rdf:RDF>
 </metadata>
 <defs>
  <style type="text/css">*{stroke-linejoin: round; stroke-linecap: butt}</style>
 </defs>
 <g id="figure_1">
  <g id="patch_1">
   <path d="M 0 345.6 
L 460.8 345.6 
L 460.8 0 
L 0 0 
z
" style="fill: #ffffff"/>
  </g>
  <g id="axes_1">
   <g id="patch_2">
    <path d="M 57.6 307.584 
L 414.72 307.584 
L 414.72 41.472 
L 57.6 41.472 
z
" style="fill: #ffffff"/>
   </g>
   <g id="matplotlib.axis_1">
    <g id="xtick_1">
     <g id="line2d_1">
      <defs>
       <path id="ma9ead8afc1" d="M 0 0 
L 0 3.5 
" style="stroke: #000000; stroke-width: 0.8"/>
      </defs>
      <g>
       <use xlink:href="#ma9ead8afc1" x="86.053536" y="307.584" style="stroke: #000000; stroke-width: 0.8"/>
      </g>
     </g>
     <g id="text_1">
      <!-- −40 -->
      <g transform="translate(75.501192 322.182437) scale(0.1 -0.1)">
       <defs>
        <path id="DejaVuSans-2212" d="M 678 2272 
L 4684 2272 
L 4684 1741 
L 678 1741 
L 678 2272 
z
" transform="scale(0.015625)"/>
        <path id="DejaVuSans-34" d="M 2419 4116 
L 825 1625 
L 2419 1625 
L 2419 4116 
z
M 2253 4666 
L 3047 4666 
L 3047 1625 
L 3713 1625 
L 3713 1100 
L 3047 1100 
L 3047 0 
L 2419 0 
L 2419 1100 
L 313 1100 
L 313 1709 
L 2253 4666 
z
" transform="scale(0.015625)"/>
        <path id="DejaVuSans-30" d="M 2034 4250 
Q 1547 4250 1301 3770 
Q 1056 3291 1056 2328 
Q 1056 1369 1301 889 
Q 1547 409 2034 409 
Q 2525 409 2770 889 
Q 3016 1369 3016 2328 
Q 3016 3291 2770 3770 
Q 2525 4250 2034 4250 
z
M 2034 4750 
Q 2819 4750 3233 4129 
Q 3647 3509 3647 2328 
Q 3647 1150 3233 529 
Q 2819 -91 2034 -91 
Q 1250 -91 836 529 
Q 422 1150 422 2328 
Q 422 3509 836 4129 
Q 1250 4750 2034 4750 
z
" transform="scale(0.015625)"/>
       </defs>
       <use xlink:href="#DejaVuSans-2212"/>
       <use xlink:href="#DejaVuSans-34" x="83.789062"/>
       <use xlink:href="#DejaVuSans-30" x="147.412109"/>
      </g>
     </g>
    </g>
    <g id="xtick_2">
     <g id="line2d_2">
      <g>
       <use xlink:href="#ma9ead8afc1" x="130.686927" y="307.584" style="stroke: #000000; stroke-width: 0.8"/>
      </g>
     </g>
     <g id="text_2">
      <!-- −20 -->
      <g transform="translate(120.134583 322.182437) scale(0.1 -0.1)">
       <defs>
        <path id="DejaVuSans-32" d="M 1228 531 
L 3431 531 
L 3431 0 
L 469 0 
L 469 531 
Q 828 903 1448 1529 
Q 2069 2156 2228 2338 
Q 2531 2678 2651 2914 
Q 2772 3150 2772 3378 
Q 2772 3750 2511 3984 
Q 2250 4219 1831 4219 
Q 1534 4219 1204 4116 
Q 875 4013 500 3803 
L 500 4441 
Q 881 4594 1212 4672 
Q 1544 4750 1819 4750 
Q 2544 4750 2975 4387 
Q 3406 4025 3406 3419 
Q 3406 3131 3298 2873 
Q 3191 2616 2906 2266 
Q 2828 2175 2409 1742 
Q 1991 1309 1228 531 
z
" transform="scale(0.015625)"/>
       </defs>
       <use xlink:href="#DejaVuSans-2212"/>
       <use xlink:href="#DejaVuSans-32" x="83.789062"/>
       <use xlink:href="#DejaVuSans-30" x="147.412109"/>
      </g>
     </g>
    </g>
    <g id="xtick_3">
     <g id="line2d_3">
      <g>
       <use xlink:href="#ma9ead8afc1" x="175.320318" y="307.584" style="stroke: #000000; stroke-width: 0.8"/>
      </g>
     </g>
     <g id="text_3">
      <!-- 0 -->
      <g transform="translate(172.139068 322.182437) scale(0.1 -0.1)">
       <use xlink:href="#DejaVuSans-30"/>
      </g>
     </g>
    </g>
    <g id="xtick_4">
     <g id="line2d_4">
      <g>
       <use xlink:href="#ma9ead8afc1" x="219.953709" y="307.584" style="stroke: #000000; stroke-width: 0.8"/>
      </g>
     </g>
     <g id="text_4">
      <!-- 20 -->
      <g transform="translate(213.591209 322.182437) scale(0.1 -0.1)">
       <use xlink:href="#DejaVuSans-32"/>
       <use xlink:href="#DejaVuSans-30" x="63.623047"/>
      </g>
     </g>
    </g>
    <g id="xtick_5">
     <g id="line2d_5">
      <g>
       <use xlink:href="#ma9ead8afc1" x="264.5871" y="307.584" style="stroke: #000000; stroke-width: 0.8"/>
      </g>
     </g>
     <g id="text_5">
      <!-- 40 -->
      <g transform="translate(258.2246 322.182437) scale(0.1 -0.1)">
       <use xlink:href="#DejaVuSans-34"/>
       <use xlink:href="#DejaVuSans-30" x="63.623047"/>
      </g>
     </g>
    </g>
    <g id="xtick_6">
     <g id="line2d_6">
      <g>
       <use xlink:href="#ma9ead8afc1" x="309.220491" y="307.584" style="stroke: #000000; stroke-width: 0.8"/>
      </g>
     </g>
     <g id="text_6">
      <!-- 60 -->
      <g transform="translate(302.857991 322.182437) scale(0.1 -0.1)">
       <defs>
        <path id="DejaVuSans-36" d="M 2113 2584 
Q 1688 2584 1439 2293 
Q 1191 2003 1191 1497 
Q 1191 994 1439 701 
Q 1688 409 2113 409 
Q 2538 409 2786 701 
Q 3034 994 3034 1497 
Q 3034 2003 2786 2293 
Q 2538 2584 2113 2584 
z
M 3366 4563 
L 3366 3988 
Q 3128 4100 2886 4159 
Q 2644 4219 2406 4219 
Q 1781 4219 1451 3797 
Q 1122 3375 1075 2522 
Q 1259 2794 1537 2939 
Q 1816 3084 2150 3084 
Q 2853 3084 3261 2657 
Q 3669 2231 3669 1497 
Q 3669 778 3244 343 
Q 2819 -91 2113 -91 
Q 1303 -91 875 529 
Q 447 1150 447 2328 
Q 447 3434 972 4092 
Q 1497 4750 2381 4750 
Q 2619 4750 2861 4703 
Q 3103 4656 3366 4563 
z
" transform="scale(0.015625)"/>
       </defs>
       <use xlink:href="#DejaVuSans-36"/>
       <use xlink:href="#DejaVuSans-30" x="63.623047"/>
      </g>
     </g>
    </g>
    <g id="xtick_7">
     <g id="line2d_7">
      <g>
       <use xlink:href="#ma9ead8afc1" x="353.853882" y="307.584" style="stroke: #000000; stroke-width: 0.8"/>
      </g>
     </g>
     <g id="text_7">
      <!-- 80 -->
      <g transform="translate(347.491382 322.182437) scale(0.1 -0.1)">
       <defs>
        <path id="DejaVuSans-38" d="M 2034 2216 
Q 1584 2216 1326 1975 
Q 1069 1734 1069 1313 
Q 1069 891 1326 650 
Q 1584 409 2034 409 
Q 2484 409 2743 651 
Q 3003 894 3003 1313 
Q 3003 1734 2745 1975 
Q 2488 2216 2034 2216 
z
M 1403 2484 
Q 997 2584 770 2862 
Q 544 3141 544 3541 
Q 544 4100 942 4425 
Q 1341 4750 2034 4750 
Q 2731 4750 3128 4425 
Q 3525 4100 3525 3541 
Q 3525 3141 3298 2862 
Q 3072 2584 2669 2484 
Q 3125 2378 3379 2068 
Q 3634 1759 3634 1313 
Q 3634 634 3220 271 
Q 2806 -91 2034 -91 
Q 1263 -91 848 271 
Q 434 634 434 1313 
Q 434 1759 690 2068 
Q 947 2378 1403 2484 
z
M 1172 3481 
Q 1172 3119 1398 2916 
Q 1625 2713 2034 2713 
Q 2441 2713 2670 2916 
Q 2900 3119 2900 3481 
Q 2900 3844 2670 4047 
Q 2441 4250 2034 4250 
Q 1625 4250 1398 4047 
Q 1172 3844 1172 3481 
z
" transform="scale(0.015625)"/>
       </defs>
       <use xlink:href="#DejaVuSans-38"/>
       <use xlink:href="#DejaVuSans-30" x="63.623047"/>
      </g>
     </g>
    </g>
    <g id="xtick_8">
     <g id="line2d_8">
      <g>
       <use xlink:href="#ma9ead8afc1" x="398.487273" y="307.584" style="stroke: #000000; stroke-width: 0.8"/>
      </g>
     </g>
     <g id="text_8">
      <!-- 100 -->
      <g transform="translate(388.943523 322.182437) scale(0.1 -0.1)">
       <defs>
        <path id="DejaVuSans-31" d="M 794 531 
L 1825 531 
L 1825 4091 
L 703 3866 
L 703 4441 
L 1819 4666 
L 2450 4666 
L 2450 531 
L 3481 531 
L 3481 0 
L 794 0 
L 794 531 
z
" transform="scale(0.015625)"/>
       </defs>
       <use xlink:href="#DejaVuSans-31"/>
       <use xlink:href="#DejaVuSans-30" x="63.623047"/>
       <use xlink:href="#DejaVuSans-30" x="127.246094"/>
      </g>
     </g>
    </g>
    <g id="text_9">
     <!-- x -->
     <g transform="translate(233.200625 335.860562) scale(0.1 -0.1)">
      <defs>
       <path id="DejaVuSans-78" d="M 3513 3500 
L 2247 1797 
L 3578 0 
L 2900 0 
L 1881 1375 
L 863 0 
L 184 0 
L 1544 1831 
L 300 3500 
L 978 3500 
L 1906 2253 
L 2834 3500 
L 3513 3500 
z
" transform="scale(0.015625)"/>
      </defs>
      <use xlink:href="#DejaVuSans-78"/>
     </g>
    </g>
   </g>
   <g id="matplotlib.axis_2">
    <g id="ytick_1">
     <g id="line2d_9">
      <defs>
       <path id="mf5933a28d6" d="M 0 0 
L -3.5 0 
" style="stroke: #000000; stroke-width: 0.8"/>
      </defs>
      <g>
       <use xlink:href="#mf5933a28d6" x="57.6" y="304.126979" style="stroke: #000000; stroke-width: 0.8"/>
      </g>
     </g>
     <g id="text_10">
      <!-- −60 -->
      <g transform="translate(29.495313 307.926198) scale(0.1 -0.1)">
       <use xlink:href="#DejaVuSans-2212"/>
       <use xlink:href="#DejaVuSans-36" x="83.789062"/>
       <use xlink:href="#DejaVuSans-30" x="147.412109"/>
      </g>
     </g>
    </g>
    <g id="ytick_2">
     <g id="line2d_10">
      <g>
       <use xlink:href="#mf5933a28d6" x="57.6" y="272.807107" style="stroke: #000000; stroke-width: 0.8"/>
      </g>
     </g>
     <g id="text_11">
      <!-- −40 -->
      <g transform="translate(29.495313 276.606326) scale(0.1 -0.1)">
       <use xlink:href="#DejaVuSans-2212"/>
       <use xlink:href="#DejaVuSans-34" x="83.789062"/>
       <use xlink:href="#DejaVuSans-30" x="147.412109"/>
      </g>
     </g>
    </g>
    <g id="ytick_3">
     <g id="line2d_11">
      <g>
       <use xlink:href="#mf5933a28d6" x="57.6" y="241.487235" style="stroke: #000000; stroke-width: 0.8"/>
      </g>
     </g>
     <g id="text_12">
      <!-- −20 -->
      <g transform="translate(29.495313 245.286453) scale(0.1 -0.1)">
       <use xlink:href="#DejaVuSans-2212"/>
       <use xlink:href="#DejaVuSans-32" x="83.789062"/>
       <use xlink:href="#DejaVuSans-30" x="147.412109"/>
      </g>
     </g>
    </g>
    <g id="ytick_4">
     <g id="line2d_12">
      <g>
       <use xlink:href="#mf5933a28d6" x="57.6" y="210.167362" style="stroke: #000000; stroke-width: 0.8"/>
      </g>
     </g>
     <g id="text_13">
      <!-- 0 -->
      <g transform="translate(44.2375 213.966581) scale(0.1 -0.1)">
       <use xlink:href="#DejaVuSans-30"/>
      </g>
     </g>
    </g>
    <g id="ytick_5">
     <g id="line2d_13">
      <g>
       <use xlink:href="#mf5933a28d6" x="57.6" y="178.84749" style="stroke: #000000; stroke-width: 0.8"/>
      </g>
     </g>
     <g id="text_14">
      <!-- 20 -->
      <g transform="translate(37.875 182.646708) scale(0.1 -0.1)">
       <use xlink:href="#DejaVuSans-32"/>
       <use xlink:href="#DejaVuSans-30" x="63.623047"/>
      </g>
     </g>
    </g>
    <g id="ytick_6">
     <g id="line2d_14">
      <g>
       <use xlink:href="#mf5933a28d6" x="57.6" y="147.527617" style="stroke: #000000; stroke-width: 0.8"/>
      </g>
     </g>
     <g id="text_15">
      <!-- 40 -->
      <g transform="translate(37.875 151.326836) scale(0.1 -0.1)">
       <use xlink:href="#DejaVuSans-34"/>
       <use xlink:href="#DejaVuSans-30" x="63.623047"/>
      </g>
     </g>
    </g>
    <g id="ytick_7">
     <g id="line2d_15">
      <g>
       <use xlink:href="#mf5933a28d6" x="57.6" y="116.207745" style="stroke: #000000; stroke-width: 0.8"/>
      </g>
     </g>
     <g id="text_16">
      <!-- 60 -->
      <g transform="translate(37.875 120.006964) scale(0.1 -0.1)">
       <use xlink:href="#DejaVuSans-36"/>
       <use xlink:href="#DejaVuSans-30" x="63.623047"/>
      </g>
     </g>
    </g>
    <g id="ytick_8">
     <g id="line2d_16">
      <g>
       <use xlink:href="#mf5933a28d6" x="57.6" y="84.887872" style="stroke: #000000; stroke-width: 0.8"/>
      </g>
     </g>
     <g id="text_17">
      <!-- 80 -->
      <g transform="translate(37.875 88.687091) scale(0.1 -0.1)">
       <use xlink:href="#DejaVuSans-38"/>
       <use xlink:href="#DejaVuSans-30" x="63.623047"/>
      </g>
     </g>
    </g>
    <g id="ytick_9">
     <g id="line2d_17">
      <g>
       <use xlink:href="#mf5933a28d6" x="57.6" y="53.568" style="stroke: #000000; stroke-width: 0.8"/>
      </g>
     </g>
     <g id="text_18">
      <!-- 100 -->
      <g transform="translate(31.5125 57.367219) scale(0.1 -0.1)">
       <use xlink:href="#DejaVuSans-31"/>
       <use xlink:href="#DejaVuSans-30" x="63.623047"/>
       <use xlink:href="#DejaVuSans-30" x="127.246094"/>
      </g>
     </g>
    </g>
    <g id="text_19">
     <!-- y -->
     <g transform="translate(23.415625 177.487375) rotate(-90) scale(0.1 -0.1)">
      <defs>
       <path id="DejaVuSans-79" d="M 2059 -325 
Q 1816 -950 1584 -1140 
Q 1353 -1331 966 -1331 
L 506 -1331 
L 506 -850 
L 844 -850 
Q 1081 -850 1212 -737 
Q 1344 -625 1503 -206 
L 1606 56 
L 191 3500 
L 800 3500 
L 1894 763 
L 2988 3500 
L 3597 3500 
L 2059 -325 
z
" transform="scale(0.015625)"/>
      </defs>
      <use xlink:href="#DejaVuSans-79"/>
     </g>
    </g>
   </g>
   <g id="line2d_18">
    <path d="M 296.219099 152.047473 
L 293.326301 146.065487 
L 289.532122 137.725395 
L 286.900572 131.875353 
L 286.900572 131.875353 
" clip-path="url(#p692269bdc4)" style="fill: none; stroke: #1f77b4; stroke-width: 1.5; stroke-linecap: square"/>
   </g>
   <g id="line2d_19">
    <defs>
     <path id="m161aa7143a" d="M -3 3 
L 3 -3 
M -3 -3 
L 3 3 
" style="stroke: #000000"/>
    </defs>
    <g clip-path="url(#p692269bdc4)">
     <use xlink:href="#m161aa7143a" x="296.219099" y="152.047473" style="stroke: #000000"/>
    </g>
   </g>
   <g id="line2d_20">
    <path d="M 224.383913 282.29243 
L 221.063706 276.445863 
L 217.122168 270.004644 
L 212.761873 263.296544 
L 207.220062 255.203514 
L 192.469448 234.257041 
L 175.327596 210.166932 
L 175.327596 210.166932 
" clip-path="url(#p692269bdc4)" style="fill: none; stroke: #ff7f0e; stroke-width: 1.5; stroke-linecap: square"/>
   </g>
   <g id="line2d_21">
    <g clip-path="url(#p692269bdc4)">
     <use xlink:href="#m161aa7143a" x="224.383913" y="282.29243" style="stroke: #000000"/>
    </g>
   </g>
   <g id="line2d_22">
    <path d="M 246.02901 258.922402 
L 240.587441 249.777767 
L 237.400991 244.823856 
L 234.369833 240.538242 
L 231.486644 236.882065 
L 228.744362 233.809585 
L 226.136192 231.268252 
L 223.655598 229.198702 
L 221.296308 227.534759 
L 219.052316 226.203437 
L 216.503646 224.93207 
L 211.478526 222.753403 
L 206.435515 220.781678 
L 198.831387 218.087201 
L 182.681247 212.613859 
L 175.328601 210.16486 
L 175.328601 210.16486 
" clip-path="url(#p692269bdc4)" style="fill: none; stroke: #2ca02c; stroke-width: 1.5; stroke-linecap: square"/>
   </g>
   <g id="line2d_23">
    <g clip-path="url(#p692269bdc4)">
     <use xlink:href="#m161aa7143a" x="246.02901" y="258.922402" style="stroke: #000000"/>
    </g>
   </g>
   <g id="line2d_24">
    <path d="M 287.091418 235.962602 
L 250.21497 201.768715 
L 244.459768 196.73155 
L 240.445663 193.479818 
L 237.292982 191.236788 
L 234.891808 189.802745 
L 232.593701 188.709469 
L 230.394021 187.957772 
L 228.287634 187.531486 
L 226.268915 187.397458 
L 224.331749 187.505554 
L 222.014998 187.87877 
L 219.376138 188.55216 
L 216.474645 189.546651 
L 212.996668 190.991608 
L 207.452755 193.580934 
L 200.369446 197.1132 
L 184.638652 205.282772 
L 175.330611 210.161054 
L 175.330611 210.161054 
" clip-path="url(#p692269bdc4)" style="fill: none; stroke: #d62728; stroke-width: 1.5; stroke-linecap: square"/>
   </g>
   <g id="line2d_25">
    <g clip-path="url(#p692269bdc4)">
     <use xlink:href="#m161aa7143a" x="287.091418" y="235.962602" style="stroke: #000000"/>
    </g>
   </g>
   <g id="line2d_26">
    <path d="M 146.13961 211.56087 
L 175.324055 210.163875 
L 175.324055 210.163875 
" clip-path="url(#p692269bdc4)" style="fill: none; stroke: #9467bd; stroke-width: 1.5; stroke-linecap: square"/>
   </g>
   <g id="line2d_27">
    <g clip-path="url(#p692269bdc4)">
     <use xlink:href="#m161aa7143a" x="146.13961" y="211.56087" style="stroke: #000000"/>
    </g>
   </g>
   <g id="line2d_28">
    <path d="M 290.981104 247.708867 
L 250.526907 207.324003 
L 244.742333 201.852672 
L 240.700132 198.289179 
L 237.516785 195.790469 
L 235.086137 194.153425 
L 232.754467 192.859536 
L 230.517822 191.912247 
L 228.37214 191.29961 
L 226.313253 190.99429 
L 224.336882 190.953559 
L 221.975766 191.184722 
L 219.291625 191.692704 
L 216.352334 192.474763 
L 212.853098 193.658062 
L 208.30039 195.460232 
L 199.519178 199.223717 
L 184.137294 206.150568 
L 175.330735 210.161352 
L 175.330735 210.161352 
" clip-path="url(#p692269bdc4)" style="fill: none; stroke: #8c564b; stroke-width: 1.5; stroke-linecap: square"/>
   </g>
   <g id="line2d_29">
    <g clip-path="url(#p692269bdc4)">
     <use xlink:href="#m161aa7143a" x="290.981104" y="247.708867" style="stroke: #000000"/>
    </g>
   </g>
   <g id="line2d_30">
    <path d="M 119.920188 138.130098 
L 166.614028 158.396779 
L 176.3566 162.855501 
L 181.849584 165.611828 
L 185.64626 167.785501 
L 188.069578 169.447453 
L 189.928762 171.042605 
L 191.29273 172.574513 
L 192.230538 174.046583 
L 192.807277 175.461814 
L 193.084079 176.822796 
L 193.118115 178.131711 
L 192.899955 179.697296 
L 192.380215 181.475769 
L 191.362047 183.944685 
L 189.991251 186.673158 
L 187.769932 190.540174 
L 183.691188 197.141349 
L 175.327551 210.160502 
L 175.327551 210.160502 
" clip-path="url(#p692269bdc4)" style="fill: none; stroke: #e377c2; stroke-width: 1.5; stroke-linecap: square"/>
   </g>
   <g id="line2d_31">
    <g clip-path="url(#p692269bdc4)">
     <use xlink:href="#m161aa7143a" x="119.920188" y="138.130098" style="stroke: #000000"/>
    </g>
   </g>
   <g id="line2d_32">
    <path d="M 295.006367 191.734535 
L 270.913012 179.498823 
L 266.95243 177.203951 
L 264.289335 175.439744 
L 262.10886 173.73355 
L 260.424015 172.081644 
L 259.484005 170.876923 
L 258.813234 169.701017 
L 258.398615 168.553971 
L 258.221757 167.436288 
L 258.258957 166.348937 
L 258.481208 165.293343 
L 259.005326 163.93862 
L 259.888584 162.338315 
L 261.954798 159.18412 
L 263.950885 156.606683 
L 266.92013 153.179795 
L 273.756788 145.744061 
L 286.891865 131.878443 
L 286.891865 131.878443 
" clip-path="url(#p692269bdc4)" style="fill: none; stroke: #7f7f7f; stroke-width: 1.5; stroke-linecap: square"/>
   </g>
   <g id="line2d_33">
    <g clip-path="url(#p692269bdc4)">
     <use xlink:href="#m161aa7143a" x="295.006367" y="191.734535" style="stroke: #000000"/>
    </g>
   </g>
   <g id="line2d_34">
    <path d="M 182.887463 134.480811 
L 216.18453 158.571571 
L 222.702415 163.005392 
L 225.973485 164.975294 
L 228.254669 166.099529 
L 229.846872 166.668862 
L 231.238044 166.960624 
L 232.73766 167.034289 
L 233.938824 166.8647 
L 235.190567 166.475168 
L 236.826916 165.734341 
L 239.245631 164.383004 
L 243.484703 161.727125 
L 250.663551 156.897012 
L 273.578583 141.087701 
L 286.887572 131.878957 
L 286.887572 131.878957 
" clip-path="url(#p692269bdc4)" style="fill: none; stroke: #bcbd22; stroke-width: 1.5; stroke-linecap: square"/>
   </g>
   <g id="line2d_35">
    <g clip-path="url(#p692269bdc4)">
     <use xlink:href="#m161aa7143a" x="182.887463" y="134.480811" style="stroke: #000000"/>
    </g>
   </g>
   <g id="line2d_36">
    <path d="M 73.832727 295.488 
L 175.320718 210.167721 
L 175.320718 210.167721 
" clip-path="url(#p692269bdc4)" style="fill: none; stroke: #17becf; stroke-width: 1.5; stroke-linecap: square"/>
   </g>
   <g id="line2d_37">
    <g clip-path="url(#p692269bdc4)">
     <use xlink:href="#m161aa7143a" x="73.832727" y="295.488" style="stroke: #000000"/>
    </g>
   </g>
   <g id="line2d_38">
    <path d="M 175.320318 272.807107 
L 175.320318 268.33284 
L 175.320318 263.858572 
L 175.320318 259.384305 
L 175.320318 254.910037 
L 175.320318 250.43577 
L 175.320319 245.961502 
L 175.32032 241.487235 
L 175.320323 237.012967 
L 175.320335 232.5387 
L 175.32037 228.064432 
L 175.320482 223.590165 
L 175.320833 219.115897 
L 175.321934 214.64163 
L 175.325384 210.167362 
L 175.336201 205.693095 
L 175.370107 201.218827 
L 175.476294 196.74456 
L 175.807958 192.270292 
L 176.835278 187.796025 
L 179.936934 183.321757 
L 188.621395 178.84749 
L 208.565123 174.373222 
L 239.028525 169.898955 
L 265.332325 165.424687 
L 278.981366 160.95042 
L 284.248896 156.476152 
L 286.043184 152.001885 
L 286.627892 147.527617 
L 286.815659 143.05335 
L 286.875673 138.579082 
L 286.894825 134.104815 
L 286.900935 129.630547 
L 286.902883 125.15628 
L 286.903504 120.682012 
L 286.903703 116.207745 
L 286.903766 111.733477 
L 286.903786 107.25921 
L 286.903792 102.784942 
L 286.903794 98.310675 
L 286.903795 93.836407 
L 286.903795 89.36214 
L 286.903795 84.887872 
L 286.903795 80.413605 
L 286.903795 75.939337 
L 286.903795 71.46507 
L 286.903795 66.990802 
L 286.903795 62.516535 
L 286.903795 58.042267 
L 286.903795 53.568 
" clip-path="url(#p692269bdc4)" style="fill: none; stroke-dasharray: 5.55,2.4; stroke-dashoffset: 0; stroke: #1f77b4; stroke-width: 1.5"/>
   </g>
   <g id="line2d_39">
    <path d="M 86.053536 210.167362 
L 92.429735 210.167362 
L 98.805934 210.167362 
L 105.182132 210.167362 
L 111.558331 210.167362 
L 117.93453 210.167362 
L 124.310728 210.167362 
L 130.686927 210.167361 
L 137.063126 210.167358 
L 143.439325 210.16735 
L 149.815523 210.167325 
L 156.191722 210.167247 
L 162.567921 210.167001 
L 168.944119 210.166229 
L 175.320318 210.163808 
L 181.696517 210.156217 
L 188.072715 210.132424 
L 194.448914 210.057912 
L 200.825113 209.825178 
L 207.201312 209.104294 
L 213.57751 206.927818 
L 219.953709 200.833811 
L 226.329908 186.839019 
L 232.706106 165.462426 
L 239.082305 147.004683 
L 245.458504 137.42696 
L 251.834703 133.730661 
L 258.210901 132.471584 
L 264.5871 132.061287 
L 270.963299 131.929527 
L 277.339497 131.887415 
L 283.715696 131.873975 
L 290.091895 131.869688 
L 296.468093 131.868321 
L 302.844292 131.867885 
L 309.220491 131.867746 
L 315.59669 131.867702 
L 321.972888 131.867688 
L 328.349087 131.867683 
L 334.725286 131.867682 
L 341.101484 131.867681 
L 347.477683 131.867681 
L 353.853882 131.867681 
L 360.230081 131.867681 
L 366.606279 131.867681 
L 372.982478 131.867681 
L 379.358677 131.867681 
L 385.734875 131.867681 
L 392.111074 131.867681 
L 398.487273 131.867681 
" clip-path="url(#p692269bdc4)" style="fill: none; stroke-dasharray: 5.55,2.4; stroke-dashoffset: 0; stroke: #ff7f0e; stroke-width: 1.5"/>
   </g>
   <g id="patch_3">
    <path d="M 57.6 307.584 
L 57.6 41.472 
" style="fill: none; stroke: #000000; stroke-width: 0.8; stroke-linejoin: miter; stroke-linecap: square"/>
   </g>
   <g id="patch_4">
    <path d="M 414.72 307.584 
L 414.72 41.472 
" style="fill: none; stroke: #000000; stroke-width: 0.8; stroke-linejoin: miter; stroke-linecap: square"/>
   </g>
   <g id="patch_5">
    <path d="M 57.6 307.584 
L 414.72 307.584 
" style="fill: none; stroke: #000000; stroke-width: 0.8; stroke-linejoin: miter; stroke-linecap: square"/>
   </g>
   <g id="patch_6">
    <path d="M 57.6 41.472 
L 414.72 41.472 
" style="fill: none; stroke: #000000; stroke-width: 0.8; stroke-linejoin: miter; stroke-linecap: square"/>
   </g>
   <g id="text_20">
    <!-- (54, 37) -->
    <g transform="translate(302.914108 152.047473) scale(0.1 -0.1)">
     <defs>
      <path id="DejaVuSans-28" d="M 1984 4856 
Q 1566 4138 1362 3434 
Q 1159 2731 1159 2009 
Q 1159 1288 1364 580 
Q 1569 -128 1984 -844 
L 1484 -844 
Q 1016 -109 783 600 
Q 550 1309 550 2009 
Q 550 2706 781 3412 
Q 1013 4119 1484 4856 
L 1984 4856 
z
" transform="scale(0.015625)"/>
      <path id="DejaVuSans-35" d="M 691 4666 
L 3169 4666 
L 3169 4134 
L 1269 4134 
L 1269 2991 
Q 1406 3038 1543 3061 
Q 1681 3084 1819 3084 
Q 2600 3084 3056 2656 
Q 3513 2228 3513 1497 
Q 3513 744 3044 326 
Q 2575 -91 1722 -91 
Q 1428 -91 1123 -41 
Q 819 9 494 109 
L 494 744 
Q 775 591 1075 516 
Q 1375 441 1709 441 
Q 2250 441 2565 725 
Q 2881 1009 2881 1497 
Q 2881 1984 2565 2268 
Q 2250 2553 1709 2553 
Q 1456 2553 1204 2497 
Q 953 2441 691 2322 
L 691 4666 
z
" transform="scale(0.015625)"/>
      <path id="DejaVuSans-2c" d="M 750 794 
L 1409 794 
L 1409 256 
L 897 -744 
L 494 -744 
L 750 256 
L 750 794 
z
" transform="scale(0.015625)"/>
      <path id="DejaVuSans-20" transform="scale(0.015625)"/>
      <path id="DejaVuSans-33" d="M 2597 2516 
Q 3050 2419 3304 2112 
Q 3559 1806 3559 1356 
Q 3559 666 3084 287 
Q 2609 -91 1734 -91 
Q 1441 -91 1130 -33 
Q 819 25 488 141 
L 488 750 
Q 750 597 1062 519 
Q 1375 441 1716 441 
Q 2309 441 2620 675 
Q 2931 909 2931 1356 
Q 2931 1769 2642 2001 
Q 2353 2234 1838 2234 
L 1294 2234 
L 1294 2753 
L 1863 2753 
Q 2328 2753 2575 2939 
Q 2822 3125 2822 3475 
Q 2822 3834 2567 4026 
Q 2313 4219 1838 4219 
Q 1578 4219 1281 4162 
Q 984 4106 628 3988 
L 628 4550 
Q 988 4650 1302 4700 
Q 1616 4750 1894 4750 
Q 2613 4750 3031 4423 
Q 3450 4097 3450 3541 
Q 3450 3153 3228 2886 
Q 3006 2619 2597 2516 
z
" transform="scale(0.015625)"/>
      <path id="DejaVuSans-37" d="M 525 4666 
L 3525 4666 
L 3525 4397 
L 1831 0 
L 1172 0 
L 2766 4134 
L 525 4134 
L 525 4666 
z
" transform="scale(0.015625)"/>
      <path id="DejaVuSans-29" d="M 513 4856 
L 1013 4856 
Q 1481 4119 1714 3412 
Q 1947 2706 1947 2009 
Q 1947 1309 1714 600 
Q 1481 -109 1013 -844 
L 513 -844 
Q 928 -128 1133 580 
Q 1338 1288 1338 2009 
Q 1338 2731 1133 3434 
Q 928 4138 513 4856 
z
" transform="scale(0.015625)"/>
     </defs>
     <use xlink:href="#DejaVuSans-28"/>
     <use xlink:href="#DejaVuSans-35" x="39.013672"/>
     <use xlink:href="#DejaVuSans-34" x="102.636719"/>
     <use xlink:href="#DejaVuSans-2c" x="166.259766"/>
     <use xlink:href="#DejaVuSans-20" x="198.046875"/>
     <use xlink:href="#DejaVuSans-33" x="229.833984"/>
     <use xlink:href="#DejaVuSans-37" x="293.457031"/>
     <use xlink:href="#DejaVuSans-29" x="357.080078"/>
    </g>
   </g>
   <g id="text_21">
    <!-- (22, -46) -->
    <g transform="translate(231.078922 282.29243) scale(0.1 -0.1)">
     <defs>
      <path id="DejaVuSans-2d" d="M 313 2009 
L 1997 2009 
L 1997 1497 
L 313 1497 
L 313 2009 
z
" transform="scale(0.015625)"/>
     </defs>
     <use xlink:href="#DejaVuSans-28"/>
     <use xlink:href="#DejaVuSans-32" x="39.013672"/>
     <use xlink:href="#DejaVuSans-32" x="102.636719"/>
     <use xlink:href="#DejaVuSans-2c" x="166.259766"/>
     <use xlink:href="#DejaVuSans-20" x="198.046875"/>
     <use xlink:href="#DejaVuSans-2d" x="229.833984"/>
     <use xlink:href="#DejaVuSans-34" x="265.917969"/>
     <use xlink:href="#DejaVuSans-36" x="329.541016"/>
     <use xlink:href="#DejaVuSans-29" x="393.164062"/>
    </g>
   </g>
   <g id="text_22">
    <!-- (32, -31) -->
    <g transform="translate(252.724019 258.922402) scale(0.1 -0.1)">
     <use xlink:href="#DejaVuSans-28"/>
     <use xlink:href="#DejaVuSans-33" x="39.013672"/>
     <use xlink:href="#DejaVuSans-32" x="102.636719"/>
     <use xlink:href="#DejaVuSans-2c" x="166.259766"/>
     <use xlink:href="#DejaVuSans-20" x="198.046875"/>
     <use xlink:href="#DejaVuSans-2d" x="229.833984"/>
     <use xlink:href="#DejaVuSans-33" x="265.917969"/>
     <use xlink:href="#DejaVuSans-31" x="329.541016"/>
     <use xlink:href="#DejaVuSans-29" x="393.164062"/>
    </g>
   </g>
   <g id="text_23">
    <!-- (50, -16) -->
    <g transform="translate(293.786427 235.962602) scale(0.1 -0.1)">
     <use xlink:href="#DejaVuSans-28"/>
     <use xlink:href="#DejaVuSans-35" x="39.013672"/>
     <use xlink:href="#DejaVuSans-30" x="102.636719"/>
     <use xlink:href="#DejaVuSans-2c" x="166.259766"/>
     <use xlink:href="#DejaVuSans-20" x="198.046875"/>
     <use xlink:href="#DejaVuSans-2d" x="229.833984"/>
     <use xlink:href="#DejaVuSans-31" x="265.917969"/>
     <use xlink:href="#DejaVuSans-36" x="329.541016"/>
     <use xlink:href="#DejaVuSans-29" x="393.164062"/>
    </g>
   </g>
   <g id="text_24">
    <!-- (-13, -1) -->
    <g transform="translate(152.834619 211.56087) scale(0.1 -0.1)">
     <use xlink:href="#DejaVuSans-28"/>
     <use xlink:href="#DejaVuSans-2d" x="39.013672"/>
     <use xlink:href="#DejaVuSans-31" x="75.097656"/>
     <use xlink:href="#DejaVuSans-33" x="138.720703"/>
     <use xlink:href="#DejaVuSans-2c" x="202.34375"/>
     <use xlink:href="#DejaVuSans-20" x="234.130859"/>
     <use xlink:href="#DejaVuSans-2d" x="265.917969"/>
     <use xlink:href="#DejaVuSans-31" x="302.001953"/>
     <use xlink:href="#DejaVuSans-29" x="365.625"/>
    </g>
   </g>
   <g id="text_25">
    <!-- (52, -24) -->
    <g transform="translate(297.676112 247.708867) scale(0.1 -0.1)">
     <use xlink:href="#DejaVuSans-28"/>
     <use xlink:href="#DejaVuSans-35" x="39.013672"/>
     <use xlink:href="#DejaVuSans-32" x="102.636719"/>
     <use xlink:href="#DejaVuSans-2c" x="166.259766"/>
     <use xlink:href="#DejaVuSans-20" x="198.046875"/>
     <use xlink:href="#DejaVuSans-2d" x="229.833984"/>
     <use xlink:href="#DejaVuSans-32" x="265.917969"/>
     <use xlink:href="#DejaVuSans-34" x="329.541016"/>
     <use xlink:href="#DejaVuSans-29" x="393.164062"/>
    </g>
   </g>
   <g id="text_26">
    <!-- (-25, 46) -->
    <g transform="translate(126.615196 138.130098) scale(0.1 -0.1)">
     <use xlink:href="#DejaVuSans-28"/>
     <use xlink:href="#DejaVuSans-2d" x="39.013672"/>
     <use xlink:href="#DejaVuSans-32" x="75.097656"/>
     <use xlink:href="#DejaVuSans-35" x="138.720703"/>
     <use xlink:href="#DejaVuSans-2c" x="202.34375"/>
     <use xlink:href="#DejaVuSans-20" x="234.130859"/>
     <use xlink:href="#DejaVuSans-34" x="265.917969"/>
     <use xlink:href="#DejaVuSans-36" x="329.541016"/>
     <use xlink:href="#DejaVuSans-29" x="393.164062"/>
    </g>
   </g>
   <g id="text_27">
    <!-- (54, 12) -->
    <g transform="translate(301.701375 191.734535) scale(0.1 -0.1)">
     <use xlink:href="#DejaVuSans-28"/>
     <use xlink:href="#DejaVuSans-35" x="39.013672"/>
     <use xlink:href="#DejaVuSans-34" x="102.636719"/>
     <use xlink:href="#DejaVuSans-2c" x="166.259766"/>
     <use xlink:href="#DejaVuSans-20" x="198.046875"/>
     <use xlink:href="#DejaVuSans-31" x="229.833984"/>
     <use xlink:href="#DejaVuSans-32" x="293.457031"/>
     <use xlink:href="#DejaVuSans-29" x="357.080078"/>
    </g>
   </g>
   <g id="text_28">
    <!-- (3, 48) -->
    <g transform="translate(189.582472 134.480811) scale(0.1 -0.1)">
     <use xlink:href="#DejaVuSans-28"/>
     <use xlink:href="#DejaVuSans-33" x="39.013672"/>
     <use xlink:href="#DejaVuSans-2c" x="102.636719"/>
     <use xlink:href="#DejaVuSans-20" x="134.423828"/>
     <use xlink:href="#DejaVuSans-34" x="166.210938"/>
     <use xlink:href="#DejaVuSans-38" x="229.833984"/>
     <use xlink:href="#DejaVuSans-29" x="293.457031"/>
    </g>
   </g>
   <g id="text_29">
    <!-- (-45, -54) -->
    <g transform="translate(80.527736 295.488) scale(0.1 -0.1)">
     <use xlink:href="#DejaVuSans-28"/>
     <use xlink:href="#DejaVuSans-2d" x="39.013672"/>
     <use xlink:href="#DejaVuSans-34" x="75.097656"/>
     <use xlink:href="#DejaVuSans-35" x="138.720703"/>
     <use xlink:href="#DejaVuSans-2c" x="202.34375"/>
     <use xlink:href="#DejaVuSans-20" x="234.130859"/>
     <use xlink:href="#DejaVuSans-2d" x="265.917969"/>
     <use xlink:href="#DejaVuSans-35" x="302.001953"/>
     <use xlink:href="#DejaVuSans-34" x="365.625"/>
     <use xlink:href="#DejaVuSans-29" x="429.248047"/>
    </g>
   </g>
  </g>
 </g>
 <defs>
  <clipPath id="p692269bdc4">
   <rect x="57.6" y="41.472" width="357.12" height="266.112"/>
  </clipPath>
 </defs>
</svg>
