<?xml version="1.0" encoding="utf-8" standalone="no"?>
<!DOCTYPE svg PUBLIC "-//W3C//DTD SVG 1.1//EN"
  "http://www.w3.org/Graphics/SVG/1.1/DTD/svg11.dtd">
<svg xmlns:xlink="http://www.w3.org/1999/xlink" width="460.8pt" height="345.6pt" viewBox="0 0 460.8 345.6" xmlns="http://www.w3.org/2000/svg" version="1.1">
 <metadata>
  <rdf:RDF xmlns:dc="http://purl.org/dc/elements/1.1/" xmlns:cc="http://creativecommons.org/ns#" xmlns:rdf="http://www.w3.org/1999/02/22-rdf-syntax-ns#">
   <cc:Work>
    <dc:type rdf:resource="http://purl.org/dc/dcmitype/StillImage"/>
    <dc:date>2024-04-16T17:42:53.159602</dc:date>
    <dc:format>image/svg+xml</dc:format>
    <dc:creator>
     <cc:Agent>
      <dc:title>Matplotlib v3.8.3, https://matplotlib.org/</dc:title>
     </cc:Agent>
    </dc:creator>
   </cc:Work>
  </rdf:RDF>
 </metadata>
 <defs>
  <style type="text/css">*{stroke-linejoin: round; stroke-linecap: butt}</style>
 </defs>
 <g id="figure_1">
  <g id="patch_1">
   <path d="M 0 345.6 
L 460.8 345.6 
L 460.8 0 
L 0 0 
z
" style="fill: #ffffff"/>
  </g>
  <g id="axes_1">
   <g id="patch_2">
    <path d="M 57.6 307.584 
L 414.72 307.584 
L 414.72 41.472 
L 57.6 41.472 
z
" style="fill: #ffffff"/>
   </g>
   <g id="matplotlib.axis_1">
    <g id="xtick_1">
     <g id="line2d_1">
      <defs>
       <path id="m1179420e9a" d="M 0 0 
L 0 3.5 
" style="stroke: #000000; stroke-width: 0.8"/>
      </defs>
      <g>
       <use xlink:href="#m1179420e9a" x="80.618483" y="307.584" style="stroke: #000000; stroke-width: 0.8"/>
      </g>
     </g>
     <g id="text_1">
      <!-- −40 -->
      <g transform="translate(70.06614 322.182437) scale(0.1 -0.1)">
       <defs>
        <path id="DejaVuSans-2212" d="M 678 2272 
L 4684 2272 
L 4684 1741 
L 678 1741 
L 678 2272 
z
" transform="scale(0.015625)"/>
        <path id="DejaVuSans-34" d="M 2419 4116 
L 825 1625 
L 2419 1625 
L 2419 4116 
z
M 2253 4666 
L 3047 4666 
L 3047 1625 
L 3713 1625 
L 3713 1100 
L 3047 1100 
L 3047 0 
L 2419 0 
L 2419 1100 
L 313 1100 
L 313 1709 
L 2253 4666 
z
" transform="scale(0.015625)"/>
        <path id="DejaVuSans-30" d="M 2034 4250 
Q 1547 4250 1301 3770 
Q 1056 3291 1056 2328 
Q 1056 1369 1301 889 
Q 1547 409 2034 409 
Q 2525 409 2770 889 
Q 3016 1369 3016 2328 
Q 3016 3291 2770 3770 
Q 2525 4250 2034 4250 
z
M 2034 4750 
Q 2819 4750 3233 4129 
Q 3647 3509 3647 2328 
Q 3647 1150 3233 529 
Q 2819 -91 2034 -91 
Q 1250 -91 836 529 
Q 422 1150 422 2328 
Q 422 3509 836 4129 
Q 1250 4750 2034 4750 
z
" transform="scale(0.015625)"/>
       </defs>
       <use xlink:href="#DejaVuSans-2212"/>
       <use xlink:href="#DejaVuSans-34" x="83.789062"/>
       <use xlink:href="#DejaVuSans-30" x="147.412109"/>
      </g>
     </g>
    </g>
    <g id="xtick_2">
     <g id="line2d_2">
      <g>
       <use xlink:href="#m1179420e9a" x="126.02831" y="307.584" style="stroke: #000000; stroke-width: 0.8"/>
      </g>
     </g>
     <g id="text_2">
      <!-- −20 -->
      <g transform="translate(115.475967 322.182437) scale(0.1 -0.1)">
       <defs>
        <path id="DejaVuSans-32" d="M 1228 531 
L 3431 531 
L 3431 0 
L 469 0 
L 469 531 
Q 828 903 1448 1529 
Q 2069 2156 2228 2338 
Q 2531 2678 2651 2914 
Q 2772 3150 2772 3378 
Q 2772 3750 2511 3984 
Q 2250 4219 1831 4219 
Q 1534 4219 1204 4116 
Q 875 4013 500 3803 
L 500 4441 
Q 881 4594 1212 4672 
Q 1544 4750 1819 4750 
Q 2544 4750 2975 4387 
Q 3406 4025 3406 3419 
Q 3406 3131 3298 2873 
Q 3191 2616 2906 2266 
Q 2828 2175 2409 1742 
Q 1991 1309 1228 531 
z
" transform="scale(0.015625)"/>
       </defs>
       <use xlink:href="#DejaVuSans-2212"/>
       <use xlink:href="#DejaVuSans-32" x="83.789062"/>
       <use xlink:href="#DejaVuSans-30" x="147.412109"/>
      </g>
     </g>
    </g>
    <g id="xtick_3">
     <g id="line2d_3">
      <g>
       <use xlink:href="#m1179420e9a" x="171.438138" y="307.584" style="stroke: #000000; stroke-width: 0.8"/>
      </g>
     </g>
     <g id="text_3">
      <!-- 0 -->
      <g transform="translate(168.256888 322.182437) scale(0.1 -0.1)">
       <use xlink:href="#DejaVuSans-30"/>
      </g>
     </g>
    </g>
    <g id="xtick_4">
     <g id="line2d_4">
      <g>
       <use xlink:href="#m1179420e9a" x="216.847965" y="307.584" style="stroke: #000000; stroke-width: 0.8"/>
      </g>
     </g>
     <g id="text_4">
      <!-- 20 -->
      <g transform="translate(210.485465 322.182437) scale(0.1 -0.1)">
       <use xlink:href="#DejaVuSans-32"/>
       <use xlink:href="#DejaVuSans-30" x="63.623047"/>
      </g>
     </g>
    </g>
    <g id="xtick_5">
     <g id="line2d_5">
      <g>
       <use xlink:href="#m1179420e9a" x="262.257792" y="307.584" style="stroke: #000000; stroke-width: 0.8"/>
      </g>
     </g>
     <g id="text_5">
      <!-- 40 -->
      <g transform="translate(255.895292 322.182437) scale(0.1 -0.1)">
       <use xlink:href="#DejaVuSans-34"/>
       <use xlink:href="#DejaVuSans-30" x="63.623047"/>
      </g>
     </g>
    </g>
    <g id="xtick_6">
     <g id="line2d_6">
      <g>
       <use xlink:href="#m1179420e9a" x="307.667619" y="307.584" style="stroke: #000000; stroke-width: 0.8"/>
      </g>
     </g>
     <g id="text_6">
      <!-- 60 -->
      <g transform="translate(301.305119 322.182437) scale(0.1 -0.1)">
       <defs>
        <path id="DejaVuSans-36" d="M 2113 2584 
Q 1688 2584 1439 2293 
Q 1191 2003 1191 1497 
Q 1191 994 1439 701 
Q 1688 409 2113 409 
Q 2538 409 2786 701 
Q 3034 994 3034 1497 
Q 3034 2003 2786 2293 
Q 2538 2584 2113 2584 
z
M 3366 4563 
L 3366 3988 
Q 3128 4100 2886 4159 
Q 2644 4219 2406 4219 
Q 1781 4219 1451 3797 
Q 1122 3375 1075 2522 
Q 1259 2794 1537 2939 
Q 1816 3084 2150 3084 
Q 2853 3084 3261 2657 
Q 3669 2231 3669 1497 
Q 3669 778 3244 343 
Q 2819 -91 2113 -91 
Q 1303 -91 875 529 
Q 447 1150 447 2328 
Q 447 3434 972 4092 
Q 1497 4750 2381 4750 
Q 2619 4750 2861 4703 
Q 3103 4656 3366 4563 
z
" transform="scale(0.015625)"/>
       </defs>
       <use xlink:href="#DejaVuSans-36"/>
       <use xlink:href="#DejaVuSans-30" x="63.623047"/>
      </g>
     </g>
    </g>
    <g id="xtick_7">
     <g id="line2d_7">
      <g>
       <use xlink:href="#m1179420e9a" x="353.077446" y="307.584" style="stroke: #000000; stroke-width: 0.8"/>
      </g>
     </g>
     <g id="text_7">
      <!-- 80 -->
      <g transform="translate(346.714946 322.182437) scale(0.1 -0.1)">
       <defs>
        <path id="DejaVuSans-38" d="M 2034 2216 
Q 1584 2216 1326 1975 
Q 1069 1734 1069 1313 
Q 1069 891 1326 650 
Q 1584 409 2034 409 
Q 2484 409 2743 651 
Q 3003 894 3003 1313 
Q 3003 1734 2745 1975 
Q 2488 2216 2034 2216 
z
M 1403 2484 
Q 997 2584 770 2862 
Q 544 3141 544 3541 
Q 544 4100 942 4425 
Q 1341 4750 2034 4750 
Q 2731 4750 3128 4425 
Q 3525 4100 3525 3541 
Q 3525 3141 3298 2862 
Q 3072 2584 2669 2484 
Q 3125 2378 3379 2068 
Q 3634 1759 3634 1313 
Q 3634 634 3220 271 
Q 2806 -91 2034 -91 
Q 1263 -91 848 271 
Q 434 634 434 1313 
Q 434 1759 690 2068 
Q 947 2378 1403 2484 
z
M 1172 3481 
Q 1172 3119 1398 2916 
Q 1625 2713 2034 2713 
Q 2441 2713 2670 2916 
Q 2900 3119 2900 3481 
Q 2900 3844 2670 4047 
Q 2441 4250 2034 4250 
Q 1625 4250 1398 4047 
Q 1172 3844 1172 3481 
z
" transform="scale(0.015625)"/>
       </defs>
       <use xlink:href="#DejaVuSans-38"/>
       <use xlink:href="#DejaVuSans-30" x="63.623047"/>
      </g>
     </g>
    </g>
    <g id="xtick_8">
     <g id="line2d_8">
      <g>
       <use xlink:href="#m1179420e9a" x="398.487273" y="307.584" style="stroke: #000000; stroke-width: 0.8"/>
      </g>
     </g>
     <g id="text_8">
      <!-- 100 -->
      <g transform="translate(388.943523 322.182437) scale(0.1 -0.1)">
       <defs>
        <path id="DejaVuSans-31" d="M 794 531 
L 1825 531 
L 1825 4091 
L 703 3866 
L 703 4441 
L 1819 4666 
L 2450 4666 
L 2450 531 
L 3481 531 
L 3481 0 
L 794 0 
L 794 531 
z
" transform="scale(0.015625)"/>
       </defs>
       <use xlink:href="#DejaVuSans-31"/>
       <use xlink:href="#DejaVuSans-30" x="63.623047"/>
       <use xlink:href="#DejaVuSans-30" x="127.246094"/>
      </g>
     </g>
    </g>
    <g id="text_9">
     <!-- x -->
     <g transform="translate(233.200625 335.860562) scale(0.1 -0.1)">
      <defs>
       <path id="DejaVuSans-78" d="M 3513 3500 
L 2247 1797 
L 3578 0 
L 2900 0 
L 1881 1375 
L 863 0 
L 184 0 
L 1544 1831 
L 300 3500 
L 978 3500 
L 1906 2253 
L 2834 3500 
L 3513 3500 
z
" transform="scale(0.015625)"/>
      </defs>
      <use xlink:href="#DejaVuSans-78"/>
     </g>
    </g>
   </g>
   <g id="matplotlib.axis_2">
    <g id="ytick_1">
     <g id="line2d_9">
      <defs>
       <path id="m9595fb7912" d="M 0 0 
L -3.5 0 
" style="stroke: #000000; stroke-width: 0.8"/>
      </defs>
      <g>
       <use xlink:href="#m9595fb7912" x="57.6" y="305.927843" style="stroke: #000000; stroke-width: 0.8"/>
      </g>
     </g>
     <g id="text_10">
      <!-- −60 -->
      <g transform="translate(29.495313 309.727062) scale(0.1 -0.1)">
       <use xlink:href="#DejaVuSans-2212"/>
       <use xlink:href="#DejaVuSans-36" x="83.789062"/>
       <use xlink:href="#DejaVuSans-30" x="147.412109"/>
      </g>
     </g>
    </g>
    <g id="ytick_2">
     <g id="line2d_10">
      <g>
       <use xlink:href="#m9595fb7912" x="57.6" y="274.382863" style="stroke: #000000; stroke-width: 0.8"/>
      </g>
     </g>
     <g id="text_11">
      <!-- −40 -->
      <g transform="translate(29.495313 278.182081) scale(0.1 -0.1)">
       <use xlink:href="#DejaVuSans-2212"/>
       <use xlink:href="#DejaVuSans-34" x="83.789062"/>
       <use xlink:href="#DejaVuSans-30" x="147.412109"/>
      </g>
     </g>
    </g>
    <g id="ytick_3">
     <g id="line2d_11">
      <g>
       <use xlink:href="#m9595fb7912" x="57.6" y="242.837882" style="stroke: #000000; stroke-width: 0.8"/>
      </g>
     </g>
     <g id="text_12">
      <!-- −20 -->
      <g transform="translate(29.495313 246.637101) scale(0.1 -0.1)">
       <use xlink:href="#DejaVuSans-2212"/>
       <use xlink:href="#DejaVuSans-32" x="83.789062"/>
       <use xlink:href="#DejaVuSans-30" x="147.412109"/>
      </g>
     </g>
    </g>
    <g id="ytick_4">
     <g id="line2d_12">
      <g>
       <use xlink:href="#m9595fb7912" x="57.6" y="211.292902" style="stroke: #000000; stroke-width: 0.8"/>
      </g>
     </g>
     <g id="text_13">
      <!-- 0 -->
      <g transform="translate(44.2375 215.092121) scale(0.1 -0.1)">
       <use xlink:href="#DejaVuSans-30"/>
      </g>
     </g>
    </g>
    <g id="ytick_5">
     <g id="line2d_13">
      <g>
       <use xlink:href="#m9595fb7912" x="57.6" y="179.747921" style="stroke: #000000; stroke-width: 0.8"/>
      </g>
     </g>
     <g id="text_14">
      <!-- 20 -->
      <g transform="translate(37.875 183.54714) scale(0.1 -0.1)">
       <use xlink:href="#DejaVuSans-32"/>
       <use xlink:href="#DejaVuSans-30" x="63.623047"/>
      </g>
     </g>
    </g>
    <g id="ytick_6">
     <g id="line2d_14">
      <g>
       <use xlink:href="#m9595fb7912" x="57.6" y="148.202941" style="stroke: #000000; stroke-width: 0.8"/>
      </g>
     </g>
     <g id="text_15">
      <!-- 40 -->
      <g transform="translate(37.875 152.00216) scale(0.1 -0.1)">
       <use xlink:href="#DejaVuSans-34"/>
       <use xlink:href="#DejaVuSans-30" x="63.623047"/>
      </g>
     </g>
    </g>
    <g id="ytick_7">
     <g id="line2d_15">
      <g>
       <use xlink:href="#m9595fb7912" x="57.6" y="116.657961" style="stroke: #000000; stroke-width: 0.8"/>
      </g>
     </g>
     <g id="text_16">
      <!-- 60 -->
      <g transform="translate(37.875 120.457179) scale(0.1 -0.1)">
       <use xlink:href="#DejaVuSans-36"/>
       <use xlink:href="#DejaVuSans-30" x="63.623047"/>
      </g>
     </g>
    </g>
    <g id="ytick_8">
     <g id="line2d_16">
      <g>
       <use xlink:href="#m9595fb7912" x="57.6" y="85.11298" style="stroke: #000000; stroke-width: 0.8"/>
      </g>
     </g>
     <g id="text_17">
      <!-- 80 -->
      <g transform="translate(37.875 88.912199) scale(0.1 -0.1)">
       <use xlink:href="#DejaVuSans-38"/>
       <use xlink:href="#DejaVuSans-30" x="63.623047"/>
      </g>
     </g>
    </g>
    <g id="ytick_9">
     <g id="line2d_17">
      <g>
       <use xlink:href="#m9595fb7912" x="57.6" y="53.568" style="stroke: #000000; stroke-width: 0.8"/>
      </g>
     </g>
     <g id="text_18">
      <!-- 100 -->
      <g transform="translate(31.5125 57.367219) scale(0.1 -0.1)">
       <use xlink:href="#DejaVuSans-31"/>
       <use xlink:href="#DejaVuSans-30" x="63.623047"/>
       <use xlink:href="#DejaVuSans-30" x="127.246094"/>
      </g>
     </g>
    </g>
    <g id="text_19">
     <!-- y -->
     <g transform="translate(23.415625 177.487375) rotate(-90) scale(0.1 -0.1)">
      <defs>
       <path id="DejaVuSans-79" d="M 2059 -325 
Q 1816 -950 1584 -1140 
Q 1353 -1331 966 -1331 
L 506 -1331 
L 506 -850 
L 844 -850 
Q 1081 -850 1212 -737 
Q 1344 -625 1503 -206 
L 1606 56 
L 191 3500 
L 800 3500 
L 1894 763 
L 2988 3500 
L 3597 3500 
L 2059 -325 
z
" transform="scale(0.015625)"/>
      </defs>
      <use xlink:href="#DejaVuSans-79"/>
     </g>
    </g>
   </g>
   <g id="line2d_18">
    <path d="M 282.723836 174.930023 
L 279.973981 173.262227 
L 277.776482 171.660036 
L 276.108957 170.131744 
L 274.907269 168.681008 
L 274.09156 167.290954 
L 273.589447 165.947704 
L 273.336134 164.640561 
L 273.282947 163.046258 
L 273.482502 161.182089 
L 273.991563 158.785403 
L 274.995969 155.249412 
L 275.895968 152.829716 
L 278.128112 147.541486 
L 282.949941 136.81472 
L 284.955377 132.438653 
L 284.953632 132.442604 
" clip-path="url(#p28711661c1)" style="fill: none; stroke: #1f77b4; stroke-width: 1.5; stroke-linecap: square"/>
   </g>
   <g id="line2d_19">
    <defs>
     <path id="m6d7c53b757" d="M -3 3 
L 3 -3 
M -3 -3 
L 3 3 
" style="stroke: #000000"/>
    </defs>
    <g clip-path="url(#p28711661c1)">
     <use xlink:href="#m6d7c53b757" x="282.723836" y="174.930023" style="stroke: #000000"/>
    </g>
   </g>
   <g id="line2d_20">
    <path d="M 105.963715 190.710104 
L 141.271932 201.771764 
L 171.440332 211.288394 
L 171.440332 211.288394 
" clip-path="url(#p28711661c1)" style="fill: none; stroke: #ff7f0e; stroke-width: 1.5; stroke-linecap: square"/>
   </g>
   <g id="line2d_21">
    <g clip-path="url(#p28711661c1)">
     <use xlink:href="#m6d7c53b757" x="105.963715" y="190.710104" style="stroke: #000000"/>
    </g>
   </g>
   <g id="line2d_22">
    <path d="M 286.225111 292.208777 
L 243.866213 233.43252 
L 238.9666 226.956917 
L 235.671138 222.904181 
L 233.15069 220.077145 
L 230.728725 217.67984 
L 228.401663 215.719538 
L 226.16595 214.143242 
L 224.018007 212.899824 
L 221.954385 211.940924 
L 219.488393 211.073201 
L 217.142792 210.496017 
L 214.478749 210.080053 
L 211.166874 209.803396 
L 207.025222 209.678861 
L 201.457886 209.755334 
L 192.376763 210.122632 
L 173.668215 211.156418 
L 171.448539 211.288985 
L 171.448539 211.288985 
" clip-path="url(#p28711661c1)" style="fill: none; stroke: #2ca02c; stroke-width: 1.5; stroke-linecap: square"/>
   </g>
   <g id="line2d_23">
    <g clip-path="url(#p28711661c1)">
     <use xlink:href="#m6d7c53b757" x="286.225111" y="292.208777" style="stroke: #000000"/>
    </g>
   </g>
   <g id="line2d_24">
    <path d="M 222.131005 295.488 
L 218.700542 288.708606 
L 214.628127 281.219135 
L 210.12304 273.403581 
L 204.397189 263.956645 
L 189.156647 239.473421 
L 171.445573 211.292979 
L 171.445573 211.292979 
" clip-path="url(#p28711661c1)" style="fill: none; stroke: #d62728; stroke-width: 1.5; stroke-linecap: square"/>
   </g>
   <g id="line2d_25">
    <g clip-path="url(#p28711661c1)">
     <use xlink:href="#m6d7c53b757" x="222.131005" y="295.488" style="stroke: #000000"/>
    </g>
   </g>
   <g id="line2d_26">
    <path d="M 228.667985 272.390187 
L 225.874128 267.642916 
L 223.216589 263.563576 
L 220.197648 259.372698 
L 217.354439 255.799471 
L 214.246359 252.236637 
L 210.55811 248.351906 
L 204.770264 242.631872 
L 195.393417 233.639218 
L 177.340205 216.770979 
L 171.445882 211.291729 
L 171.445882 211.291729 
" clip-path="url(#p28711661c1)" style="fill: none; stroke: #9467bd; stroke-width: 1.5; stroke-linecap: square"/>
   </g>
   <g id="line2d_27">
    <g clip-path="url(#p28711661c1)">
     <use xlink:href="#m6d7c53b757" x="228.667985" y="272.390187" style="stroke: #000000"/>
    </g>
   </g>
   <g id="line2d_28">
    <path d="M 73.832727 289.024467 
L 171.438806 211.292888 
L 171.438806 211.292888 
" clip-path="url(#p28711661c1)" style="fill: none; stroke: #8c564b; stroke-width: 1.5; stroke-linecap: square"/>
   </g>
   <g id="line2d_29">
    <g clip-path="url(#p28711661c1)">
     <use xlink:href="#m6d7c53b757" x="73.832727" y="289.024467" style="stroke: #000000"/>
    </g>
   </g>
   <g id="line2d_30">
    <path d="M 213.754992 130.782859 
L 217.905474 134.998209 
L 221.173113 138.012647 
L 223.643205 139.979836 
L 226.000923 141.567169 
L 228.265835 142.812848 
L 230.454136 143.753678 
L 232.578642 144.425064 
L 234.648794 144.861013 
L 236.670659 145.094136 
L 239.133861 145.147729 
L 241.523402 144.990958 
L 244.278386 144.601611 
L 247.702083 143.883469 
L 252.713885 142.559956 
L 260.094274 140.366972 
L 276.191028 135.263705 
L 284.949325 132.43672 
L 284.945629 132.437879 
" clip-path="url(#p28711661c1)" style="fill: none; stroke: #e377c2; stroke-width: 1.5; stroke-linecap: square"/>
   </g>
   <g id="line2d_31">
    <g clip-path="url(#p28711661c1)">
     <use xlink:href="#m6d7c53b757" x="213.754992" y="130.782859" style="stroke: #000000"/>
    </g>
   </g>
   <g id="line2d_32">
    <path d="M 229.542693 123.131074 
L 231.717851 124.716463 
L 233.807626 125.976182 
L 236.30393 127.19217 
L 238.676905 128.110308 
L 241.372343 128.905422 
L 244.322123 129.525157 
L 247.831077 130.01565 
L 253.990505 130.587136 
L 262.720455 131.232784 
L 279.267041 132.146517 
L 284.951249 132.433721 
L 284.951249 132.433721 
" clip-path="url(#p28711661c1)" style="fill: none; stroke: #7f7f7f; stroke-width: 1.5; stroke-linecap: square"/>
   </g>
   <g id="line2d_33">
    <g clip-path="url(#p28711661c1)">
     <use xlink:href="#m6d7c53b757" x="229.542693" y="123.131074" style="stroke: #000000"/>
    </g>
   </g>
   <g id="line2d_34">
    <path d="M 287.613369 225.551841 
L 247.766357 193.752286 
L 241.275729 188.844425 
L 237.348622 186.125576 
L 234.318866 184.316937 
L 232.047829 183.203771 
L 229.905203 182.397257 
L 227.882006 181.892866 
L 225.967214 181.673129 
L 224.147766 181.70764 
L 222.408928 181.952822 
L 220.322635 182.486107 
L 217.894788 183.380424 
L 215.105993 184.66478 
L 210.752979 186.947041 
L 203.753393 190.875434 
L 196.215095 195.580193 
L 171.449022 211.285675 
L 171.449022 211.285675 
" clip-path="url(#p28711661c1)" style="fill: none; stroke: #bcbd22; stroke-width: 1.5; stroke-linecap: square"/>
   </g>
   <g id="line2d_35">
    <g clip-path="url(#p28711661c1)">
     <use xlink:href="#m6d7c53b757" x="287.613369" y="225.551841" style="stroke: #000000"/>
    </g>
   </g>
   <g id="line2d_36">
    <path d="M 141.274985 131.281677 
L 189.428305 158.210293 
L 197.09031 162.765261 
L 201.393522 165.560424 
L 203.772316 167.317753 
L 205.698864 168.993545 
L 207.147901 170.591403 
L 207.919332 171.741182 
L 208.428534 172.851528 
L 208.690803 173.924675 
L 208.72885 174.963062 
L 208.5728 175.969331 
L 208.128761 177.266009 
L 207.305469 178.82316 
L 206.258808 180.317157 
L 204.550186 182.314419 
L 202.159579 184.735803 
L 197.483785 189.087394 
L 192.299662 193.614229 
L 177.768979 205.951403 
L 171.447817 211.285514 
L 171.447817 211.285514 
" clip-path="url(#p28711661c1)" style="fill: none; stroke: #17becf; stroke-width: 1.5; stroke-linecap: square"/>
   </g>
   <g id="line2d_37">
    <g clip-path="url(#p28711661c1)">
     <use xlink:href="#m6d7c53b757" x="141.274985" y="131.281677" style="stroke: #000000"/>
    </g>
   </g>
   <g id="line2d_38">
    <path d="M 171.438138 274.382863 
L 171.438138 269.876437 
L 171.438138 265.370011 
L 171.438138 260.863585 
L 171.438138 256.357159 
L 171.438138 251.850734 
L 171.438138 247.344308 
L 171.438139 242.837882 
L 171.438143 238.331456 
L 171.438155 233.825031 
L 171.438191 229.318605 
L 171.438305 224.812179 
L 171.438662 220.305753 
L 171.439781 215.799328 
L 171.443291 211.292902 
L 171.454297 206.786476 
L 171.488793 202.28005 
L 171.596827 197.773625 
L 171.93426 193.267199 
L 172.979451 188.760773 
L 176.135063 184.254347 
L 184.970598 179.747921 
L 205.261265 175.241496 
L 236.254603 170.73507 
L 263.01598 166.228644 
L 276.902459 161.722218 
L 282.261622 157.215793 
L 284.087123 152.709367 
L 284.682002 148.202941 
L 284.873036 143.696515 
L 284.934094 139.19009 
L 284.953579 134.683664 
L 284.959795 130.177238 
L 284.961777 125.670812 
L 284.962409 121.164386 
L 284.962611 116.657961 
L 284.962675 112.151535 
L 284.962696 107.645109 
L 284.962702 103.138683 
L 284.962704 98.632258 
L 284.962705 94.125832 
L 284.962705 89.619406 
L 284.962705 85.11298 
L 284.962705 80.606555 
L 284.962705 76.100129 
L 284.962705 71.593703 
L 284.962705 67.087277 
L 284.962705 62.580852 
L 284.962705 58.074426 
L 284.962705 53.568 
" clip-path="url(#p28711661c1)" style="fill: none; stroke-dasharray: 5.55,2.4; stroke-dashoffset: 0; stroke: #1f77b4; stroke-width: 1.5"/>
   </g>
   <g id="line2d_39">
    <path d="M 80.618483 211.292902 
L 87.105602 211.292902 
L 93.59272 211.292902 
L 100.079838 211.292902 
L 106.566956 211.292902 
L 113.054074 211.292902 
L 119.541192 211.292901 
L 126.02831 211.292901 
L 132.515429 211.292898 
L 139.002547 211.29289 
L 145.489665 211.292865 
L 151.976783 211.292786 
L 158.463901 211.292538 
L 164.951019 211.29176 
L 171.438138 211.289322 
L 177.925256 211.281676 
L 184.412374 211.257713 
L 190.899492 211.182665 
L 197.38661 210.948259 
L 203.873728 210.222193 
L 210.360846 208.030074 
L 216.847965 201.892267 
L 223.335083 187.796889 
L 229.822201 166.266654 
L 236.309319 147.676248 
L 242.796437 138.029686 
L 249.283555 134.306821 
L 255.770673 133.038694 
L 262.257792 132.625448 
L 268.74491 132.492742 
L 275.232028 132.450327 
L 281.719146 132.43679 
L 288.206264 132.432473 
L 294.693382 132.431096 
L 301.1805 132.430657 
L 307.667619 132.430516 
L 314.154737 132.430472 
L 320.641855 132.430458 
L 327.128973 132.430453 
L 333.616091 132.430452 
L 340.103209 132.430451 
L 346.590328 132.430451 
L 353.077446 132.430451 
L 359.564564 132.430451 
L 366.051682 132.430451 
L 372.5388 132.430451 
L 379.025918 132.430451 
L 385.513036 132.430451 
L 392.000155 132.430451 
L 398.487273 132.430451 
" clip-path="url(#p28711661c1)" style="fill: none; stroke-dasharray: 5.55,2.4; stroke-dashoffset: 0; stroke: #ff7f0e; stroke-width: 1.5"/>
   </g>
   <g id="patch_3">
    <path d="M 57.6 307.584 
L 57.6 41.472 
" style="fill: none; stroke: #000000; stroke-width: 0.8; stroke-linejoin: miter; stroke-linecap: square"/>
   </g>
   <g id="patch_4">
    <path d="M 414.72 307.584 
L 414.72 41.472 
" style="fill: none; stroke: #000000; stroke-width: 0.8; stroke-linejoin: miter; stroke-linecap: square"/>
   </g>
   <g id="patch_5">
    <path d="M 57.6 307.584 
L 414.72 307.584 
" style="fill: none; stroke: #000000; stroke-width: 0.8; stroke-linejoin: miter; stroke-linecap: square"/>
   </g>
   <g id="patch_6">
    <path d="M 57.6 41.472 
L 414.72 41.472 
" style="fill: none; stroke: #000000; stroke-width: 0.8; stroke-linejoin: miter; stroke-linecap: square"/>
   </g>
   <g id="text_20">
    <!-- (49, 23) -->
    <g transform="translate(289.53531 174.930023) scale(0.1 -0.1)">
     <defs>
      <path id="DejaVuSans-28" d="M 1984 4856 
Q 1566 4138 1362 3434 
Q 1159 2731 1159 2009 
Q 1159 1288 1364 580 
Q 1569 -128 1984 -844 
L 1484 -844 
Q 1016 -109 783 600 
Q 550 1309 550 2009 
Q 550 2706 781 3412 
Q 1013 4119 1484 4856 
L 1984 4856 
z
" transform="scale(0.015625)"/>
      <path id="DejaVuSans-39" d="M 703 97 
L 703 672 
Q 941 559 1184 500 
Q 1428 441 1663 441 
Q 2288 441 2617 861 
Q 2947 1281 2994 2138 
Q 2813 1869 2534 1725 
Q 2256 1581 1919 1581 
Q 1219 1581 811 2004 
Q 403 2428 403 3163 
Q 403 3881 828 4315 
Q 1253 4750 1959 4750 
Q 2769 4750 3195 4129 
Q 3622 3509 3622 2328 
Q 3622 1225 3098 567 
Q 2575 -91 1691 -91 
Q 1453 -91 1209 -44 
Q 966 3 703 97 
z
M 1959 2075 
Q 2384 2075 2632 2365 
Q 2881 2656 2881 3163 
Q 2881 3666 2632 3958 
Q 2384 4250 1959 4250 
Q 1534 4250 1286 3958 
Q 1038 3666 1038 3163 
Q 1038 2656 1286 2365 
Q 1534 2075 1959 2075 
z
" transform="scale(0.015625)"/>
      <path id="DejaVuSans-2c" d="M 750 794 
L 1409 794 
L 1409 256 
L 897 -744 
L 494 -744 
L 750 256 
L 750 794 
z
" transform="scale(0.015625)"/>
      <path id="DejaVuSans-20" transform="scale(0.015625)"/>
      <path id="DejaVuSans-33" d="M 2597 2516 
Q 3050 2419 3304 2112 
Q 3559 1806 3559 1356 
Q 3559 666 3084 287 
Q 2609 -91 1734 -91 
Q 1441 -91 1130 -33 
Q 819 25 488 141 
L 488 750 
Q 750 597 1062 519 
Q 1375 441 1716 441 
Q 2309 441 2620 675 
Q 2931 909 2931 1356 
Q 2931 1769 2642 2001 
Q 2353 2234 1838 2234 
L 1294 2234 
L 1294 2753 
L 1863 2753 
Q 2328 2753 2575 2939 
Q 2822 3125 2822 3475 
Q 2822 3834 2567 4026 
Q 2313 4219 1838 4219 
Q 1578 4219 1281 4162 
Q 984 4106 628 3988 
L 628 4550 
Q 988 4650 1302 4700 
Q 1616 4750 1894 4750 
Q 2613 4750 3031 4423 
Q 3450 4097 3450 3541 
Q 3450 3153 3228 2886 
Q 3006 2619 2597 2516 
z
" transform="scale(0.015625)"/>
      <path id="DejaVuSans-29" d="M 513 4856 
L 1013 4856 
Q 1481 4119 1714 3412 
Q 1947 2706 1947 2009 
Q 1947 1309 1714 600 
Q 1481 -109 1013 -844 
L 513 -844 
Q 928 -128 1133 580 
Q 1338 1288 1338 2009 
Q 1338 2731 1133 3434 
Q 928 4138 513 4856 
z
" transform="scale(0.015625)"/>
     </defs>
     <use xlink:href="#DejaVuSans-28"/>
     <use xlink:href="#DejaVuSans-34" x="39.013672"/>
     <use xlink:href="#DejaVuSans-39" x="102.636719"/>
     <use xlink:href="#DejaVuSans-2c" x="166.259766"/>
     <use xlink:href="#DejaVuSans-20" x="198.046875"/>
     <use xlink:href="#DejaVuSans-32" x="229.833984"/>
     <use xlink:href="#DejaVuSans-33" x="293.457031"/>
     <use xlink:href="#DejaVuSans-29" x="357.080078"/>
    </g>
   </g>
   <g id="text_21">
    <!-- (-29, 13) -->
    <g transform="translate(112.775189 190.710104) scale(0.1 -0.1)">
     <defs>
      <path id="DejaVuSans-2d" d="M 313 2009 
L 1997 2009 
L 1997 1497 
L 313 1497 
L 313 2009 
z
" transform="scale(0.015625)"/>
     </defs>
     <use xlink:href="#DejaVuSans-28"/>
     <use xlink:href="#DejaVuSans-2d" x="39.013672"/>
     <use xlink:href="#DejaVuSans-32" x="75.097656"/>
     <use xlink:href="#DejaVuSans-39" x="138.720703"/>
     <use xlink:href="#DejaVuSans-2c" x="202.34375"/>
     <use xlink:href="#DejaVuSans-20" x="234.130859"/>
     <use xlink:href="#DejaVuSans-31" x="265.917969"/>
     <use xlink:href="#DejaVuSans-33" x="329.541016"/>
     <use xlink:href="#DejaVuSans-29" x="393.164062"/>
    </g>
   </g>
   <g id="text_22">
    <!-- (51, -51) -->
    <g transform="translate(293.036585 292.208777) scale(0.1 -0.1)">
     <defs>
      <path id="DejaVuSans-35" d="M 691 4666 
L 3169 4666 
L 3169 4134 
L 1269 4134 
L 1269 2991 
Q 1406 3038 1543 3061 
Q 1681 3084 1819 3084 
Q 2600 3084 3056 2656 
Q 3513 2228 3513 1497 
Q 3513 744 3044 326 
Q 2575 -91 1722 -91 
Q 1428 -91 1123 -41 
Q 819 9 494 109 
L 494 744 
Q 775 591 1075 516 
Q 1375 441 1709 441 
Q 2250 441 2565 725 
Q 2881 1009 2881 1497 
Q 2881 1984 2565 2268 
Q 2250 2553 1709 2553 
Q 1456 2553 1204 2497 
Q 953 2441 691 2322 
L 691 4666 
z
" transform="scale(0.015625)"/>
     </defs>
     <use xlink:href="#DejaVuSans-28"/>
     <use xlink:href="#DejaVuSans-35" x="39.013672"/>
     <use xlink:href="#DejaVuSans-31" x="102.636719"/>
     <use xlink:href="#DejaVuSans-2c" x="166.259766"/>
     <use xlink:href="#DejaVuSans-20" x="198.046875"/>
     <use xlink:href="#DejaVuSans-2d" x="229.833984"/>
     <use xlink:href="#DejaVuSans-35" x="265.917969"/>
     <use xlink:href="#DejaVuSans-31" x="329.541016"/>
     <use xlink:href="#DejaVuSans-29" x="393.164062"/>
    </g>
   </g>
   <g id="text_23">
    <!-- (22, -53) -->
    <g transform="translate(228.942479 295.488) scale(0.1 -0.1)">
     <use xlink:href="#DejaVuSans-28"/>
     <use xlink:href="#DejaVuSans-32" x="39.013672"/>
     <use xlink:href="#DejaVuSans-32" x="102.636719"/>
     <use xlink:href="#DejaVuSans-2c" x="166.259766"/>
     <use xlink:href="#DejaVuSans-20" x="198.046875"/>
     <use xlink:href="#DejaVuSans-2d" x="229.833984"/>
     <use xlink:href="#DejaVuSans-35" x="265.917969"/>
     <use xlink:href="#DejaVuSans-33" x="329.541016"/>
     <use xlink:href="#DejaVuSans-29" x="393.164062"/>
    </g>
   </g>
   <g id="text_24">
    <!-- (25, -39) -->
    <g transform="translate(235.479459 272.390187) scale(0.1 -0.1)">
     <use xlink:href="#DejaVuSans-28"/>
     <use xlink:href="#DejaVuSans-32" x="39.013672"/>
     <use xlink:href="#DejaVuSans-35" x="102.636719"/>
     <use xlink:href="#DejaVuSans-2c" x="166.259766"/>
     <use xlink:href="#DejaVuSans-20" x="198.046875"/>
     <use xlink:href="#DejaVuSans-2d" x="229.833984"/>
     <use xlink:href="#DejaVuSans-33" x="265.917969"/>
     <use xlink:href="#DejaVuSans-39" x="329.541016"/>
     <use xlink:href="#DejaVuSans-29" x="393.164062"/>
    </g>
   </g>
   <g id="text_25">
    <!-- (-43, -49) -->
    <g transform="translate(80.644201 289.024467) scale(0.1 -0.1)">
     <use xlink:href="#DejaVuSans-28"/>
     <use xlink:href="#DejaVuSans-2d" x="39.013672"/>
     <use xlink:href="#DejaVuSans-34" x="75.097656"/>
     <use xlink:href="#DejaVuSans-33" x="138.720703"/>
     <use xlink:href="#DejaVuSans-2c" x="202.34375"/>
     <use xlink:href="#DejaVuSans-20" x="234.130859"/>
     <use xlink:href="#DejaVuSans-2d" x="265.917969"/>
     <use xlink:href="#DejaVuSans-34" x="302.001953"/>
     <use xlink:href="#DejaVuSans-39" x="365.625"/>
     <use xlink:href="#DejaVuSans-29" x="429.248047"/>
    </g>
   </g>
   <g id="text_26">
    <!-- (19, 51) -->
    <g transform="translate(220.566466 130.782859) scale(0.1 -0.1)">
     <use xlink:href="#DejaVuSans-28"/>
     <use xlink:href="#DejaVuSans-31" x="39.013672"/>
     <use xlink:href="#DejaVuSans-39" x="102.636719"/>
     <use xlink:href="#DejaVuSans-2c" x="166.259766"/>
     <use xlink:href="#DejaVuSans-20" x="198.046875"/>
     <use xlink:href="#DejaVuSans-35" x="229.833984"/>
     <use xlink:href="#DejaVuSans-31" x="293.457031"/>
     <use xlink:href="#DejaVuSans-29" x="357.080078"/>
    </g>
   </g>
   <g id="text_27">
    <!-- (26, 56) -->
    <g transform="translate(236.354167 123.131074) scale(0.1 -0.1)">
     <use xlink:href="#DejaVuSans-28"/>
     <use xlink:href="#DejaVuSans-32" x="39.013672"/>
     <use xlink:href="#DejaVuSans-36" x="102.636719"/>
     <use xlink:href="#DejaVuSans-2c" x="166.259766"/>
     <use xlink:href="#DejaVuSans-20" x="198.046875"/>
     <use xlink:href="#DejaVuSans-35" x="229.833984"/>
     <use xlink:href="#DejaVuSans-36" x="293.457031"/>
     <use xlink:href="#DejaVuSans-29" x="357.080078"/>
    </g>
   </g>
   <g id="text_28">
    <!-- (51, -9) -->
    <g transform="translate(294.424843 225.551841) scale(0.1 -0.1)">
     <use xlink:href="#DejaVuSans-28"/>
     <use xlink:href="#DejaVuSans-35" x="39.013672"/>
     <use xlink:href="#DejaVuSans-31" x="102.636719"/>
     <use xlink:href="#DejaVuSans-2c" x="166.259766"/>
     <use xlink:href="#DejaVuSans-20" x="198.046875"/>
     <use xlink:href="#DejaVuSans-2d" x="229.833984"/>
     <use xlink:href="#DejaVuSans-39" x="265.917969"/>
     <use xlink:href="#DejaVuSans-29" x="329.541016"/>
    </g>
   </g>
   <g id="text_29">
    <!-- (-13, 51) -->
    <g transform="translate(148.086459 131.281677) scale(0.1 -0.1)">
     <use xlink:href="#DejaVuSans-28"/>
     <use xlink:href="#DejaVuSans-2d" x="39.013672"/>
     <use xlink:href="#DejaVuSans-31" x="75.097656"/>
     <use xlink:href="#DejaVuSans-33" x="138.720703"/>
     <use xlink:href="#DejaVuSans-2c" x="202.34375"/>
     <use xlink:href="#DejaVuSans-20" x="234.130859"/>
     <use xlink:href="#DejaVuSans-35" x="265.917969"/>
     <use xlink:href="#DejaVuSans-31" x="329.541016"/>
     <use xlink:href="#DejaVuSans-29" x="393.164062"/>
    </g>
   </g>
  </g>
 </g>
 <defs>
  <clipPath id="p28711661c1">
   <rect x="57.6" y="41.472" width="357.12" height="266.112"/>
  </clipPath>
 </defs>
</svg>
